<svg width="41" height="40" viewBox="0 0 41 40" fill="none" xmlns="http://www.w3.org/2000/svg">
<g opacity="0.45" clip-path="url(#clip0_1314_140)">
<g clip-path="url(#clip1_1314_140)">
<path d="M0.0390625 0.000976562H40.2409V39.9529H0.0390625V0.000976562Z" fill="#010202"/>
<path d="M3.50781 32.4648H18.5835V34.9647H3.50781V32.4648Z" fill="white"/>
<path d="M3.33594 10.5199L4.50753 9.42408C4.82341 9.80647 5.12779 10.0291 5.53555 10.0291C5.98352 10.0291 6.27642 9.72086 6.27642 9.11588V4.99512H8.0855V9.12729C8.0855 9.94345 7.87875 10.5199 7.44227 10.9594C7.01154 11.3874 6.39128 11.6214 5.64467 11.6214C4.49605 11.6157 3.80687 11.142 3.33594 10.5199Z" fill="white"/>
<path d="M8.50391 4.99512H13.7761V6.519H10.3015V7.51209H13.4487V8.93324H10.3015V9.96628H13.822V11.5016H8.50391V4.99512Z" fill="white"/>
<path d="M16.1479 6.57607H14.1895V4.99512H19.9268V6.57607H17.9627V11.5073H16.1479V6.57607Z" fill="white"/>
<path d="M8.06211 16.1361C8.64216 15.885 9.0729 15.4398 9.0729 14.6864V14.6693C9.08438 14.2755 8.92932 13.8931 8.65365 13.6077C8.26886 13.2367 7.6888 13.0312 6.86754 13.0312H3.50781V19.5434H6.88477C8.4469 19.5434 9.3658 18.8642 9.3658 17.7456V17.7285C9.3658 16.8438 8.8604 16.3986 8.06211 16.1361ZM5.27669 14.4809H6.46552C6.99963 14.4809 7.28679 14.675 7.28679 15.0403V15.0574C7.28679 15.4398 6.97091 15.6224 6.41383 15.6224H5.27095L5.27669 14.4809ZM7.55097 17.4945C7.55097 17.8769 7.24084 18.088 6.67802 18.088H5.27669V16.8895H6.66079C7.26956 16.8895 7.55097 17.1235 7.55097 17.4773V17.4945Z" fill="white"/>
<path d="M19.3254 12.9795H17.5737L15.1271 18.7554L14.1049 17.2658C14.9204 16.9233 15.4545 16.2613 15.4545 15.2568V15.2396C15.4545 14.6004 15.2592 14.1039 14.8744 13.7215C14.4322 13.282 13.7431 13.0252 12.738 13.0252H9.63672V19.5373H11.4515V17.5683H12.2556L13.5765 19.543H16.695L17.1602 18.373H19.6987L20.1696 19.543H22.1165L19.3254 12.9795ZM13.6339 15.3823C13.6339 15.856 13.2664 16.1528 12.6576 16.1528H11.4515V14.5833H12.6519C13.2491 14.5833 13.6339 14.8458 13.6339 15.3652V15.3823ZM17.6943 16.9633L18.4352 15.1198L19.1646 16.9633H17.6943Z" fill="white"/>
<path d="M22.3281 13.0312H24.143V19.5434H22.3281V13.0312Z" fill="white"/>
<path d="M24.5957 13.0312H26.2899L28.9834 16.4728V13.0312H30.781V19.5434H29.2017L26.3933 15.9706V19.5434H24.5957V13.0312Z" fill="white"/>
<path d="M30.8965 18.5732L31.9073 17.3746C32.562 17.8883 33.2741 18.1566 34.0322 18.1566C34.5261 18.1566 34.7903 17.991 34.7903 17.7114V17.6943C34.7903 17.4146 34.5778 17.2776 33.6762 17.0607C32.2806 16.7468 31.2066 16.353 31.2066 15.0232V15.0061C31.2066 13.7961 32.1715 12.9229 33.7451 12.9229C34.8592 12.9229 35.7322 13.2196 36.4386 13.7904L35.5312 15.0574C34.9339 14.6294 34.2792 14.4182 33.6991 14.4182C33.2569 14.4182 33.0444 14.5951 33.0444 14.8348V14.852C33.0444 15.1487 33.2684 15.28 34.1873 15.4855C35.6862 15.8108 36.6224 16.2959 36.6224 17.5116V17.5287C36.6224 18.8586 35.5656 19.6519 33.9748 19.6519C32.8032 19.6519 31.712 19.2923 30.8965 18.5732Z" fill="white"/>
</g>
</g>
<defs>
<clipPath id="clip0_1314_140">
<rect width="40.2857" height="40" fill="white"/>
</clipPath>
<clipPath id="clip1_1314_140">
<rect width="40.2018" height="39.952" fill="white" transform="translate(0.0390625 0.000976562)"/>
</clipPath>
</defs>
</svg>
