<svg width="29" height="29" viewBox="0 0 29 29" fill="none" xmlns="http://www.w3.org/2000/svg">
<g clip-path="url(#clip0_1297_853)">
<path d="M25.5193 19.09C25.2932 18.9619 25.1187 18.7591 25.0257 18.5165C24.9326 18.2738 24.9268 18.0064 25.0093 17.76C26.0259 14.8845 25.8896 11.7272 24.6292 8.94996C23.5286 6.458 21.5896 4.4305 19.1492 3.21995C16.8031 2.02855 14.1265 1.65408 11.5435 2.15583C8.96048 2.65758 6.61869 4.00689 4.8892 5.98997C3.16464 7.94345 2.13199 10.4109 1.95122 13.0104C1.77044 15.6099 2.45162 18.1966 3.8892 20.37C5.41359 22.6334 7.664 24.3096 10.2691 25.1222C12.8742 25.9348 15.6784 25.8353 18.2193 24.84C18.4349 24.7878 18.6619 24.8088 18.8643 24.8997C19.0667 24.9906 19.233 25.1462 19.3372 25.3421C19.4414 25.538 19.4777 25.763 19.44 25.9816C19.4023 26.2003 19.293 26.4003 19.1292 26.55C15.6692 28.87 8.01919 27.48 4.12919 23.74C1.63898 21.3256 0.145234 18.0648 -0.0565967 14.6022C-0.258427 11.1396 0.846504 7.72728 3.03935 5.03996C5.23907 2.37637 8.35344 0.629525 11.7732 0.141246C15.193 -0.347033 18.6721 0.458416 21.5293 2.39997C24.0779 4.145 25.9668 6.69511 26.8934 9.64161C27.8199 12.5881 27.7304 15.7604 26.6392 18.65C26.5946 18.7525 26.5304 18.8452 26.45 18.9228C26.3696 19.0004 26.2745 19.0614 26.1705 19.1023C26.0664 19.1431 25.9553 19.1631 25.8435 19.161C25.7318 19.1588 25.6217 19.1347 25.5193 19.09Z" fill="#09C2B4"/>
<path d="M21.03 15.3795C20.9998 15.5099 20.94 15.6315 20.8552 15.735C20.7704 15.8385 20.6626 15.921 20.5407 15.9762C20.4188 16.0313 20.286 16.0576 20.1523 16.053C20.0186 16.0484 19.8878 16.013 19.77 15.9495C19.6183 15.8644 19.4712 15.7709 19.3298 15.6695C19.2505 15.5809 19.1923 15.4756 19.1594 15.3613C19.1265 15.247 19.1198 15.1268 19.1398 15.0095C19.3867 13.9277 19.2924 12.7958 18.8698 11.7698C18.4472 10.7437 17.7172 9.87376 16.78 9.27957C15.8153 8.626 14.6624 8.30724 13.499 8.37228C12.3355 8.43732 11.2257 8.88254 10.3398 9.63955C9.44898 10.3868 8.81958 11.3984 8.54267 12.5276C8.26575 13.6569 8.35568 14.845 8.79975 15.9195C9.25569 17.0027 10.0516 17.9084 11.0671 18.5C12.0826 19.0916 13.2627 19.3371 14.4299 19.1995C14.8299 19.1995 15.4298 18.9296 15.5998 19.1096C15.8237 19.3118 16.01 19.5522 16.1498 19.8195C16.2081 19.9154 16.2439 20.0233 16.2543 20.135C16.2648 20.2467 16.2496 20.3593 16.2101 20.4643C16.1707 20.5693 16.1078 20.6639 16.0263 20.7411C15.9449 20.8182 15.8469 20.8758 15.7399 20.9095C14.3701 21.2951 12.9174 21.2724 11.5602 20.8443C10.2031 20.4162 9.00047 19.6013 8.0998 18.4996C6.98512 17.1469 6.38992 15.4407 6.42109 13.6882C6.45225 11.9357 7.1079 10.2518 8.26996 8.93954C9.41165 7.62032 10.9863 6.75158 12.7111 6.48947C14.436 6.22735 16.1978 6.58905 17.6799 7.50955C18.9811 8.31635 20.0014 9.50543 20.601 10.9141C21.2007 12.3229 21.3505 13.8824 21.03 15.3795Z" fill="#09C2B4"/>
<path d="M27.7699 23.8597H24.6998C24.5874 23.8597 24.476 23.882 24.3722 23.9254C24.2684 23.9687 24.1742 24.0322 24.0951 24.1122C24.016 24.1922 23.9536 24.2871 23.9115 24.3914C23.8694 24.4957 23.8484 24.6073 23.8497 24.7197V27.8497C23.8474 28.039 23.7828 28.2223 23.6657 28.371C23.5486 28.5197 23.3855 28.6257 23.202 28.6724C23.0186 28.7191 22.825 28.704 22.651 28.6294C22.477 28.5548 22.3325 28.4248 22.2399 28.2597L16.3898 17.5897C16.2971 17.4278 16.2601 17.2399 16.2848 17.0549C16.3095 16.87 16.3946 16.6983 16.5265 16.5663C16.6584 16.4344 16.8301 16.3495 17.015 16.3249C17.2 16.3002 17.3878 16.337 17.5497 16.4297L28.1798 22.2597C28.3479 22.3493 28.481 22.4927 28.5578 22.667C28.6346 22.8413 28.6507 23.0363 28.6034 23.2208C28.5561 23.4053 28.4482 23.5685 28.297 23.6844C28.1459 23.8002 27.9603 23.862 27.7699 23.8597Z" fill="#09C2B4"/>
</g>
<defs>
<clipPath id="clip0_1297_853">
<rect width="28.63" height="28.66" fill="white"/>
</clipPath>
</defs>
</svg>
