<svg width="37" height="25" viewBox="0 0 37 25" fill="none" xmlns="http://www.w3.org/2000/svg">
<g clip-path="url(#clip0_1297_817)">
<g clip-path="url(#clip1_1297_817)">
<path d="M8.53789 5.32208C9.38908 5.64467 10.3065 5.7717 11.2174 5.6931C11.9091 5.6401 12.5916 5.60034 13.2923 5.5385C13.4646 5.52188 13.6306 5.46749 13.7778 5.37949C14.3915 5.01288 14.9824 4.61536 15.6099 4.25317C16.9347 3.46247 18.5282 3.204 20.0484 3.53321C21.5473 3.88486 23.0862 4.05256 24.6287 4.03232C25.1854 3.98791 25.739 3.9127 26.2867 3.80705C26.4645 3.75968 26.6377 3.69762 26.8044 3.62154C26.6898 3.4272 26.5936 3.26818 26.5066 3.10917C26.4184 2.97904 26.3585 2.83307 26.3303 2.68003C26.3022 2.52698 26.3065 2.37003 26.3429 2.2186C26.3792 2.06718 26.447 1.92441 26.542 1.79889C26.6371 1.67336 26.7574 1.56766 26.8959 1.48815C27.7067 1.00228 28.5403 0.551753 29.3876 0.127725C29.6539 -0.00344933 29.9622 -0.0307439 30.2488 0.0514982C30.5353 0.13374 30.7781 0.319206 30.9267 0.569421C31.261 1.08179 31.5633 1.61183 31.8427 2.14628C31.8868 2.20548 31.9167 2.27334 31.9304 2.34501C31.9441 2.41668 31.9413 2.49039 31.922 2.56086C31.9028 2.63134 31.8676 2.69684 31.819 2.75269C31.7705 2.80853 31.7097 2.85334 31.6411 2.88391C31.5775 2.91689 31.5074 2.93654 31.4354 2.94158C31.3633 2.94663 31.2911 2.93695 31.2232 2.91318C31.1553 2.88942 31.0934 2.8521 31.0415 2.80367C30.9896 2.75524 30.9489 2.69679 30.9221 2.63214C30.6564 2.19044 30.3907 1.74875 30.1433 1.30705C30.0059 1.06854 29.8548 1.0332 29.6121 1.17013C28.9571 1.54115 28.2883 1.90335 27.6196 2.2567C27.3722 2.3848 27.3357 2.52172 27.4777 2.76024C29.209 5.67838 30.9342 8.6024 32.6533 11.5323C32.8411 11.8503 33.0336 12.1684 33.2168 12.4908C33.3222 12.6896 33.455 12.7116 33.6474 12.6056C34.3314 12.2199 35.0184 11.843 35.7085 11.4749C35.7575 11.4598 35.8018 11.433 35.8372 11.397C35.8727 11.3611 35.8981 11.3171 35.9114 11.2692C35.9246 11.2212 35.9251 11.1709 35.9128 11.1227C35.9006 11.0745 35.8761 11.0301 35.8414 10.9935C35.6307 10.6578 35.4291 10.3132 35.2321 9.96871C35.1861 9.91001 35.1539 9.84236 35.1376 9.77046C35.1214 9.69856 35.1217 9.62412 35.1382 9.55229C35.1548 9.48045 35.1873 9.41294 35.2336 9.35443C35.2799 9.29592 35.3387 9.24781 35.4061 9.21342C35.6718 9.05441 35.9604 9.15158 36.1574 9.46518C36.4001 9.86271 36.6154 10.2647 36.8536 10.671C37.0072 10.9328 37.0491 11.2419 36.9705 11.5329C36.8918 11.824 36.6987 12.0741 36.4321 12.2302C35.6352 12.7072 34.8108 13.1489 33.9817 13.5553C33.7121 13.6922 33.3986 13.7255 33.1046 13.6485C32.8105 13.5714 32.5576 13.3898 32.3969 13.1401C32.2733 12.9678 32.1725 12.7867 32.0488 12.588C31.2595 12.9627 30.5771 13.5176 30.0609 14.2046C31.3388 15.8433 31.1006 17.133 29.3372 17.9943C29.522 18.39 29.5849 18.8286 29.5183 19.2578C29.4517 19.687 29.2585 20.0887 28.9617 20.4148C28.3021 21.1304 27.4593 21.2496 26.4928 21.0244C26.4984 21.4018 26.4077 21.7748 26.2288 22.1106C26.0499 22.4464 25.7883 22.7347 25.4668 22.9502C25.1379 23.163 24.7574 23.29 24.3624 23.3186C23.9675 23.3472 23.5715 23.2766 23.2133 23.1136C23.0347 23.3963 22.8743 23.6657 22.6957 23.9307C22.403 24.3974 21.9417 24.7431 21.4004 24.9013C20.8592 25.0595 20.2764 25.019 19.7643 24.7876C17.4192 23.6745 15.074 22.5526 12.7472 21.3954C11.0342 20.5473 9.65094 19.2532 8.22188 18.0385C7.25085 17.2125 6.35304 16.3115 5.41865 15.4457C5.34995 15.3839 5.27674 15.3265 5.15307 15.2293C5.08437 15.4016 5.03392 15.5385 4.97896 15.671C4.92955 15.8226 4.84941 15.9633 4.74323 16.0849C4.63706 16.2064 4.50701 16.3064 4.36046 16.3792C4.21391 16.4519 4.05385 16.4958 3.88956 16.5085C3.72528 16.5211 3.56 16.5022 3.40335 16.4528C2.52698 16.1996 1.6598 15.9228 0.801746 15.6224C0.648956 15.5723 0.508276 15.4928 0.38833 15.3887C0.268384 15.2846 0.171642 15.1581 0.10396 15.0168C0.0362778 14.8755 -0.000946017 14.7224 -0.00540494 14.5669C-0.00986386 14.4113 0.0185304 14.2565 0.0780163 14.1118C1.29944 10.5017 2.52852 6.89451 3.76521 3.29027C3.81055 3.124 3.8922 2.969 4.00474 2.83567C4.11729 2.70235 4.25808 2.59376 4.41771 2.51721C4.57734 2.44067 4.75215 2.39792 4.93032 2.39184C5.10848 2.38576 5.28591 2.41649 5.45075 2.48197C6.15154 2.6984 6.84779 2.92366 7.54858 3.1401C8.63412 3.46695 8.92259 4.0014 8.60197 5.04822C8.57907 5.12772 8.56538 5.20282 8.53789 5.32208ZM8.21271 6.31147C8.17909 6.35513 8.14852 6.40087 8.12112 6.4484C7.27834 8.91748 6.43098 11.3866 5.60194 13.8601C5.58825 13.9386 5.59303 14.0191 5.61603 14.0955C5.63902 14.172 5.67966 14.2425 5.73478 14.3018C6.53634 15.0703 7.31951 15.8609 8.17603 16.5765C9.65548 17.8132 11.0662 19.1913 12.7243 20.1586C15.129 21.5632 17.7261 22.6631 20.2499 23.8777C20.5007 23.991 20.785 24.0151 21.0524 23.9455C21.3199 23.876 21.5532 23.7174 21.711 23.4979C21.9125 23.2373 22.0728 22.9457 22.2652 22.641L19.517 21.2541C19.1047 21.0465 18.9765 20.7549 19.1505 20.4678C19.3246 20.1807 19.6086 20.1542 20.0117 20.353C21.1842 20.9404 22.3522 21.5367 23.5293 22.1198C23.7086 22.2128 23.9044 22.2727 24.1065 22.2965C24.3669 22.3175 24.6273 22.2554 24.8474 22.1197C25.0676 21.984 25.2353 21.7823 25.3248 21.5456C25.4221 21.3039 25.4298 21.0373 25.3463 20.7909C25.2628 20.5445 25.0933 20.3336 24.8668 20.194C24.1064 19.6993 23.3324 19.2399 22.5766 18.7673L20.2864 17.3495C20.2169 17.3206 20.1546 17.2778 20.1035 17.2241C20.0524 17.1703 20.0137 17.1067 19.9899 17.0374C19.9661 16.9681 19.9577 16.8948 19.9654 16.8222C19.9731 16.7496 19.9967 16.6794 20.0346 16.6162C20.172 16.3424 20.4926 16.2982 20.8499 16.4837L21.0606 16.6074C22.9294 17.7146 24.7981 18.8233 26.6669 19.9334C26.7996 20.0212 26.9492 20.0823 27.1068 20.1132C27.2645 20.1441 27.4271 20.1441 27.5848 20.1131C27.7425 20.0822 27.892 20.0211 28.0247 19.9333C28.1574 19.8455 28.2704 19.7329 28.357 19.6021C28.4435 19.464 28.4992 19.3101 28.5208 19.1501C28.5423 18.9901 28.5292 18.8275 28.4823 18.6727C28.4354 18.5179 28.3556 18.3741 28.2481 18.2505C28.1406 18.1269 28.0077 18.0261 27.8577 17.9546L24.3447 15.936C23.4469 15.4148 22.5506 14.8892 21.6559 14.3592C21.5869 14.3292 21.5253 14.2854 21.4752 14.2306C21.4252 14.1758 21.3878 14.1113 21.3656 14.0415C21.3435 13.9716 21.3372 13.898 21.347 13.8256C21.3568 13.7532 21.3825 13.6836 21.4225 13.6215C21.4641 13.561 21.5181 13.5093 21.5812 13.4697C21.6444 13.4302 21.7155 13.4035 21.7898 13.3915C21.8641 13.3795 21.9401 13.3824 22.0132 13.3999C22.0863 13.4174 22.155 13.4493 22.2148 13.4935C22.2835 13.5288 22.3522 13.5774 22.4209 13.6171C24.308 14.6978 26.1951 15.7785 28.0822 16.8592C28.2089 16.9429 28.3519 17.0009 28.5025 17.0299C28.6532 17.0588 28.8083 17.0579 28.9585 17.0274C29.1088 16.9968 29.2512 16.9372 29.3769 16.8521C29.5026 16.767 29.609 16.6582 29.6899 16.5323C29.8479 16.2743 29.8937 15.9666 29.8174 15.6762C29.741 15.3857 29.5486 15.1362 29.2823 14.982C28.5036 14.474 27.7341 13.9528 26.9463 13.4581C24.4454 11.8857 21.9415 10.3191 19.4345 8.75847C19.2249 8.60674 18.9761 8.51334 18.7153 8.48842C18.4544 8.4635 18.1915 8.50801 17.9551 8.61713C16.969 9.06595 16.0211 9.58876 15.1199 10.1807C14.1118 10.9146 12.8619 11.2708 11.6021 11.1834C11.2923 11.1861 10.9888 11.0981 10.732 10.9309C10.4752 10.7636 10.2771 10.5252 10.1639 10.247C10.0462 9.98533 10.0125 9.69566 10.0672 9.41537C10.1219 9.13508 10.2625 8.87704 10.4708 8.67455C10.9929 8.08709 11.5197 7.49964 12.0418 6.90776C12.1014 6.83709 12.1518 6.75759 12.2618 6.60299C10.9132 6.88895 9.50778 6.79543 8.21271 6.33356V6.31147ZM31.4763 11.5853L27.3127 4.51819C26.2453 4.97734 25.0731 5.16296 23.9095 5.05706C22.7682 4.97847 21.633 4.83095 20.5109 4.61536C18.8894 4.30175 17.3917 4.35918 15.9077 5.21165C14.0891 6.30585 12.4934 7.71147 11.1991 9.35918C11.1365 9.4185 11.0928 9.49393 11.0734 9.57647C11.054 9.65902 11.0596 9.7452 11.0895 9.82478C11.1194 9.90436 11.1724 9.97397 11.2422 10.0253C11.3119 10.0767 11.3955 10.1076 11.483 10.1145C12.3682 10.2336 13.2689 10.0559 14.0343 9.61094C15.1153 8.9749 16.1871 8.32561 17.2956 7.73373C17.6823 7.51513 18.1245 7.40471 18.5727 7.41485C19.0209 7.42499 19.4573 7.5553 19.833 7.79116C21.3766 8.70105 22.9202 9.61978 24.4408 10.5738C25.9615 11.5279 27.3539 12.4731 28.8059 13.4272C28.9158 13.4979 29.0303 13.5553 29.1403 13.6215L29.0945 13.5067L31.4763 11.5853ZM7.70883 4.38126C7.59832 4.29917 7.47844 4.22952 7.35155 4.17366C6.66907 3.94398 5.97745 3.73197 5.29956 3.50228C4.9652 3.38744 4.81871 3.44928 4.70421 3.78055C3.52248 7.27879 2.33004 10.7741 1.12693 14.2664C1.03075 14.5535 1.12685 14.6728 1.38793 14.7567C2.05208 14.9555 2.70711 15.1719 3.37126 15.3751C3.90716 15.5429 3.90718 15.5385 4.08582 15.0217C5.20342 11.7414 6.32412 8.45959 7.44783 5.17632L7.70883 4.38126Z" fill="#09C2B4"/>
<path d="M34.0786 6.43958C34.4725 6.43958 34.5916 6.74876 34.729 7.01378C34.8664 7.2788 35.2421 7.60566 35.0039 8.01643C34.9619 8.08871 34.9015 8.14943 34.8283 8.19283C34.7551 8.23624 34.6717 8.26088 34.5859 8.26442C34.5 8.26796 34.4147 8.25029 34.338 8.21307C34.2612 8.17585 34.1955 8.12032 34.1473 8.05177C33.9323 7.76348 33.7496 7.45404 33.6023 7.12863C33.5675 7.05311 33.5532 6.97035 33.5604 6.88804C33.5677 6.80572 33.5965 6.72652 33.644 6.65777C33.6915 6.58903 33.7563 6.53299 33.8323 6.49484C33.9083 6.4567 33.993 6.43769 34.0786 6.43958Z" fill="#09C2B4"/>
<path d="M32.5167 3.79867C32.9748 3.79867 33.6435 4.925 33.4328 5.30927C33.3935 5.38211 33.3358 5.44427 33.2651 5.49003C33.1944 5.53579 33.1129 5.56368 33.0281 5.57116C32.9433 5.57863 32.8579 5.56545 32.7798 5.53281C32.7016 5.50017 32.6332 5.44913 32.5808 5.38437C32.3619 5.10247 32.1775 4.79715 32.0312 4.47447C31.9965 4.39899 31.9824 4.31618 31.9905 4.23399C31.9985 4.1518 32.0284 4.07299 32.0772 4.00512C32.1259 3.93726 32.192 3.88262 32.2689 3.84647C32.3459 3.81032 32.4313 3.79386 32.5167 3.79867Z" fill="#09C2B4"/>
</g>
</g>
<defs>
<clipPath id="clip0_1297_817">
<rect width="37" height="25" fill="white"/>
</clipPath>
<clipPath id="clip1_1297_817">
<rect width="37" height="25" fill="white"/>
</clipPath>
</defs>
</svg>
