<svg width="56" height="56" viewBox="0 0 56 56" fill="none" xmlns="http://www.w3.org/2000/svg">
<rect width="56" height="56" rx="14" fill="white"/>
<path d="M40.3676 17.4056C40.315 17.2057 40.2103 17.0233 40.0642 16.8771C39.918 16.731 39.7356 16.6263 39.5357 16.5737C37.1426 15.9523 34.6227 16.0194 32.266 16.7671C29.9093 17.5149 27.8117 18.9131 26.2147 20.8006L24.9127 22.3452L21.8747 21.6126C21.1359 21.3548 20.3288 21.3731 19.6025 21.6641C18.8761 21.9551 18.2797 22.4992 17.9232 23.1957L15.3566 27.7457C15.2667 27.9051 15.2156 28.0833 15.2073 28.266C15.199 28.4487 15.2337 28.6309 15.3088 28.7977C15.3839 28.9645 15.4971 29.1113 15.6393 29.2263C15.7816 29.3412 15.9489 29.4212 16.1277 29.4596L19.7129 30.2284C19.4093 31.1528 19.1925 32.1035 19.0654 33.0681C19.0423 33.2452 19.0601 33.4252 19.1176 33.5943C19.175 33.7634 19.2705 33.917 19.3967 34.0434L23.0134 37.6601C23.1218 37.7686 23.2506 37.8546 23.3924 37.9133C23.5341 37.9719 23.686 38.002 23.8394 38.0019C23.8729 38.0021 23.9064 38.0005 23.9397 37.9973C24.9261 37.9086 25.9005 37.717 26.8471 37.4256L27.5984 40.9303C27.6368 41.1091 27.7167 41.2764 27.8317 41.4186C27.9467 41.5609 28.0935 41.6741 28.2603 41.7492C28.4271 41.8242 28.6092 41.859 28.792 41.8507C28.9747 41.8424 29.1529 41.7913 29.3122 41.7014L33.8681 39.1324C34.5094 38.7428 35.0104 38.1595 35.2987 37.4667C35.5871 36.7739 35.6478 36.0073 35.4722 35.2778L34.6929 32.0578L36.1361 30.7312C38.0304 29.1384 39.4337 27.0405 40.1826 24.6815C40.9314 22.3225 40.9964 19.7994 40.3676 17.4056ZM18.1671 27.5101L19.9824 24.2901C20.0954 24.0716 20.2876 23.9047 20.5196 23.8233C20.7517 23.742 21.0061 23.7525 21.2307 23.8526L23.2351 24.3379L22.4767 25.2386C21.7575 26.1002 21.1354 27.0384 20.6217 28.0362L18.1671 27.5101ZM32.7154 37.1024L29.5479 38.8898L29.0462 36.5506C30.0622 36.044 31.0088 35.4088 31.8626 34.6606L32.7294 33.8638L33.2007 35.8051C33.2617 36.045 33.2479 36.2979 33.1611 36.5297C33.0744 36.7616 32.9189 36.9614 32.7154 37.1024ZM34.5996 28.9766L30.3004 32.9269C28.599 34.3983 26.5004 35.3335 24.2687 35.6149L21.4629 32.8102C21.8397 30.5726 22.8067 28.4759 24.2641 26.7366L26.2229 24.4114C26.2554 24.3776 26.2858 24.3417 26.3139 24.3041L27.9881 22.3149C29.226 20.8529 30.8297 19.7457 32.6354 19.1062C34.4412 18.4667 36.3843 18.3179 38.2664 18.6749C38.6319 20.5629 38.4846 22.5143 37.8397 24.3259C37.1948 26.1376 36.0759 27.7443 34.5996 28.9766ZM33.5227 21.7852C33.1766 21.7852 32.8383 21.8879 32.5505 22.0802C32.2627 22.2725 32.0384 22.5458 31.9059 22.8656C31.7735 23.1853 31.7388 23.5372 31.8064 23.8767C31.8739 24.2161 32.0406 24.5279 32.2853 24.7727C32.53 25.0174 32.8419 25.1841 33.1813 25.2516C33.5208 25.3191 33.8727 25.2845 34.1924 25.152C34.5122 25.0196 34.7855 24.7953 34.9778 24.5075C35.1701 24.2197 35.2727 23.8814 35.2727 23.5352C35.2727 23.0711 35.0884 22.626 34.7602 22.2978C34.432 21.9696 33.9869 21.7852 33.5227 21.7852Z" fill="#09C2B4"/>
</svg>
