<svg width="56" height="56" viewBox="0 0 56 56" fill="none" xmlns="http://www.w3.org/2000/svg">
<rect width="56" height="56" rx="14" fill="white"/>
<path opacity="0.2" d="M44.625 28L37.5 33.9375H18.5L11.375 28L18.5 22.0625H37.5L44.625 28Z" fill="#09C2B4"/>
<path d="M19.6585 23.0636L13.9039 28L19.6585 32.9365C19.7761 33.0334 19.8738 33.1535 19.9458 33.2898C20.0178 33.4261 20.0627 33.5758 20.0778 33.7302C20.093 33.8845 20.078 34.0404 20.0339 34.1887C19.9898 34.3371 19.9174 34.4749 19.8209 34.5941C19.7245 34.7132 19.6059 34.8114 19.4721 34.8829C19.3383 34.9543 19.1921 34.9976 19.0418 35.0101C18.8916 35.0226 18.7405 35.0042 18.5973 34.9559C18.4541 34.9076 18.3217 34.8304 18.2078 34.7288L11.4077 28.8954C11.2801 28.7859 11.1774 28.6489 11.107 28.4941C11.0365 28.3392 11 28.1703 11 27.9993C11 27.8283 11.0365 27.6594 11.107 27.5045C11.1774 27.3497 11.2801 27.2126 11.4077 27.1031L18.2078 21.2698C18.4389 21.0718 18.7369 20.9764 19.0363 21.0045C19.3358 21.0327 19.612 21.1822 19.8044 21.42C19.9968 21.6579 20.0895 21.9647 20.0621 22.2729C20.0348 22.5811 19.8896 22.8655 19.6585 23.0636ZM44.5923 27.1031L37.7922 21.2698C37.6778 21.1718 37.5457 21.0979 37.4036 21.0524C37.2614 21.0068 37.1119 20.9906 36.9637 21.0045C36.8154 21.0185 36.6713 21.0624 36.5395 21.1336C36.4077 21.2049 36.2908 21.3022 36.1956 21.42C36.0032 21.6579 35.9105 21.9647 35.9379 22.2729C35.9652 22.5811 36.1104 22.8655 36.3415 23.0636L42.0961 28L36.3415 32.9365C36.2239 33.0334 36.1262 33.1535 36.0542 33.2898C35.9822 33.4261 35.9373 33.5758 35.9222 33.7302C35.907 33.8845 35.922 34.0404 35.9661 34.1887C36.0102 34.3371 36.0826 34.4749 36.1791 34.5941C36.2755 34.7132 36.3941 34.8114 36.5279 34.8829C36.6617 34.9543 36.8079 34.9976 36.9582 35.0101C37.1084 35.0226 37.2595 35.0042 37.4027 34.9559C37.5459 34.9076 37.6783 34.8304 37.7922 34.7288L44.5923 28.8954C44.7199 28.7859 44.8226 28.6489 44.893 28.4941C44.9635 28.3392 45 28.1703 45 27.9993C45 27.8283 44.9635 27.6594 44.893 27.5045C44.8226 27.3497 44.7199 27.2126 44.5923 27.1031ZM32.9202 14.07C32.7803 14.0178 32.6317 13.9943 32.483 14.0012C32.3344 14.008 32.1884 14.0449 32.0536 14.1097C31.9187 14.1746 31.7976 14.2662 31.6972 14.3792C31.5967 14.4922 31.5189 14.6246 31.4681 14.7686L22.4012 40.4352C22.3502 40.5793 22.3273 40.7324 22.3338 40.8856C22.3403 41.0388 22.3761 41.1892 22.4391 41.3282C22.5022 41.4671 22.5912 41.592 22.7011 41.6955C22.8111 41.799 22.9397 41.8792 23.0798 41.9315C23.204 41.9769 23.3348 42.0001 23.4666 42C23.6993 42 23.9264 41.9262 24.117 41.7887C24.3076 41.6512 24.4525 41.4567 24.5319 41.2315L33.5988 15.5648C33.6496 15.4208 33.6723 15.2679 33.6657 15.1148C33.6591 14.9618 33.6232 14.8116 33.5602 14.6728C33.4972 14.534 33.4083 14.4093 33.2984 14.3059C33.1886 14.2025 33.0601 14.1223 32.9202 14.07Z" fill="#09C2B4"/>
</svg>
