<svg width="56" height="56" viewBox="0 0 56 56" fill="none" xmlns="http://www.w3.org/2000/svg">
<rect width="56" height="56" rx="14" fill="white"/>
<g clip-path="url(#clip0_1297_702)">
<path d="M28 37.6C30.5461 37.6 32.9879 36.5886 34.7882 34.7882C36.5886 32.9879 37.6 30.5461 37.6 28C37.6 25.4539 36.5886 23.0121 34.7882 21.2118C32.9879 19.4114 30.5461 18.4 28 18.4C25.4539 18.4 23.0121 19.4114 21.2118 21.2118C19.4114 23.0121 18.4 25.4539 18.4 28C18.4 30.5461 19.4114 32.9879 21.2118 34.7882C23.0121 36.5886 25.4539 37.6 28 37.6ZM28 16C29.5759 16 31.1363 16.3104 32.5922 16.9134C34.0481 17.5165 35.371 18.4004 36.4853 19.5147C37.5996 20.629 38.4835 21.9519 39.0866 23.4078C39.6896 24.8637 40 26.4241 40 28C40 31.1826 38.7357 34.2348 36.4853 36.4853C34.2348 38.7357 31.1826 40 28 40C21.364 40 16 34.6 16 28C16 24.8174 17.2643 21.7652 19.5147 19.5147C21.7652 17.2643 24.8174 16 28 16ZM28.6 22V28.3L34 31.504L33.1 32.98L26.8 29.2V22H28.6Z" fill="#09C2B4"/>
</g>
<defs>
<clipPath id="clip0_1297_702">
<rect width="24" height="24" fill="white" transform="translate(16 16)"/>
</clipPath>
</defs>
</svg>
