<svg width="56" height="56" viewBox="0 0 56 56" fill="none" xmlns="http://www.w3.org/2000/svg">
<rect width="56" height="56" rx="14" fill="white"/>
<path d="M28.0007 38.5329C30.1562 37.8662 31.9562 36.5498 33.4007 34.5835C34.8451 32.6173 35.6895 30.4227 35.934 27.9995H28.0007V17.4995L20.0007 20.4995V27.3995C20.0007 27.5551 20.0229 27.7551 20.0673 27.9995H28.0007V38.5329ZM28.0007 41.1995C27.8451 41.1995 27.7007 41.1884 27.5673 41.1662C27.434 41.144 27.3007 41.1107 27.1673 41.0662C24.1673 40.0662 21.7784 38.2164 20.0007 35.5169C18.2229 32.8173 17.334 29.9115 17.334 26.7995V20.4995C17.334 19.944 17.4953 19.444 17.818 18.9995C18.1407 18.5551 18.5571 18.2329 19.0673 18.0329L27.0673 15.0329C27.3784 14.9218 27.6895 14.8662 28.0007 14.8662C28.3118 14.8662 28.6229 14.9218 28.934 15.0329L36.934 18.0329C37.4451 18.2329 37.862 18.5551 38.1847 18.9995C38.5073 19.444 38.6682 19.944 38.6673 20.4995V26.7995C38.6673 29.9107 37.7784 32.8164 36.0007 35.5169C34.2229 38.2173 31.834 40.0671 28.834 41.0662C28.7007 41.1107 28.5673 41.144 28.434 41.1662C28.3007 41.1884 28.1562 41.1995 28.0007 41.1995Z" fill="#09C2B4"/>
</svg>
