<svg width="1440" height="720" viewBox="0 0 1440 720" fill="none" xmlns="http://www.w3.org/2000/svg">
<ellipse cx="723" cy="360" rx="1166" ry="360" fill="url(#paint0_linear_1297_607)"/>
<path d="M1888.5 360C1888.5 409.47 1856.03 456.692 1797.08 499.724C1738.13 542.749 1652.81 581.515 1547.34 614.081C1336.39 679.209 1044.95 719.5 723 719.5C401.054 719.5 109.606 679.209 -101.339 614.081C-206.814 581.515 -292.135 542.749 -351.075 499.724C-410.026 456.692 -442.5 409.47 -442.5 360C-442.5 310.53 -410.026 263.308 -351.075 220.276C-292.135 177.251 -206.814 138.485 -101.339 105.919C109.606 40.7906 401.054 0.5 723 0.5C1044.95 0.5 1336.39 40.7906 1547.34 105.919C1652.81 138.485 1738.13 177.251 1797.08 220.276C1856.03 263.308 1888.5 310.53 1888.5 360Z" stroke="#75E0D8" stroke-opacity="0.43"/>
<defs>
<linearGradient id="paint0_linear_1297_607" x1="723" y1="-20.5" x2="689" y2="757" gradientUnits="userSpaceOnUse">
<stop stop-color="#F2FFFE"/>
<stop offset="0.760635" stop-color="#F9F9F9"/>
</linearGradient>
</defs>
</svg>
