<svg width="542" height="230" viewBox="0 0 542 230" fill="none" xmlns="http://www.w3.org/2000/svg">
<g filter="url(#filter0_d_365_693)">
<g filter="url(#filter1_b_365_693)">
<rect x="13" y="9" width="551" height="81" rx="20" fill="white"/>
<rect x="13" y="9" width="551" height="81" rx="20" stroke="#E8E8E8" stroke-opacity="0.1" stroke-width="2"/>
</g>
<path fill-rule="evenodd" clip-rule="evenodd" d="M46.4407 22C47.5452 22 48.4407 22.8954 48.4407 24V27.6312C52.0111 25.7195 56.0911 24.6355 60.4242 24.6355C74.4657 24.6355 85.8485 36.0183 85.8485 50.0597C85.8485 64.1011 74.4657 75.4839 60.4242 75.4839C46.3828 75.4839 35 64.1011 35 50.0597C35 42.8532 37.9983 36.347 42.8155 31.7205H40.0842C38.9797 31.7205 38.0842 30.8251 38.0842 29.7205C38.0842 28.6159 38.9797 27.7205 40.0842 27.7205H44.4407V24C44.4407 22.8954 45.3361 22 46.4407 22Z" fill="#10124C"/>
<rect x="44.5664" y="34.1697" width="39.5868" height="17.3192" rx="8.65962" transform="rotate(15 44.5664 34.1697)" fill="#1EBAAF"/>
<path fill-rule="evenodd" clip-rule="evenodd" d="M68.6163 48.8133C68.3797 48.9515 68.2069 49.1784 68.1356 49.4442C68.0644 49.71 68.1007 49.9929 68.2364 50.2309L70.9707 55.0187C71.1068 55.2567 71.3314 55.4301 71.5951 55.5007C71.8587 55.5713 72.1399 55.5333 72.3767 55.3951C72.6135 55.2568 72.7866 55.0297 72.8578 54.7636C72.929 54.4976 72.8926 54.2144 72.7565 53.9763L70.5343 50.0869L74.4035 47.8297C74.6353 47.6891 74.8035 47.4627 74.8718 47.1991C74.9402 46.9355 74.9032 46.6559 74.7688 46.4205C74.6344 46.1851 74.4135 46.0127 74.1535 45.9404C73.8935 45.8682 73.6153 45.9019 73.3788 46.0343L68.6158 48.8124L68.6163 48.8133Z" fill="#343434"/>
<path fill-rule="evenodd" clip-rule="evenodd" d="M55.385 45.0428C55.5345 45.3048 55.5745 45.6165 55.496 45.9092C55.4176 46.2019 55.2272 46.4519 54.9667 46.604L49.7224 49.6648C49.4615 49.8169 49.1518 49.8586 48.8615 49.7807C48.5711 49.7029 48.3239 49.5118 48.1742 49.2495C48.0244 48.9873 47.9844 48.6754 48.063 48.3824C48.1416 48.0894 48.3323 47.8394 48.5932 47.6873L52.8543 45.2014L50.407 40.9179C50.2633 40.6562 50.2276 40.3476 50.3075 40.0586C50.3875 39.7696 50.5768 39.5233 50.8346 39.3727C51.0923 39.2222 51.398 39.1794 51.6858 39.2537C51.9735 39.328 52.2203 39.5133 52.373 39.7698L55.386 45.0422L55.385 45.0428Z" fill="#343434"/>
<path d="M117.104 60.712C115.792 60.712 114.576 60.488 113.456 60.04C112.352 59.608 111.392 58.984 110.576 58.168C109.776 57.368 109.152 56.424 108.704 55.336C108.256 54.248 108.032 53.056 108.032 51.76C108.032 50.464 108.256 49.272 108.704 48.184C109.152 47.08 109.776 46.128 110.576 45.328C111.392 44.528 112.352 43.912 113.456 43.48C114.576 43.032 115.792 42.808 117.104 42.808C118.432 42.808 119.64 43.032 120.728 43.48C121.832 43.912 122.792 44.528 123.608 45.328C124.424 46.128 125.048 47.072 125.48 48.16C125.928 49.248 126.152 50.448 126.152 51.76C126.152 53.44 125.792 54.928 125.072 56.224H119L118.976 55.048H118.928C118.576 55.496 118.152 55.84 117.656 56.08C117.16 56.32 116.608 56.44 116 56.44C114.832 56.44 113.912 56.024 113.24 55.192C112.568 54.36 112.232 53.216 112.232 51.76C112.232 50.304 112.568 49.16 113.24 48.328C113.912 47.496 114.832 47.08 116 47.08C116.608 47.08 117.16 47.2 117.656 47.44C118.152 47.664 118.576 48.008 118.928 48.472H118.976L119 47.032H121.496V54.304H124.64L123.272 55.168C123.544 54.704 123.752 54.184 123.896 53.608C124.04 53.016 124.112 52.4 124.112 51.76C124.112 50.368 123.816 49.152 123.224 48.112C122.632 47.056 121.808 46.232 120.752 45.64C119.712 45.032 118.496 44.728 117.104 44.728C115.728 44.728 114.504 45.032 113.432 45.64C112.376 46.232 111.552 47.056 110.96 48.112C110.368 49.168 110.072 50.384 110.072 51.76C110.072 53.136 110.368 54.352 110.96 55.408C111.552 56.464 112.376 57.296 113.432 57.904C114.504 58.496 115.728 58.792 117.104 58.792C117.968 58.792 118.776 58.664 119.528 58.408C120.296 58.152 120.976 57.792 121.568 57.328L122.768 58.864C122 59.456 121.136 59.912 120.176 60.232C119.216 60.552 118.192 60.712 117.104 60.712ZM116.864 54.4C117.504 54.4 118 54.184 118.352 53.752C118.72 53.304 118.904 52.704 118.904 51.952V51.568C118.904 50.816 118.72 50.224 118.352 49.792C118 49.344 117.504 49.12 116.864 49.12C116.224 49.12 115.72 49.352 115.352 49.816C115 50.264 114.824 50.912 114.824 51.76C114.824 52.608 115 53.264 115.352 53.728C115.72 54.176 116.224 54.4 116.864 54.4ZM140.02 58V40.48H142.66V58H140.02ZM129.22 58V40.48H131.86V58H129.22ZM130.54 50.032V47.632H141.34V50.032H130.54ZM152.391 58.24C150.231 58.24 148.567 57.68 147.399 56.56C146.231 55.44 145.647 53.84 145.647 51.76C145.647 49.744 146.183 48.16 147.255 47.008C148.343 45.856 149.831 45.28 151.719 45.28C153.543 45.28 154.943 45.824 155.919 46.912C156.911 48 157.407 49.544 157.407 51.544C157.407 51.752 157.399 51.984 157.383 52.24C157.383 52.496 157.375 52.696 157.359 52.84H147.087V50.8H155.391L154.983 51.424C154.983 50.064 154.711 49.056 154.167 48.4C153.623 47.728 152.807 47.392 151.719 47.392C150.567 47.392 149.687 47.744 149.079 48.448C148.487 49.152 148.191 50.176 148.191 51.52V52.24C148.191 53.536 148.527 54.504 149.199 55.144C149.887 55.768 150.919 56.08 152.295 56.08C152.967 56.08 153.679 56.016 154.431 55.888C155.199 55.744 155.879 55.56 156.471 55.336L156.807 57.424C156.199 57.68 155.503 57.88 154.719 58.024C153.951 58.168 153.175 58.24 152.391 58.24ZM161.212 63.04L163.372 57.88L158.38 45.544L161.164 45.52L164.644 55.168H164.692L168.316 45.52H171.1L163.948 63.04H161.212ZM179.793 58V40.48H184.977C188.081 40.48 190.361 41.192 191.817 42.616C193.289 44.04 194.025 46.248 194.025 49.24C194.025 52.232 193.289 54.44 191.817 55.864C190.361 57.288 188.081 58 184.977 58H179.793ZM185.193 55.12C186.489 55.12 187.529 54.928 188.313 54.544C189.097 54.144 189.673 53.512 190.041 52.648C190.409 51.784 190.593 50.648 190.593 49.24C190.593 47.816 190.409 46.68 190.041 45.832C189.673 44.968 189.097 44.344 188.313 43.96C187.529 43.56 186.489 43.36 185.193 43.36H183.153V55.12H185.193ZM196.809 58V40.48H208.713V43.336H200.169V47.512H208.233V50.272H200.169V55.144H208.713V58H196.809ZM216.435 58L210.483 40.48H214.179L218.619 54.64H218.667L223.107 40.48H226.803L220.827 58H216.435ZM240.953 58.24C239.449 58.24 238.361 57.936 237.689 57.328C237.033 56.72 236.705 55.72 236.705 54.328V48.088H233.993V45.52H236.705V41.44H240.017V45.52H244.073V48.088H240.017V53.512C240.017 54.264 240.137 54.792 240.377 55.096C240.617 55.384 241.049 55.528 241.673 55.528C242.009 55.528 242.361 55.496 242.729 55.432C243.113 55.368 243.465 55.28 243.785 55.168L244.049 57.784C243.505 57.944 242.985 58.056 242.489 58.12C241.993 58.2 241.481 58.24 240.953 58.24ZM252.754 58.24C250.514 58.24 248.786 57.68 247.57 56.56C246.37 55.44 245.77 53.84 245.77 51.76C245.77 49.744 246.322 48.16 247.426 47.008C248.53 45.856 250.05 45.28 251.986 45.28C253.858 45.28 255.298 45.824 256.306 46.912C257.33 48 257.842 49.544 257.842 51.544C257.842 51.768 257.834 52.024 257.818 52.312C257.818 52.6 257.81 52.816 257.794 52.96H247.618V50.68H255.226L254.77 51.376C254.77 50.128 254.538 49.2 254.074 48.592C253.626 47.984 252.93 47.68 251.986 47.68C250.994 47.68 250.25 48 249.754 48.64C249.258 49.264 249.01 50.2 249.01 51.448V52.408C249.01 53.528 249.306 54.352 249.898 54.88C250.49 55.408 251.394 55.672 252.61 55.672C253.298 55.672 254.026 55.608 254.794 55.48C255.562 55.352 256.242 55.176 256.834 54.952L257.218 57.472C256.626 57.712 255.93 57.896 255.13 58.024C254.346 58.168 253.554 58.24 252.754 58.24ZM258.867 58L262.683 51.736L258.891 45.52H262.491L264.915 50.008H264.963L267.387 45.52H270.987L267.219 51.736L271.035 58H267.435L264.963 53.464H264.915L262.467 58H258.867ZM279.063 58.24C277.559 58.24 276.471 57.936 275.799 57.328C275.143 56.72 274.815 55.72 274.815 54.328V48.088H272.103V45.52H274.815V41.44H278.127V45.52H282.183V48.088H278.127V53.512C278.127 54.264 278.247 54.792 278.487 55.096C278.727 55.384 279.159 55.528 279.783 55.528C280.119 55.528 280.471 55.496 280.839 55.432C281.223 55.368 281.575 55.28 281.895 55.168L282.159 57.784C281.615 57.944 281.095 58.056 280.599 58.12C280.103 58.2 279.591 58.24 279.063 58.24ZM291.562 58V40.48H294.874V46.984H294.922C295.434 46.408 296.01 45.984 296.65 45.712C297.306 45.424 298.066 45.28 298.93 45.28C300.466 45.28 301.586 45.688 302.29 46.504C302.994 47.304 303.338 48.576 303.322 50.32V58H300.034V50.968C300.05 49.928 299.874 49.176 299.506 48.712C299.154 48.232 298.594 47.992 297.826 47.992C297.25 47.992 296.738 48.112 296.29 48.352C295.858 48.576 295.514 48.888 295.258 49.288C295.002 49.688 294.874 50.144 294.874 50.656V58H291.562ZM312.496 58.24C310.256 58.24 308.528 57.68 307.312 56.56C306.112 55.44 305.512 53.84 305.512 51.76C305.512 49.744 306.064 48.16 307.168 47.008C308.272 45.856 309.792 45.28 311.728 45.28C313.6 45.28 315.04 45.824 316.048 46.912C317.072 48 317.584 49.544 317.584 51.544C317.584 51.768 317.576 52.024 317.56 52.312C317.56 52.6 317.552 52.816 317.536 52.96H307.36V50.68H314.968L314.512 51.376C314.512 50.128 314.28 49.2 313.816 48.592C313.368 47.984 312.672 47.68 311.728 47.68C310.736 47.68 309.992 48 309.496 48.64C309 49.264 308.752 50.2 308.752 51.448V52.408C308.752 53.528 309.048 54.352 309.64 54.88C310.232 55.408 311.136 55.672 312.352 55.672C313.04 55.672 313.768 55.608 314.536 55.48C315.304 55.352 315.984 55.176 316.576 54.952L316.96 57.472C316.368 57.712 315.672 57.896 314.872 58.024C314.088 58.168 313.296 58.24 312.496 58.24ZM320.062 58V45.52H323.23L323.254 47.848H323.326C323.742 47.288 324.23 46.824 324.79 46.456C325.366 46.072 325.99 45.784 326.662 45.592C327.35 45.384 328.054 45.28 328.774 45.28V48.088C327.782 48.088 326.878 48.272 326.062 48.64C325.246 49.008 324.598 49.512 324.118 50.152C323.638 50.776 323.398 51.472 323.398 52.24V58H320.062ZM336.332 58.24C334.092 58.24 332.364 57.68 331.148 56.56C329.948 55.44 329.348 53.84 329.348 51.76C329.348 49.744 329.9 48.16 331.004 47.008C332.108 45.856 333.628 45.28 335.564 45.28C337.436 45.28 338.876 45.824 339.884 46.912C340.908 48 341.42 49.544 341.42 51.544C341.42 51.768 341.412 52.024 341.396 52.312C341.396 52.6 341.388 52.816 341.372 52.96H331.196V50.68H338.804L338.348 51.376C338.348 50.128 338.116 49.2 337.652 48.592C337.204 47.984 336.508 47.68 335.564 47.68C334.572 47.68 333.828 48 333.332 48.64C332.836 49.264 332.588 50.2 332.588 51.448V52.408C332.588 53.528 332.884 54.352 333.476 54.88C334.068 55.408 334.972 55.672 336.188 55.672C336.876 55.672 337.604 55.608 338.372 55.48C339.14 55.352 339.82 55.176 340.412 54.952L340.796 57.472C340.204 57.712 339.508 57.896 338.708 58.024C337.924 58.168 337.132 58.24 336.332 58.24ZM343.649 58V54.328H347.321V58H343.649ZM351.243 58V54.328H354.915V58H351.243ZM358.837 58V54.328H362.509V58H358.837Z" fill="#343434"/>
</g>
<g filter="url(#filter2_d_365_693)">
<g filter="url(#filter3_b_365_693)">
<rect x="131" y="127" width="551" height="81" rx="20" fill="white"/>
<rect x="131" y="127" width="551" height="81" rx="20" stroke="#E8E8E8" stroke-width="2"/>
</g>
<path d="M235.104 178.712C233.792 178.712 232.576 178.488 231.456 178.04C230.352 177.608 229.392 176.984 228.576 176.168C227.776 175.368 227.152 174.424 226.704 173.336C226.256 172.248 226.032 171.056 226.032 169.76C226.032 168.464 226.256 167.272 226.704 166.184C227.152 165.08 227.776 164.128 228.576 163.328C229.392 162.528 230.352 161.912 231.456 161.48C232.576 161.032 233.792 160.808 235.104 160.808C236.432 160.808 237.64 161.032 238.728 161.48C239.832 161.912 240.792 162.528 241.608 163.328C242.424 164.128 243.048 165.072 243.48 166.16C243.928 167.248 244.152 168.448 244.152 169.76C244.152 171.44 243.792 172.928 243.072 174.224H237L236.976 173.048H236.928C236.576 173.496 236.152 173.84 235.656 174.08C235.16 174.32 234.608 174.44 234 174.44C232.832 174.44 231.912 174.024 231.24 173.192C230.568 172.36 230.232 171.216 230.232 169.76C230.232 168.304 230.568 167.16 231.24 166.328C231.912 165.496 232.832 165.08 234 165.08C234.608 165.08 235.16 165.2 235.656 165.44C236.152 165.664 236.576 166.008 236.928 166.472H236.976L237 165.032H239.496V172.304H242.64L241.272 173.168C241.544 172.704 241.752 172.184 241.896 171.608C242.04 171.016 242.112 170.4 242.112 169.76C242.112 168.368 241.816 167.152 241.224 166.112C240.632 165.056 239.808 164.232 238.752 163.64C237.712 163.032 236.496 162.728 235.104 162.728C233.728 162.728 232.504 163.032 231.432 163.64C230.376 164.232 229.552 165.056 228.96 166.112C228.368 167.168 228.072 168.384 228.072 169.76C228.072 171.136 228.368 172.352 228.96 173.408C229.552 174.464 230.376 175.296 231.432 175.904C232.504 176.496 233.728 176.792 235.104 176.792C235.968 176.792 236.776 176.664 237.528 176.408C238.296 176.152 238.976 175.792 239.568 175.328L240.768 176.864C240 177.456 239.136 177.912 238.176 178.232C237.216 178.552 236.192 178.712 235.104 178.712ZM234.864 172.4C235.504 172.4 236 172.184 236.352 171.752C236.72 171.304 236.904 170.704 236.904 169.952V169.568C236.904 168.816 236.72 168.224 236.352 167.792C236 167.344 235.504 167.12 234.864 167.12C234.224 167.12 233.72 167.352 233.352 167.816C233 168.264 232.824 168.912 232.824 169.76C232.824 170.608 233 171.264 233.352 171.728C233.72 172.176 234.224 172.4 234.864 172.4ZM258.02 176V158.48H260.66V176H258.02ZM247.22 176V158.48H249.86V176H247.22ZM248.54 168.032V165.632H259.34V168.032H248.54ZM270.391 176.24C268.231 176.24 266.567 175.68 265.399 174.56C264.231 173.44 263.647 171.84 263.647 169.76C263.647 167.744 264.183 166.16 265.255 165.008C266.343 163.856 267.831 163.28 269.719 163.28C271.543 163.28 272.943 163.824 273.919 164.912C274.911 166 275.407 167.544 275.407 169.544C275.407 169.752 275.399 169.984 275.383 170.24C275.383 170.496 275.375 170.696 275.359 170.84H265.087V168.8H273.391L272.983 169.424C272.983 168.064 272.711 167.056 272.167 166.4C271.623 165.728 270.807 165.392 269.719 165.392C268.567 165.392 267.687 165.744 267.079 166.448C266.487 167.152 266.191 168.176 266.191 169.52V170.24C266.191 171.536 266.527 172.504 267.199 173.144C267.887 173.768 268.919 174.08 270.295 174.08C270.967 174.08 271.679 174.016 272.431 173.888C273.199 173.744 273.879 173.56 274.471 173.336L274.807 175.424C274.199 175.68 273.503 175.88 272.719 176.024C271.951 176.168 271.175 176.24 270.391 176.24ZM279.212 181.04L281.372 175.88L276.38 163.544L279.164 163.52L282.644 173.168H282.692L286.316 163.52H289.1L281.948 181.04H279.212ZM297.793 176V158.48H302.977C306.081 158.48 308.361 159.192 309.817 160.616C311.289 162.04 312.025 164.248 312.025 167.24C312.025 170.232 311.289 172.44 309.817 173.864C308.361 175.288 306.081 176 302.977 176H297.793ZM303.193 173.12C304.489 173.12 305.529 172.928 306.313 172.544C307.097 172.144 307.673 171.512 308.041 170.648C308.409 169.784 308.593 168.648 308.593 167.24C308.593 165.816 308.409 164.68 308.041 163.832C307.673 162.968 307.097 162.344 306.313 161.96C305.529 161.56 304.489 161.36 303.193 161.36H301.153V173.12H303.193ZM314.809 176V158.48H326.713V161.336H318.169V165.512H326.233V168.272H318.169V173.144H326.713V176H314.809ZM334.435 176L328.483 158.48H332.179L336.619 172.64H336.667L341.107 158.48H344.803L338.827 176H334.435ZM358.953 176.24C357.449 176.24 356.361 175.936 355.689 175.328C355.033 174.72 354.705 173.72 354.705 172.328V166.088H351.993V163.52H354.705V159.44H358.017V163.52H362.073V166.088H358.017V171.512C358.017 172.264 358.137 172.792 358.377 173.096C358.617 173.384 359.049 173.528 359.673 173.528C360.009 173.528 360.361 173.496 360.729 173.432C361.113 173.368 361.465 173.28 361.785 173.168L362.049 175.784C361.505 175.944 360.985 176.056 360.489 176.12C359.993 176.2 359.481 176.24 358.953 176.24ZM370.754 176.24C368.514 176.24 366.786 175.68 365.57 174.56C364.37 173.44 363.77 171.84 363.77 169.76C363.77 167.744 364.322 166.16 365.426 165.008C366.53 163.856 368.05 163.28 369.986 163.28C371.858 163.28 373.298 163.824 374.306 164.912C375.33 166 375.842 167.544 375.842 169.544C375.842 169.768 375.834 170.024 375.818 170.312C375.818 170.6 375.81 170.816 375.794 170.96H365.618V168.68H373.226L372.77 169.376C372.77 168.128 372.538 167.2 372.074 166.592C371.626 165.984 370.93 165.68 369.986 165.68C368.994 165.68 368.25 166 367.754 166.64C367.258 167.264 367.01 168.2 367.01 169.448V170.408C367.01 171.528 367.306 172.352 367.898 172.88C368.49 173.408 369.394 173.672 370.61 173.672C371.298 173.672 372.026 173.608 372.794 173.48C373.562 173.352 374.242 173.176 374.834 172.952L375.218 175.472C374.626 175.712 373.93 175.896 373.13 176.024C372.346 176.168 371.554 176.24 370.754 176.24ZM376.867 176L380.683 169.736L376.891 163.52H380.491L382.915 168.008H382.963L385.387 163.52H388.987L385.219 169.736L389.035 176H385.435L382.963 171.464H382.915L380.467 176H376.867ZM397.063 176.24C395.559 176.24 394.471 175.936 393.799 175.328C393.143 174.72 392.815 173.72 392.815 172.328V166.088H390.103V163.52H392.815V159.44H396.127V163.52H400.183V166.088H396.127V171.512C396.127 172.264 396.247 172.792 396.487 173.096C396.727 173.384 397.159 173.528 397.783 173.528C398.119 173.528 398.471 173.496 398.839 173.432C399.223 173.368 399.575 173.28 399.895 173.168L400.159 175.784C399.615 175.944 399.095 176.056 398.599 176.12C398.103 176.2 397.591 176.24 397.063 176.24ZM409.562 176V158.48H412.874V164.984H412.922C413.434 164.408 414.01 163.984 414.65 163.712C415.306 163.424 416.066 163.28 416.93 163.28C418.466 163.28 419.586 163.688 420.29 164.504C420.994 165.304 421.338 166.576 421.322 168.32V176H418.034V168.968C418.05 167.928 417.874 167.176 417.506 166.712C417.154 166.232 416.594 165.992 415.826 165.992C415.25 165.992 414.738 166.112 414.29 166.352C413.858 166.576 413.514 166.888 413.258 167.288C413.002 167.688 412.874 168.144 412.874 168.656V176H409.562ZM430.496 176.24C428.256 176.24 426.528 175.68 425.312 174.56C424.112 173.44 423.512 171.84 423.512 169.76C423.512 167.744 424.064 166.16 425.168 165.008C426.272 163.856 427.792 163.28 429.728 163.28C431.6 163.28 433.04 163.824 434.048 164.912C435.072 166 435.584 167.544 435.584 169.544C435.584 169.768 435.576 170.024 435.56 170.312C435.56 170.6 435.552 170.816 435.536 170.96H425.36V168.68H432.968L432.512 169.376C432.512 168.128 432.28 167.2 431.816 166.592C431.368 165.984 430.672 165.68 429.728 165.68C428.736 165.68 427.992 166 427.496 166.64C427 167.264 426.752 168.2 426.752 169.448V170.408C426.752 171.528 427.048 172.352 427.64 172.88C428.232 173.408 429.136 173.672 430.352 173.672C431.04 173.672 431.768 173.608 432.536 173.48C433.304 173.352 433.984 173.176 434.576 172.952L434.96 175.472C434.368 175.712 433.672 175.896 432.872 176.024C432.088 176.168 431.296 176.24 430.496 176.24ZM438.062 176V163.52H441.23L441.254 165.848H441.326C441.742 165.288 442.23 164.824 442.79 164.456C443.366 164.072 443.99 163.784 444.662 163.592C445.35 163.384 446.054 163.28 446.774 163.28V166.088C445.782 166.088 444.878 166.272 444.062 166.64C443.246 167.008 442.598 167.512 442.118 168.152C441.638 168.776 441.398 169.472 441.398 170.24V176H438.062ZM454.332 176.24C452.092 176.24 450.364 175.68 449.148 174.56C447.948 173.44 447.348 171.84 447.348 169.76C447.348 167.744 447.9 166.16 449.004 165.008C450.108 163.856 451.628 163.28 453.564 163.28C455.436 163.28 456.876 163.824 457.884 164.912C458.908 166 459.42 167.544 459.42 169.544C459.42 169.768 459.412 170.024 459.396 170.312C459.396 170.6 459.388 170.816 459.372 170.96H449.196V168.68H456.804L456.348 169.376C456.348 168.128 456.116 167.2 455.652 166.592C455.204 165.984 454.508 165.68 453.564 165.68C452.572 165.68 451.828 166 451.332 166.64C450.836 167.264 450.588 168.2 450.588 169.448V170.408C450.588 171.528 450.884 172.352 451.476 172.88C452.068 173.408 452.972 173.672 454.188 173.672C454.876 173.672 455.604 173.608 456.372 173.48C457.14 173.352 457.82 173.176 458.412 172.952L458.796 175.472C458.204 175.712 457.508 175.896 456.708 176.024C455.924 176.168 455.132 176.24 454.332 176.24ZM461.649 176V172.328H465.321V176H461.649ZM469.243 176V172.328H472.915V176H469.243ZM476.837 176V172.328H480.509V176H476.837Z" fill="#343434"/>
<path d="M192.545 146L190.197 151.125L185.091 153.455L190.197 155.803L192.545 160.909L194.875 155.803L200 153.455L194.875 151.125M173.909 151.591L169.25 161.841L159 166.5L169.25 171.159L173.909 181.409L178.568 171.159L188.818 166.5L178.568 161.841M192.545 172.091L190.197 177.197L185.091 179.545L190.197 181.875L192.545 187L194.875 181.875L200 179.545L194.875 177.197" fill="#09C2B4"/>
</g>
<defs>
<filter id="filter0_d_365_693" x="0" y="0" width="577" height="128" filterUnits="userSpaceOnUse" color-interpolation-filters="sRGB">
<feFlood flood-opacity="0" result="BackgroundImageFix"/>
<feColorMatrix in="SourceAlpha" type="matrix" values="0 0 0 0 0 0 0 0 0 0 0 0 0 0 0 0 0 0 127 0" result="hardAlpha"/>
<feOffset dy="4"/>
<feGaussianBlur stdDeviation="6"/>
<feColorMatrix type="matrix" values="0 0 0 0 0 0 0 0 0 0 0 0 0 0 0 0 0 0 0.05 0"/>
<feBlend mode="normal" in2="BackgroundImageFix" result="effect1_dropShadow_365_693"/>
<feBlend mode="normal" in="SourceGraphic" in2="effect1_dropShadow_365_693" result="shape"/>
</filter>
<filter id="filter1_b_365_693" x="-63" y="-67" width="703" height="233" filterUnits="userSpaceOnUse" color-interpolation-filters="sRGB">
<feFlood flood-opacity="0" result="BackgroundImageFix"/>
<feGaussianBlur in="BackgroundImageFix" stdDeviation="37.5"/>
<feComposite in2="SourceAlpha" operator="in" result="effect1_backgroundBlur_365_693"/>
<feBlend mode="normal" in="SourceGraphic" in2="effect1_backgroundBlur_365_693" result="shape"/>
</filter>
<filter id="filter2_d_365_693" x="118" y="118" width="577" height="128" filterUnits="userSpaceOnUse" color-interpolation-filters="sRGB">
<feFlood flood-opacity="0" result="BackgroundImageFix"/>
<feColorMatrix in="SourceAlpha" type="matrix" values="0 0 0 0 0 0 0 0 0 0 0 0 0 0 0 0 0 0 127 0" result="hardAlpha"/>
<feOffset dy="4"/>
<feGaussianBlur stdDeviation="6"/>
<feColorMatrix type="matrix" values="0 0 0 0 0 0 0 0 0 0 0 0 0 0 0 0 0 0 0.05 0"/>
<feBlend mode="normal" in2="BackgroundImageFix" result="effect1_dropShadow_365_693"/>
<feBlend mode="normal" in="SourceGraphic" in2="effect1_dropShadow_365_693" result="shape"/>
</filter>
<filter id="filter3_b_365_693" x="55" y="51" width="703" height="233" filterUnits="userSpaceOnUse" color-interpolation-filters="sRGB">
<feFlood flood-opacity="0" result="BackgroundImageFix"/>
<feGaussianBlur in="BackgroundImageFix" stdDeviation="37.5"/>
<feComposite in2="SourceAlpha" operator="in" result="effect1_backgroundBlur_365_693"/>
<feBlend mode="normal" in="SourceGraphic" in2="effect1_backgroundBlur_365_693" result="shape"/>
</filter>
</defs>
</svg>
