<svg width="656" height="575" viewBox="0 0 656 575" fill="none" xmlns="http://www.w3.org/2000/svg">
<g filter="url(#filter0_d_365_4953)">
<g filter="url(#filter1_b_365_4953)">
<rect x="13" y="9" width="542" height="80" rx="20" fill="white"/>
<rect x="13" y="9" width="542" height="80" rx="20" stroke="#E8E8E8" stroke-opacity="0.1" stroke-width="2"/>
</g>
<path fill-rule="evenodd" clip-rule="evenodd" d="M46.4407 22C47.5452 22 48.4407 22.8954 48.4407 24V27.6312C52.0111 25.7195 56.0911 24.6355 60.4242 24.6355C74.4657 24.6355 85.8485 36.0183 85.8485 50.0597C85.8485 64.1011 74.4657 75.4839 60.4242 75.4839C46.3828 75.4839 35 64.1011 35 50.0597C35 42.8532 37.9983 36.347 42.8155 31.7205H40.0842C38.9797 31.7205 38.0842 30.8251 38.0842 29.7205C38.0842 28.6159 38.9797 27.7205 40.0842 27.7205H44.4407V24C44.4407 22.8954 45.3361 22 46.4407 22Z" fill="#10124C"/>
<rect x="44.5664" y="34.1697" width="39.5868" height="17.3192" rx="8.65962" transform="rotate(15 44.5664 34.1697)" fill="#1EBAAF"/>
<path fill-rule="evenodd" clip-rule="evenodd" d="M68.6163 48.8133C68.3797 48.9515 68.2069 49.1784 68.1356 49.4442C68.0644 49.71 68.1007 49.9929 68.2364 50.2309L70.9707 55.0187C71.1068 55.2567 71.3314 55.4301 71.5951 55.5007C71.8587 55.5713 72.1399 55.5333 72.3767 55.3951C72.6135 55.2568 72.7866 55.0297 72.8578 54.7636C72.929 54.4976 72.8926 54.2144 72.7565 53.9763L70.5343 50.0869L74.4035 47.8297C74.6353 47.6891 74.8035 47.4627 74.8718 47.1991C74.9402 46.9355 74.9032 46.6559 74.7688 46.4205C74.6344 46.1851 74.4135 46.0127 74.1535 45.9404C73.8935 45.8682 73.6153 45.9019 73.3788 46.0343L68.6158 48.8124L68.6163 48.8133Z" fill="#343434"/>
<path fill-rule="evenodd" clip-rule="evenodd" d="M55.385 45.0428C55.5345 45.3048 55.5745 45.6165 55.496 45.9092C55.4176 46.2019 55.2272 46.4519 54.9667 46.604L49.7224 49.6648C49.4615 49.8169 49.1518 49.8586 48.8615 49.7807C48.5711 49.7029 48.3239 49.5118 48.1742 49.2495C48.0244 48.9873 47.9844 48.6754 48.063 48.3824C48.1416 48.0894 48.3323 47.8394 48.5932 47.6873L52.8543 45.2014L50.407 40.9179C50.2633 40.6562 50.2276 40.3476 50.3075 40.0586C50.3875 39.7696 50.5768 39.5233 50.8346 39.3727C51.0923 39.2222 51.398 39.1794 51.6858 39.2537C51.9735 39.328 52.2203 39.5133 52.373 39.7698L55.386 45.0422L55.385 45.0428Z" fill="#343434"/>
<path d="M117.104 60.712C115.792 60.712 114.576 60.488 113.456 60.04C112.352 59.608 111.392 58.984 110.576 58.168C109.776 57.368 109.152 56.424 108.704 55.336C108.256 54.248 108.032 53.056 108.032 51.76C108.032 50.464 108.256 49.272 108.704 48.184C109.152 47.08 109.776 46.128 110.576 45.328C111.392 44.528 112.352 43.912 113.456 43.48C114.576 43.032 115.792 42.808 117.104 42.808C118.432 42.808 119.64 43.032 120.728 43.48C121.832 43.912 122.792 44.528 123.608 45.328C124.424 46.128 125.048 47.072 125.48 48.16C125.928 49.248 126.152 50.448 126.152 51.76C126.152 53.44 125.792 54.928 125.072 56.224H119L118.976 55.048H118.928C118.576 55.496 118.152 55.84 117.656 56.08C117.16 56.32 116.608 56.44 116 56.44C114.832 56.44 113.912 56.024 113.24 55.192C112.568 54.36 112.232 53.216 112.232 51.76C112.232 50.304 112.568 49.16 113.24 48.328C113.912 47.496 114.832 47.08 116 47.08C116.608 47.08 117.16 47.2 117.656 47.44C118.152 47.664 118.576 48.008 118.928 48.472H118.976L119 47.032H121.496V54.304H124.64L123.272 55.168C123.544 54.704 123.752 54.184 123.896 53.608C124.04 53.016 124.112 52.4 124.112 51.76C124.112 50.368 123.816 49.152 123.224 48.112C122.632 47.056 121.808 46.232 120.752 45.64C119.712 45.032 118.496 44.728 117.104 44.728C115.728 44.728 114.504 45.032 113.432 45.64C112.376 46.232 111.552 47.056 110.96 48.112C110.368 49.168 110.072 50.384 110.072 51.76C110.072 53.136 110.368 54.352 110.96 55.408C111.552 56.464 112.376 57.296 113.432 57.904C114.504 58.496 115.728 58.792 117.104 58.792C117.968 58.792 118.776 58.664 119.528 58.408C120.296 58.152 120.976 57.792 121.568 57.328L122.768 58.864C122 59.456 121.136 59.912 120.176 60.232C119.216 60.552 118.192 60.712 117.104 60.712ZM116.864 54.4C117.504 54.4 118 54.184 118.352 53.752C118.72 53.304 118.904 52.704 118.904 51.952V51.568C118.904 50.816 118.72 50.224 118.352 49.792C118 49.344 117.504 49.12 116.864 49.12C116.224 49.12 115.72 49.352 115.352 49.816C115 50.264 114.824 50.912 114.824 51.76C114.824 52.608 115 53.264 115.352 53.728C115.72 54.176 116.224 54.4 116.864 54.4ZM140.02 58V40.48H142.66V58H140.02ZM129.22 58V40.48H131.86V58H129.22ZM130.54 50.032V47.632H141.34V50.032H130.54ZM152.391 58.24C150.231 58.24 148.567 57.68 147.399 56.56C146.231 55.44 145.647 53.84 145.647 51.76C145.647 49.744 146.183 48.16 147.255 47.008C148.343 45.856 149.831 45.28 151.719 45.28C153.543 45.28 154.943 45.824 155.919 46.912C156.911 48 157.407 49.544 157.407 51.544C157.407 51.752 157.399 51.984 157.383 52.24C157.383 52.496 157.375 52.696 157.359 52.84H147.087V50.8H155.391L154.983 51.424C154.983 50.064 154.711 49.056 154.167 48.4C153.623 47.728 152.807 47.392 151.719 47.392C150.567 47.392 149.687 47.744 149.079 48.448C148.487 49.152 148.191 50.176 148.191 51.52V52.24C148.191 53.536 148.527 54.504 149.199 55.144C149.887 55.768 150.919 56.08 152.295 56.08C152.967 56.08 153.679 56.016 154.431 55.888C155.199 55.744 155.879 55.56 156.471 55.336L156.807 57.424C156.199 57.68 155.503 57.88 154.719 58.024C153.951 58.168 153.175 58.24 152.391 58.24ZM161.212 63.04L163.372 57.88L158.38 45.544L161.164 45.52L164.644 55.168H164.692L168.316 45.52H171.1L163.948 63.04H161.212ZM179.793 58V40.48H184.977C188.081 40.48 190.361 41.192 191.817 42.616C193.289 44.04 194.025 46.248 194.025 49.24C194.025 52.232 193.289 54.44 191.817 55.864C190.361 57.288 188.081 58 184.977 58H179.793ZM185.193 55.12C186.489 55.12 187.529 54.928 188.313 54.544C189.097 54.144 189.673 53.512 190.041 52.648C190.409 51.784 190.593 50.648 190.593 49.24C190.593 47.816 190.409 46.68 190.041 45.832C189.673 44.968 189.097 44.344 188.313 43.96C187.529 43.56 186.489 43.36 185.193 43.36H183.153V55.12H185.193ZM196.809 58V40.48H208.713V43.336H200.169V47.512H208.233V50.272H200.169V55.144H208.713V58H196.809ZM216.435 58L210.483 40.48H214.179L218.619 54.64H218.667L223.107 40.48H226.803L220.827 58H216.435ZM240.953 58.24C239.449 58.24 238.361 57.936 237.689 57.328C237.033 56.72 236.705 55.72 236.705 54.328V48.088H233.993V45.52H236.705V41.44H240.017V45.52H244.073V48.088H240.017V53.512C240.017 54.264 240.137 54.792 240.377 55.096C240.617 55.384 241.049 55.528 241.673 55.528C242.009 55.528 242.361 55.496 242.729 55.432C243.113 55.368 243.465 55.28 243.785 55.168L244.049 57.784C243.505 57.944 242.985 58.056 242.489 58.12C241.993 58.2 241.481 58.24 240.953 58.24ZM252.754 58.24C250.514 58.24 248.786 57.68 247.57 56.56C246.37 55.44 245.77 53.84 245.77 51.76C245.77 49.744 246.322 48.16 247.426 47.008C248.53 45.856 250.05 45.28 251.986 45.28C253.858 45.28 255.298 45.824 256.306 46.912C257.33 48 257.842 49.544 257.842 51.544C257.842 51.768 257.834 52.024 257.818 52.312C257.818 52.6 257.81 52.816 257.794 52.96H247.618V50.68H255.226L254.77 51.376C254.77 50.128 254.538 49.2 254.074 48.592C253.626 47.984 252.93 47.68 251.986 47.68C250.994 47.68 250.25 48 249.754 48.64C249.258 49.264 249.01 50.2 249.01 51.448V52.408C249.01 53.528 249.306 54.352 249.898 54.88C250.49 55.408 251.394 55.672 252.61 55.672C253.298 55.672 254.026 55.608 254.794 55.48C255.562 55.352 256.242 55.176 256.834 54.952L257.218 57.472C256.626 57.712 255.93 57.896 255.13 58.024C254.346 58.168 253.554 58.24 252.754 58.24ZM258.867 58L262.683 51.736L258.891 45.52H262.491L264.915 50.008H264.963L267.387 45.52H270.987L267.219 51.736L271.035 58H267.435L264.963 53.464H264.915L262.467 58H258.867ZM279.063 58.24C277.559 58.24 276.471 57.936 275.799 57.328C275.143 56.72 274.815 55.72 274.815 54.328V48.088H272.103V45.52H274.815V41.44H278.127V45.52H282.183V48.088H278.127V53.512C278.127 54.264 278.247 54.792 278.487 55.096C278.727 55.384 279.159 55.528 279.783 55.528C280.119 55.528 280.471 55.496 280.839 55.432C281.223 55.368 281.575 55.28 281.895 55.168L282.159 57.784C281.615 57.944 281.095 58.056 280.599 58.12C280.103 58.2 279.591 58.24 279.063 58.24ZM291.562 58V40.48H294.874V46.984H294.922C295.434 46.408 296.01 45.984 296.65 45.712C297.306 45.424 298.066 45.28 298.93 45.28C300.466 45.28 301.586 45.688 302.29 46.504C302.994 47.304 303.338 48.576 303.322 50.32V58H300.034V50.968C300.05 49.928 299.874 49.176 299.506 48.712C299.154 48.232 298.594 47.992 297.826 47.992C297.25 47.992 296.738 48.112 296.29 48.352C295.858 48.576 295.514 48.888 295.258 49.288C295.002 49.688 294.874 50.144 294.874 50.656V58H291.562ZM312.496 58.24C310.256 58.24 308.528 57.68 307.312 56.56C306.112 55.44 305.512 53.84 305.512 51.76C305.512 49.744 306.064 48.16 307.168 47.008C308.272 45.856 309.792 45.28 311.728 45.28C313.6 45.28 315.04 45.824 316.048 46.912C317.072 48 317.584 49.544 317.584 51.544C317.584 51.768 317.576 52.024 317.56 52.312C317.56 52.6 317.552 52.816 317.536 52.96H307.36V50.68H314.968L314.512 51.376C314.512 50.128 314.28 49.2 313.816 48.592C313.368 47.984 312.672 47.68 311.728 47.68C310.736 47.68 309.992 48 309.496 48.64C309 49.264 308.752 50.2 308.752 51.448V52.408C308.752 53.528 309.048 54.352 309.64 54.88C310.232 55.408 311.136 55.672 312.352 55.672C313.04 55.672 313.768 55.608 314.536 55.48C315.304 55.352 315.984 55.176 316.576 54.952L316.96 57.472C316.368 57.712 315.672 57.896 314.872 58.024C314.088 58.168 313.296 58.24 312.496 58.24ZM320.062 58V45.52H323.23L323.254 47.848H323.326C323.742 47.288 324.23 46.824 324.79 46.456C325.366 46.072 325.99 45.784 326.662 45.592C327.35 45.384 328.054 45.28 328.774 45.28V48.088C327.782 48.088 326.878 48.272 326.062 48.64C325.246 49.008 324.598 49.512 324.118 50.152C323.638 50.776 323.398 51.472 323.398 52.24V58H320.062ZM336.332 58.24C334.092 58.24 332.364 57.68 331.148 56.56C329.948 55.44 329.348 53.84 329.348 51.76C329.348 49.744 329.9 48.16 331.004 47.008C332.108 45.856 333.628 45.28 335.564 45.28C337.436 45.28 338.876 45.824 339.884 46.912C340.908 48 341.42 49.544 341.42 51.544C341.42 51.768 341.412 52.024 341.396 52.312C341.396 52.6 341.388 52.816 341.372 52.96H331.196V50.68H338.804L338.348 51.376C338.348 50.128 338.116 49.2 337.652 48.592C337.204 47.984 336.508 47.68 335.564 47.68C334.572 47.68 333.828 48 333.332 48.64C332.836 49.264 332.588 50.2 332.588 51.448V52.408C332.588 53.528 332.884 54.352 333.476 54.88C334.068 55.408 334.972 55.672 336.188 55.672C336.876 55.672 337.604 55.608 338.372 55.48C339.14 55.352 339.82 55.176 340.412 54.952L340.796 57.472C340.204 57.712 339.508 57.896 338.708 58.024C337.924 58.168 337.132 58.24 336.332 58.24ZM343.649 58V54.328H347.321V58H343.649ZM351.243 58V54.328H354.915V58H351.243ZM358.837 58V54.328H362.509V58H358.837Z" fill="#343434"/>
</g>
<g filter="url(#filter2_d_365_4953)">
<g filter="url(#filter3_b_365_4953)">
<rect x="92" y="122" width="551" height="81" rx="20" fill="white"/>
<rect x="92" y="122" width="551" height="81" rx="20" stroke="#E8E8E8" stroke-width="2"/>
</g>
<path d="M196.104 173.712C194.792 173.712 193.576 173.488 192.456 173.04C191.352 172.608 190.392 171.984 189.576 171.168C188.776 170.368 188.152 169.424 187.704 168.336C187.256 167.248 187.032 166.056 187.032 164.76C187.032 163.464 187.256 162.272 187.704 161.184C188.152 160.08 188.776 159.128 189.576 158.328C190.392 157.528 191.352 156.912 192.456 156.48C193.576 156.032 194.792 155.808 196.104 155.808C197.432 155.808 198.64 156.032 199.728 156.48C200.832 156.912 201.792 157.528 202.608 158.328C203.424 159.128 204.048 160.072 204.48 161.16C204.928 162.248 205.152 163.448 205.152 164.76C205.152 166.44 204.792 167.928 204.072 169.224H198L197.976 168.048H197.928C197.576 168.496 197.152 168.84 196.656 169.08C196.16 169.32 195.608 169.44 195 169.44C193.832 169.44 192.912 169.024 192.24 168.192C191.568 167.36 191.232 166.216 191.232 164.76C191.232 163.304 191.568 162.16 192.24 161.328C192.912 160.496 193.832 160.08 195 160.08C195.608 160.08 196.16 160.2 196.656 160.44C197.152 160.664 197.576 161.008 197.928 161.472H197.976L198 160.032H200.496V167.304H203.64L202.272 168.168C202.544 167.704 202.752 167.184 202.896 166.608C203.04 166.016 203.112 165.4 203.112 164.76C203.112 163.368 202.816 162.152 202.224 161.112C201.632 160.056 200.808 159.232 199.752 158.64C198.712 158.032 197.496 157.728 196.104 157.728C194.728 157.728 193.504 158.032 192.432 158.64C191.376 159.232 190.552 160.056 189.96 161.112C189.368 162.168 189.072 163.384 189.072 164.76C189.072 166.136 189.368 167.352 189.96 168.408C190.552 169.464 191.376 170.296 192.432 170.904C193.504 171.496 194.728 171.792 196.104 171.792C196.968 171.792 197.776 171.664 198.528 171.408C199.296 171.152 199.976 170.792 200.568 170.328L201.768 171.864C201 172.456 200.136 172.912 199.176 173.232C198.216 173.552 197.192 173.712 196.104 173.712ZM195.864 167.4C196.504 167.4 197 167.184 197.352 166.752C197.72 166.304 197.904 165.704 197.904 164.952V164.568C197.904 163.816 197.72 163.224 197.352 162.792C197 162.344 196.504 162.12 195.864 162.12C195.224 162.12 194.72 162.352 194.352 162.816C194 163.264 193.824 163.912 193.824 164.76C193.824 165.608 194 166.264 194.352 166.728C194.72 167.176 195.224 167.4 195.864 167.4ZM219.02 171V153.48H221.66V171H219.02ZM208.22 171V153.48H210.86V171H208.22ZM209.54 163.032V160.632H220.34V163.032H209.54ZM231.391 171.24C229.231 171.24 227.567 170.68 226.399 169.56C225.231 168.44 224.647 166.84 224.647 164.76C224.647 162.744 225.183 161.16 226.255 160.008C227.343 158.856 228.831 158.28 230.719 158.28C232.543 158.28 233.943 158.824 234.919 159.912C235.911 161 236.407 162.544 236.407 164.544C236.407 164.752 236.399 164.984 236.383 165.24C236.383 165.496 236.375 165.696 236.359 165.84H226.087V163.8H234.391L233.983 164.424C233.983 163.064 233.711 162.056 233.167 161.4C232.623 160.728 231.807 160.392 230.719 160.392C229.567 160.392 228.687 160.744 228.079 161.448C227.487 162.152 227.191 163.176 227.191 164.52V165.24C227.191 166.536 227.527 167.504 228.199 168.144C228.887 168.768 229.919 169.08 231.295 169.08C231.967 169.08 232.679 169.016 233.431 168.888C234.199 168.744 234.879 168.56 235.471 168.336L235.807 170.424C235.199 170.68 234.503 170.88 233.719 171.024C232.951 171.168 232.175 171.24 231.391 171.24ZM240.212 176.04L242.372 170.88L237.38 158.544L240.164 158.52L243.644 168.168H243.692L247.316 158.52H250.1L242.948 176.04H240.212ZM258.793 171V153.48H263.977C267.081 153.48 269.361 154.192 270.817 155.616C272.289 157.04 273.025 159.248 273.025 162.24C273.025 165.232 272.289 167.44 270.817 168.864C269.361 170.288 267.081 171 263.977 171H258.793ZM264.193 168.12C265.489 168.12 266.529 167.928 267.313 167.544C268.097 167.144 268.673 166.512 269.041 165.648C269.409 164.784 269.593 163.648 269.593 162.24C269.593 160.816 269.409 159.68 269.041 158.832C268.673 157.968 268.097 157.344 267.313 156.96C266.529 156.56 265.489 156.36 264.193 156.36H262.153V168.12H264.193ZM275.809 171V153.48H287.713V156.336H279.169V160.512H287.233V163.272H279.169V168.144H287.713V171H275.809ZM295.435 171L289.483 153.48H293.179L297.619 167.64H297.667L302.107 153.48H305.803L299.827 171H295.435ZM319.953 171.24C318.449 171.24 317.361 170.936 316.689 170.328C316.033 169.72 315.705 168.72 315.705 167.328V161.088H312.993V158.52H315.705V154.44H319.017V158.52H323.073V161.088H319.017V166.512C319.017 167.264 319.137 167.792 319.377 168.096C319.617 168.384 320.049 168.528 320.673 168.528C321.009 168.528 321.361 168.496 321.729 168.432C322.113 168.368 322.465 168.28 322.785 168.168L323.049 170.784C322.505 170.944 321.985 171.056 321.489 171.12C320.993 171.2 320.481 171.24 319.953 171.24ZM331.754 171.24C329.514 171.24 327.786 170.68 326.57 169.56C325.37 168.44 324.77 166.84 324.77 164.76C324.77 162.744 325.322 161.16 326.426 160.008C327.53 158.856 329.05 158.28 330.986 158.28C332.858 158.28 334.298 158.824 335.306 159.912C336.33 161 336.842 162.544 336.842 164.544C336.842 164.768 336.834 165.024 336.818 165.312C336.818 165.6 336.81 165.816 336.794 165.96H326.618V163.68H334.226L333.77 164.376C333.77 163.128 333.538 162.2 333.074 161.592C332.626 160.984 331.93 160.68 330.986 160.68C329.994 160.68 329.25 161 328.754 161.64C328.258 162.264 328.01 163.2 328.01 164.448V165.408C328.01 166.528 328.306 167.352 328.898 167.88C329.49 168.408 330.394 168.672 331.61 168.672C332.298 168.672 333.026 168.608 333.794 168.48C334.562 168.352 335.242 168.176 335.834 167.952L336.218 170.472C335.626 170.712 334.93 170.896 334.13 171.024C333.346 171.168 332.554 171.24 331.754 171.24ZM337.867 171L341.683 164.736L337.891 158.52H341.491L343.915 163.008H343.963L346.387 158.52H349.987L346.219 164.736L350.035 171H346.435L343.963 166.464H343.915L341.467 171H337.867ZM358.063 171.24C356.559 171.24 355.471 170.936 354.799 170.328C354.143 169.72 353.815 168.72 353.815 167.328V161.088H351.103V158.52H353.815V154.44H357.127V158.52H361.183V161.088H357.127V166.512C357.127 167.264 357.247 167.792 357.487 168.096C357.727 168.384 358.159 168.528 358.783 168.528C359.119 168.528 359.471 168.496 359.839 168.432C360.223 168.368 360.575 168.28 360.895 168.168L361.159 170.784C360.615 170.944 360.095 171.056 359.599 171.12C359.103 171.2 358.591 171.24 358.063 171.24ZM370.562 171V153.48H373.874V159.984H373.922C374.434 159.408 375.01 158.984 375.65 158.712C376.306 158.424 377.066 158.28 377.93 158.28C379.466 158.28 380.586 158.688 381.29 159.504C381.994 160.304 382.338 161.576 382.322 163.32V171H379.034V163.968C379.05 162.928 378.874 162.176 378.506 161.712C378.154 161.232 377.594 160.992 376.826 160.992C376.25 160.992 375.738 161.112 375.29 161.352C374.858 161.576 374.514 161.888 374.258 162.288C374.002 162.688 373.874 163.144 373.874 163.656V171H370.562ZM391.496 171.24C389.256 171.24 387.528 170.68 386.312 169.56C385.112 168.44 384.512 166.84 384.512 164.76C384.512 162.744 385.064 161.16 386.168 160.008C387.272 158.856 388.792 158.28 390.728 158.28C392.6 158.28 394.04 158.824 395.048 159.912C396.072 161 396.584 162.544 396.584 164.544C396.584 164.768 396.576 165.024 396.56 165.312C396.56 165.6 396.552 165.816 396.536 165.96H386.36V163.68H393.968L393.512 164.376C393.512 163.128 393.28 162.2 392.816 161.592C392.368 160.984 391.672 160.68 390.728 160.68C389.736 160.68 388.992 161 388.496 161.64C388 162.264 387.752 163.2 387.752 164.448V165.408C387.752 166.528 388.048 167.352 388.64 167.88C389.232 168.408 390.136 168.672 391.352 168.672C392.04 168.672 392.768 168.608 393.536 168.48C394.304 168.352 394.984 168.176 395.576 167.952L395.96 170.472C395.368 170.712 394.672 170.896 393.872 171.024C393.088 171.168 392.296 171.24 391.496 171.24ZM399.062 171V158.52H402.23L402.254 160.848H402.326C402.742 160.288 403.23 159.824 403.79 159.456C404.366 159.072 404.99 158.784 405.662 158.592C406.35 158.384 407.054 158.28 407.774 158.28V161.088C406.782 161.088 405.878 161.272 405.062 161.64C404.246 162.008 403.598 162.512 403.118 163.152C402.638 163.776 402.398 164.472 402.398 165.24V171H399.062ZM415.332 171.24C413.092 171.24 411.364 170.68 410.148 169.56C408.948 168.44 408.348 166.84 408.348 164.76C408.348 162.744 408.9 161.16 410.004 160.008C411.108 158.856 412.628 158.28 414.564 158.28C416.436 158.28 417.876 158.824 418.884 159.912C419.908 161 420.42 162.544 420.42 164.544C420.42 164.768 420.412 165.024 420.396 165.312C420.396 165.6 420.388 165.816 420.372 165.96H410.196V163.68H417.804L417.348 164.376C417.348 163.128 417.116 162.2 416.652 161.592C416.204 160.984 415.508 160.68 414.564 160.68C413.572 160.68 412.828 161 412.332 161.64C411.836 162.264 411.588 163.2 411.588 164.448V165.408C411.588 166.528 411.884 167.352 412.476 167.88C413.068 168.408 413.972 168.672 415.188 168.672C415.876 168.672 416.604 168.608 417.372 168.48C418.14 168.352 418.82 168.176 419.412 167.952L419.796 170.472C419.204 170.712 418.508 170.896 417.708 171.024C416.924 171.168 416.132 171.24 415.332 171.24ZM422.649 171V167.328H426.321V171H422.649ZM430.243 171V167.328H433.915V171H430.243ZM437.837 171V167.328H441.509V171H437.837Z" fill="#343434"/>
<path d="M153.545 141L151.197 146.125L146.091 148.455L151.197 150.803L153.545 155.909L155.875 150.803L161 148.455L155.875 146.125M134.909 146.591L130.25 156.841L120 161.5L130.25 166.159L134.909 176.409L139.568 166.159L149.818 161.5L139.568 156.841M153.545 167.091L151.197 172.197L146.091 174.545L151.197 176.875L153.545 182L155.875 176.875L161 174.545L155.875 172.197" fill="#09C2B4"/>
</g>
<g clip-path="url(#clip0_365_4953)" filter="url(#filter4_d_365_4953)">
<g filter="url(#filter5_b_365_4953)">
<rect x="44" y="240" width="547" height="319" rx="20" fill="white"/>
<rect x="44" y="240" width="547" height="319" rx="20" stroke="#E8E8E8" stroke-opacity="0.5" stroke-width="2"/>
</g>
<path d="M144.104 291.712C142.792 291.712 141.576 291.488 140.456 291.04C139.352 290.608 138.392 289.984 137.576 289.168C136.776 288.368 136.152 287.424 135.704 286.336C135.256 285.248 135.032 284.056 135.032 282.76C135.032 281.464 135.256 280.272 135.704 279.184C136.152 278.08 136.776 277.128 137.576 276.328C138.392 275.528 139.352 274.912 140.456 274.48C141.576 274.032 142.792 273.808 144.104 273.808C145.432 273.808 146.64 274.032 147.728 274.48C148.832 274.912 149.792 275.528 150.608 276.328C151.424 277.128 152.048 278.072 152.48 279.16C152.928 280.248 153.152 281.448 153.152 282.76C153.152 284.44 152.792 285.928 152.072 287.224H146L145.976 286.048H145.928C145.576 286.496 145.152 286.84 144.656 287.08C144.16 287.32 143.608 287.44 143 287.44C141.832 287.44 140.912 287.024 140.24 286.192C139.568 285.36 139.232 284.216 139.232 282.76C139.232 281.304 139.568 280.16 140.24 279.328C140.912 278.496 141.832 278.08 143 278.08C143.608 278.08 144.16 278.2 144.656 278.44C145.152 278.664 145.576 279.008 145.928 279.472H145.976L146 278.032H148.496V285.304H151.64L150.272 286.168C150.544 285.704 150.752 285.184 150.896 284.608C151.04 284.016 151.112 283.4 151.112 282.76C151.112 281.368 150.816 280.152 150.224 279.112C149.632 278.056 148.808 277.232 147.752 276.64C146.712 276.032 145.496 275.728 144.104 275.728C142.728 275.728 141.504 276.032 140.432 276.64C139.376 277.232 138.552 278.056 137.96 279.112C137.368 280.168 137.072 281.384 137.072 282.76C137.072 284.136 137.368 285.352 137.96 286.408C138.552 287.464 139.376 288.296 140.432 288.904C141.504 289.496 142.728 289.792 144.104 289.792C144.968 289.792 145.776 289.664 146.528 289.408C147.296 289.152 147.976 288.792 148.568 288.328L149.768 289.864C149 290.456 148.136 290.912 147.176 291.232C146.216 291.552 145.192 291.712 144.104 291.712ZM143.864 285.4C144.504 285.4 145 285.184 145.352 284.752C145.72 284.304 145.904 283.704 145.904 282.952V282.568C145.904 281.816 145.72 281.224 145.352 280.792C145 280.344 144.504 280.12 143.864 280.12C143.224 280.12 142.72 280.352 142.352 280.816C142 281.264 141.824 281.912 141.824 282.76C141.824 283.608 142 284.264 142.352 284.728C142.72 285.176 143.224 285.4 143.864 285.4ZM167.02 289V271.48H169.66V289H167.02ZM156.22 289V271.48H158.86V289H156.22ZM157.54 281.032V278.632H168.34V281.032H157.54ZM179.391 289.24C177.231 289.24 175.567 288.68 174.399 287.56C173.231 286.44 172.647 284.84 172.647 282.76C172.647 280.744 173.183 279.16 174.255 278.008C175.343 276.856 176.831 276.28 178.719 276.28C180.543 276.28 181.943 276.824 182.919 277.912C183.911 279 184.407 280.544 184.407 282.544C184.407 282.752 184.399 282.984 184.383 283.24C184.383 283.496 184.375 283.696 184.359 283.84H174.087V281.8H182.391L181.983 282.424C181.983 281.064 181.711 280.056 181.167 279.4C180.623 278.728 179.807 278.392 178.719 278.392C177.567 278.392 176.687 278.744 176.079 279.448C175.487 280.152 175.191 281.176 175.191 282.52V283.24C175.191 284.536 175.527 285.504 176.199 286.144C176.887 286.768 177.919 287.08 179.295 287.08C179.967 287.08 180.679 287.016 181.431 286.888C182.199 286.744 182.879 286.56 183.471 286.336L183.807 288.424C183.199 288.68 182.503 288.88 181.719 289.024C180.951 289.168 180.175 289.24 179.391 289.24ZM188.212 294.04L190.372 288.88L185.38 276.544L188.164 276.52L191.644 286.168H191.692L195.316 276.52H198.1L190.948 294.04H188.212ZM206.793 289V271.48H211.977C215.081 271.48 217.361 272.192 218.817 273.616C220.289 275.04 221.025 277.248 221.025 280.24C221.025 283.232 220.289 285.44 218.817 286.864C217.361 288.288 215.081 289 211.977 289H206.793ZM212.193 286.12C213.489 286.12 214.529 285.928 215.313 285.544C216.097 285.144 216.673 284.512 217.041 283.648C217.409 282.784 217.593 281.648 217.593 280.24C217.593 278.816 217.409 277.68 217.041 276.832C216.673 275.968 216.097 275.344 215.313 274.96C214.529 274.56 213.489 274.36 212.193 274.36H210.153V286.12H212.193ZM223.809 289V271.48H235.713V274.336H227.169V278.512H235.233V281.272H227.169V286.144H235.713V289H223.809ZM243.435 289L237.483 271.48H241.179L245.619 285.64H245.667L250.107 271.48H253.803L247.827 289H243.435ZM267.953 289.24C266.449 289.24 265.361 288.936 264.689 288.328C264.033 287.72 263.705 286.72 263.705 285.328V279.088H260.993V276.52H263.705V272.44H267.017V276.52H271.073V279.088H267.017V284.512C267.017 285.264 267.137 285.792 267.377 286.096C267.617 286.384 268.049 286.528 268.673 286.528C269.009 286.528 269.361 286.496 269.729 286.432C270.113 286.368 270.465 286.28 270.785 286.168L271.049 288.784C270.505 288.944 269.985 289.056 269.489 289.12C268.993 289.2 268.481 289.24 267.953 289.24ZM279.754 289.24C277.514 289.24 275.786 288.68 274.57 287.56C273.37 286.44 272.77 284.84 272.77 282.76C272.77 280.744 273.322 279.16 274.426 278.008C275.53 276.856 277.05 276.28 278.986 276.28C280.858 276.28 282.298 276.824 283.306 277.912C284.33 279 284.842 280.544 284.842 282.544C284.842 282.768 284.834 283.024 284.818 283.312C284.818 283.6 284.81 283.816 284.794 283.96H274.618V281.68H282.226L281.77 282.376C281.77 281.128 281.538 280.2 281.074 279.592C280.626 278.984 279.93 278.68 278.986 278.68C277.994 278.68 277.25 279 276.754 279.64C276.258 280.264 276.01 281.2 276.01 282.448V283.408C276.01 284.528 276.306 285.352 276.898 285.88C277.49 286.408 278.394 286.672 279.61 286.672C280.298 286.672 281.026 286.608 281.794 286.48C282.562 286.352 283.242 286.176 283.834 285.952L284.218 288.472C283.626 288.712 282.93 288.896 282.13 289.024C281.346 289.168 280.554 289.24 279.754 289.24ZM285.867 289L289.683 282.736L285.891 276.52H289.491L291.915 281.008H291.963L294.387 276.52H297.987L294.219 282.736L298.035 289H294.435L291.963 284.464H291.915L289.467 289H285.867ZM306.063 289.24C304.559 289.24 303.471 288.936 302.799 288.328C302.143 287.72 301.815 286.72 301.815 285.328V279.088H299.103V276.52H301.815V272.44H305.127V276.52H309.183V279.088H305.127V284.512C305.127 285.264 305.247 285.792 305.487 286.096C305.727 286.384 306.159 286.528 306.783 286.528C307.119 286.528 307.471 286.496 307.839 286.432C308.223 286.368 308.575 286.28 308.895 286.168L309.159 288.784C308.615 288.944 308.095 289.056 307.599 289.12C307.103 289.2 306.591 289.24 306.063 289.24ZM318.562 289V271.48H321.874V277.984H321.922C322.434 277.408 323.01 276.984 323.65 276.712C324.306 276.424 325.066 276.28 325.93 276.28C327.466 276.28 328.586 276.688 329.29 277.504C329.994 278.304 330.338 279.576 330.322 281.32V289H327.034V281.968C327.05 280.928 326.874 280.176 326.506 279.712C326.154 279.232 325.594 278.992 324.826 278.992C324.25 278.992 323.738 279.112 323.29 279.352C322.858 279.576 322.514 279.888 322.258 280.288C322.002 280.688 321.874 281.144 321.874 281.656V289H318.562ZM339.496 289.24C337.256 289.24 335.528 288.68 334.312 287.56C333.112 286.44 332.512 284.84 332.512 282.76C332.512 280.744 333.064 279.16 334.168 278.008C335.272 276.856 336.792 276.28 338.728 276.28C340.6 276.28 342.04 276.824 343.048 277.912C344.072 279 344.584 280.544 344.584 282.544C344.584 282.768 344.576 283.024 344.56 283.312C344.56 283.6 344.552 283.816 344.536 283.96H334.36V281.68H341.968L341.512 282.376C341.512 281.128 341.28 280.2 340.816 279.592C340.368 278.984 339.672 278.68 338.728 278.68C337.736 278.68 336.992 279 336.496 279.64C336 280.264 335.752 281.2 335.752 282.448V283.408C335.752 284.528 336.048 285.352 336.64 285.88C337.232 286.408 338.136 286.672 339.352 286.672C340.04 286.672 340.768 286.608 341.536 286.48C342.304 286.352 342.984 286.176 343.576 285.952L343.96 288.472C343.368 288.712 342.672 288.896 341.872 289.024C341.088 289.168 340.296 289.24 339.496 289.24ZM347.062 289V276.52H350.23L350.254 278.848H350.326C350.742 278.288 351.23 277.824 351.79 277.456C352.366 277.072 352.99 276.784 353.662 276.592C354.35 276.384 355.054 276.28 355.774 276.28V279.088C354.782 279.088 353.878 279.272 353.062 279.64C352.246 280.008 351.598 280.512 351.118 281.152C350.638 281.776 350.398 282.472 350.398 283.24V289H347.062ZM363.332 289.24C361.092 289.24 359.364 288.68 358.148 287.56C356.948 286.44 356.348 284.84 356.348 282.76C356.348 280.744 356.9 279.16 358.004 278.008C359.108 276.856 360.628 276.28 362.564 276.28C364.436 276.28 365.876 276.824 366.884 277.912C367.908 279 368.42 280.544 368.42 282.544C368.42 282.768 368.412 283.024 368.396 283.312C368.396 283.6 368.388 283.816 368.372 283.96H358.196V281.68H365.804L365.348 282.376C365.348 281.128 365.116 280.2 364.652 279.592C364.204 278.984 363.508 278.68 362.564 278.68C361.572 278.68 360.828 279 360.332 279.64C359.836 280.264 359.588 281.2 359.588 282.448V283.408C359.588 284.528 359.884 285.352 360.476 285.88C361.068 286.408 361.972 286.672 363.188 286.672C363.876 286.672 364.604 286.608 365.372 286.48C366.14 286.352 366.82 286.176 367.412 285.952L367.796 288.472C367.204 288.712 366.508 288.896 365.708 289.024C364.924 289.168 364.132 289.24 363.332 289.24ZM370.649 289V285.328H374.321V289H370.649ZM378.243 289V285.328H381.915V289H378.243ZM385.837 289V285.328H389.509V289H385.837Z" fill="#343434"/>
<path d="M99.9618 258.512L97.6731 263.512L92.696 265.785L97.6731 268.076L99.9618 273.058L102.232 268.076L107.228 265.785L102.232 263.512M81.7973 263.967L77.2561 273.967L67.2656 278.512L77.2561 283.058L81.7973 293.058L86.3384 283.058L96.3289 278.512L86.3384 273.967M99.9618 283.967L97.6731 288.949L92.696 291.239L97.6731 293.512L99.9618 298.512L102.232 293.512L107.228 291.239L102.232 288.949" fill="#09C2B4"/>
<circle cx="140" cy="332" r="5" fill="#EFEFEF"/>
<circle cx="140" cy="372" r="5" fill="#EFEFEF"/>
<circle cx="140" cy="412" r="5" fill="#EFEFEF"/>
<circle cx="140" cy="452" r="5" fill="#EFEFEF"/>
<rect x="157" y="327" width="164" height="10" rx="5" fill="#EFEFEF"/>
<rect x="157" y="367" width="164" height="10" rx="5" fill="#EFEFEF"/>
<rect x="157" y="407" width="164" height="10" rx="5" fill="#EFEFEF"/>
<rect x="157" y="447" width="164" height="10" rx="5" fill="#EFEFEF"/>
</g>
<defs>
<filter id="filter0_d_365_4953" x="0" y="0" width="577" height="128" filterUnits="userSpaceOnUse" color-interpolation-filters="sRGB">
<feFlood flood-opacity="0" result="BackgroundImageFix"/>
<feColorMatrix in="SourceAlpha" type="matrix" values="0 0 0 0 0 0 0 0 0 0 0 0 0 0 0 0 0 0 127 0" result="hardAlpha"/>
<feOffset dy="4"/>
<feGaussianBlur stdDeviation="6"/>
<feColorMatrix type="matrix" values="0 0 0 0 0 0 0 0 0 0 0 0 0 0 0 0 0 0 0.05 0"/>
<feBlend mode="normal" in2="BackgroundImageFix" result="effect1_dropShadow_365_4953"/>
<feBlend mode="normal" in="SourceGraphic" in2="effect1_dropShadow_365_4953" result="shape"/>
</filter>
<filter id="filter1_b_365_4953" x="-63" y="-67" width="694" height="232" filterUnits="userSpaceOnUse" color-interpolation-filters="sRGB">
<feFlood flood-opacity="0" result="BackgroundImageFix"/>
<feGaussianBlur in="BackgroundImageFix" stdDeviation="37.5"/>
<feComposite in2="SourceAlpha" operator="in" result="effect1_backgroundBlur_365_4953"/>
<feBlend mode="normal" in="SourceGraphic" in2="effect1_backgroundBlur_365_4953" result="shape"/>
</filter>
<filter id="filter2_d_365_4953" x="79" y="113" width="577" height="128" filterUnits="userSpaceOnUse" color-interpolation-filters="sRGB">
<feFlood flood-opacity="0" result="BackgroundImageFix"/>
<feColorMatrix in="SourceAlpha" type="matrix" values="0 0 0 0 0 0 0 0 0 0 0 0 0 0 0 0 0 0 127 0" result="hardAlpha"/>
<feOffset dy="4"/>
<feGaussianBlur stdDeviation="6"/>
<feColorMatrix type="matrix" values="0 0 0 0 0 0 0 0 0 0 0 0 0 0 0 0 0 0 0.05 0"/>
<feBlend mode="normal" in2="BackgroundImageFix" result="effect1_dropShadow_365_4953"/>
<feBlend mode="normal" in="SourceGraphic" in2="effect1_dropShadow_365_4953" result="shape"/>
</filter>
<filter id="filter3_b_365_4953" x="16" y="46" width="703" height="233" filterUnits="userSpaceOnUse" color-interpolation-filters="sRGB">
<feFlood flood-opacity="0" result="BackgroundImageFix"/>
<feGaussianBlur in="BackgroundImageFix" stdDeviation="37.5"/>
<feComposite in2="SourceAlpha" operator="in" result="effect1_backgroundBlur_365_4953"/>
<feBlend mode="normal" in="SourceGraphic" in2="effect1_backgroundBlur_365_4953" result="shape"/>
</filter>
<filter id="filter4_d_365_4953" x="27" y="231" width="563" height="344" filterUnits="userSpaceOnUse" color-interpolation-filters="sRGB">
<feFlood flood-opacity="0" result="BackgroundImageFix"/>
<feColorMatrix in="SourceAlpha" type="matrix" values="0 0 0 0 0 0 0 0 0 0 0 0 0 0 0 0 0 0 127 0" result="hardAlpha"/>
<feOffset dy="4"/>
<feGaussianBlur stdDeviation="6"/>
<feColorMatrix type="matrix" values="0 0 0 0 0 0 0 0 0 0 0 0 0 0 0 0 0 0 0.05 0"/>
<feBlend mode="normal" in2="BackgroundImageFix" result="effect1_dropShadow_365_4953"/>
<feBlend mode="normal" in="SourceGraphic" in2="effect1_dropShadow_365_4953" result="shape"/>
</filter>
<filter id="filter5_b_365_4953" x="-32" y="164" width="699" height="471" filterUnits="userSpaceOnUse" color-interpolation-filters="sRGB">
<feFlood flood-opacity="0" result="BackgroundImageFix"/>
<feGaussianBlur in="BackgroundImageFix" stdDeviation="37.5"/>
<feComposite in2="SourceAlpha" operator="in" result="effect1_backgroundBlur_365_4953"/>
<feBlend mode="normal" in="SourceGraphic" in2="effect1_backgroundBlur_365_4953" result="shape"/>
</filter>
<clipPath id="clip0_365_4953">
<rect width="539" height="320" fill="white" transform="translate(39 239)"/>
</clipPath>
</defs>
</svg>
