<svg width="472" height="787" viewBox="0 0 472 787" fill="none" xmlns="http://www.w3.org/2000/svg">
<rect opacity="0.5" x="1.5" y="1.5" width="564" height="784" rx="33.5" stroke="#019A94" stroke-width="3"/>
<path opacity="0.5" d="M47 82H467" stroke="#019A94" stroke-width="3"/>
<g opacity="0.5">
<path d="M59.312 53L65.696 35.48H69.272L75.632 53H72.728L67.496 37.736H67.448L62.216 53H59.312ZM62.624 48.608V46.208H72.344V48.608H62.624ZM82.2009 53.24C81.6409 53.24 81.0569 53.2 80.4489 53.12C79.8569 53.056 79.2889 52.96 78.7449 52.832C78.2009 52.688 77.7209 52.528 77.3049 52.352L77.6649 50.24C78.3689 50.496 79.0809 50.704 79.8009 50.864C80.5209 51.008 81.2329 51.08 81.9369 51.08C82.8649 51.08 83.5529 50.952 84.0009 50.696C84.4649 50.424 84.6969 50.024 84.6969 49.496C84.6969 49.192 84.6169 48.944 84.4569 48.752C84.2969 48.544 84.0169 48.36 83.6169 48.2C83.2169 48.024 82.6649 47.856 81.9609 47.696C81.0009 47.456 80.1609 47.176 79.4409 46.856C78.7369 46.536 78.1929 46.128 77.8089 45.632C77.4249 45.136 77.2329 44.512 77.2329 43.76C77.2329 42.624 77.6649 41.76 78.5289 41.168C79.4089 40.576 80.6729 40.28 82.3209 40.28C83.0889 40.28 83.8729 40.344 84.6729 40.472C85.4889 40.6 86.2329 40.784 86.9049 41.024L86.5209 43.136C85.8809 42.896 85.2329 42.72 84.5769 42.608C83.9369 42.496 83.2889 42.44 82.6329 42.44C81.6889 42.44 80.9849 42.56 80.5209 42.8C80.0729 43.024 79.8489 43.368 79.8489 43.832C79.8489 44.104 79.9209 44.336 80.0649 44.528C80.2249 44.72 80.4969 44.896 80.8809 45.056C81.2649 45.216 81.8009 45.376 82.4889 45.536C83.1929 45.696 83.8329 45.888 84.4089 46.112C85.0009 46.336 85.5129 46.608 85.9449 46.928C86.3769 47.232 86.7129 47.6 86.9529 48.032C87.1929 48.464 87.3129 48.976 87.3129 49.568C87.3129 50.336 87.1049 50.992 86.6889 51.536C86.2889 52.08 85.7049 52.504 84.9369 52.808C84.1849 53.096 83.2729 53.24 82.2009 53.24ZM90.098 53V35.48H92.714V45.656H92.762L98.258 40.52H101.594L94.994 46.52L101.858 53H98.522L92.762 47.36H92.714V53H90.098ZM119.025 55.736C117.697 55.736 116.473 55.512 115.353 55.064C114.249 54.616 113.289 53.984 112.473 53.168C111.657 52.368 111.017 51.424 110.553 50.336C110.105 49.248 109.881 48.056 109.881 46.76C109.881 45.464 110.105 44.272 110.553 43.184C111.017 42.08 111.657 41.128 112.473 40.328C113.289 39.528 114.249 38.904 115.353 38.456C116.473 38.008 117.697 37.784 119.025 37.784C120.353 37.784 121.569 38.008 122.673 38.456C123.793 38.904 124.761 39.528 125.577 40.328C126.393 41.128 127.025 42.08 127.473 43.184C127.921 44.272 128.145 45.464 128.145 46.76C128.145 48.456 127.769 49.96 127.017 51.272H120.753L120.729 50.072H120.681C120.329 50.536 119.913 50.888 119.433 51.128C118.953 51.368 118.417 51.488 117.825 51.488C116.705 51.488 115.801 51.072 115.113 50.24C114.441 49.408 114.105 48.248 114.105 46.76C114.105 45.288 114.441 44.136 115.113 43.304C115.801 42.456 116.705 42.032 117.825 42.032C118.417 42.032 118.953 42.152 119.433 42.392C119.913 42.616 120.329 42.968 120.681 43.448H120.729L120.753 42.08H123.537V49.208H126.489L125.145 49.976C125.385 49.528 125.569 49.032 125.697 48.488C125.825 47.928 125.889 47.352 125.889 46.76C125.889 45.4 125.601 44.208 125.025 43.184C124.449 42.144 123.641 41.336 122.601 40.76C121.577 40.168 120.385 39.872 119.025 39.872C117.681 39.872 116.489 40.168 115.449 40.76C114.409 41.336 113.593 42.144 113.001 43.184C112.425 44.224 112.137 45.416 112.137 46.76C112.137 48.104 112.425 49.296 113.001 50.336C113.593 51.376 114.409 52.192 115.449 52.784C116.489 53.36 117.681 53.648 119.025 53.648C119.889 53.648 120.697 53.52 121.449 53.264C122.201 53.008 122.865 52.648 123.441 52.184L124.785 53.84C124.001 54.448 123.121 54.912 122.145 55.232C121.185 55.568 120.145 55.736 119.025 55.736ZM118.833 49.208C119.393 49.208 119.833 49.008 120.153 48.608C120.489 48.192 120.657 47.624 120.657 46.904V46.616C120.657 45.896 120.489 45.336 120.153 44.936C119.833 44.52 119.393 44.312 118.833 44.312C118.257 44.312 117.801 44.528 117.465 44.96C117.145 45.376 116.985 45.976 116.985 46.76C116.985 47.544 117.145 48.152 117.465 48.584C117.801 49 118.257 49.208 118.833 49.208ZM142.423 53V35.48H144.343V53H142.423ZM131.287 53V35.48H133.207V53H131.287ZM132.247 44.648V42.896H143.383V44.648H132.247ZM154.122 53.24C152.042 53.24 150.434 52.68 149.298 51.56C148.178 50.44 147.618 48.84 147.618 46.76C147.618 44.744 148.138 43.16 149.178 42.008C150.234 40.856 151.69 40.28 153.546 40.28C155.322 40.28 156.682 40.824 157.626 41.912C158.57 42.984 159.042 44.528 159.042 46.544C159.042 46.704 159.042 46.872 159.042 47.048C159.042 47.224 159.034 47.376 159.018 47.504H148.65V45.968H157.626L157.266 46.472C157.266 44.92 156.954 43.76 156.33 42.992C155.706 42.224 154.778 41.84 153.546 41.84C152.234 41.84 151.226 42.256 150.522 43.088C149.818 43.904 149.466 45.072 149.466 46.592V47.072C149.466 48.592 149.85 49.736 150.618 50.504C151.402 51.256 152.546 51.632 154.05 51.632C154.738 51.632 155.45 51.56 156.186 51.416C156.938 51.272 157.61 51.08 158.202 50.84L158.49 52.376C157.882 52.648 157.194 52.856 156.426 53C155.658 53.16 154.89 53.24 154.122 53.24ZM163.042 58.04L165.298 52.856L160.234 40.544L162.25 40.52L166.21 50.84H166.258L170.434 40.52H172.474L165.034 58.04H163.042ZM174.543 53V35.48H179.727C182.831 35.48 185.111 36.192 186.567 37.616C188.039 39.04 188.775 41.248 188.775 44.24C188.775 47.232 188.039 49.44 186.567 50.864C185.111 52.288 182.831 53 179.727 53H174.543ZM179.943 50.12C181.239 50.12 182.279 49.928 183.063 49.544C183.847 49.144 184.423 48.512 184.791 47.648C185.159 46.784 185.343 45.648 185.343 44.24C185.343 42.816 185.159 41.68 184.791 40.832C184.423 39.968 183.847 39.344 183.063 38.96C182.279 38.56 181.239 38.36 179.943 38.36H177.903V50.12H179.943ZM197.535 53.24C195.295 53.24 193.567 52.68 192.351 51.56C191.151 50.44 190.551 48.84 190.551 46.76C190.551 44.744 191.103 43.16 192.207 42.008C193.311 40.856 194.831 40.28 196.767 40.28C198.639 40.28 200.079 40.824 201.087 41.912C202.111 43 202.623 44.544 202.623 46.544C202.623 46.768 202.615 47.024 202.599 47.312C202.599 47.6 202.591 47.816 202.575 47.96H192.399V45.68H200.007L199.551 46.376C199.551 45.128 199.319 44.2 198.855 43.592C198.407 42.984 197.711 42.68 196.767 42.68C195.775 42.68 195.031 43 194.535 43.64C194.039 44.264 193.791 45.2 193.791 46.448V47.408C193.791 48.528 194.087 49.352 194.679 49.88C195.271 50.408 196.175 50.672 197.391 50.672C198.079 50.672 198.807 50.608 199.575 50.48C200.343 50.352 201.023 50.176 201.615 49.952L201.999 52.472C201.407 52.712 200.711 52.896 199.911 53.024C199.127 53.168 198.335 53.24 197.535 53.24ZM207.624 53L203.496 40.52H207L209.928 50.792H209.976L212.88 40.52H216.384L212.256 53H207.624Z" fill="#019A94"/>
</g>
</svg>
