<svg width="568" height="112" viewBox="0 0 568 112" fill="none" xmlns="http://www.w3.org/2000/svg">
<g filter="url(#filter0_d_365_4954)">
<g filter="url(#filter1_b_365_4954)">
<rect x="13" y="9" width="542" height="80" rx="20" fill="white"/>
<rect x="13" y="9" width="542" height="80" rx="20" stroke="#E8E8E8" stroke-opacity="0.1" stroke-width="2"/>
</g>
<path fill-rule="evenodd" clip-rule="evenodd" d="M46.4407 22C47.5452 22 48.4407 22.8954 48.4407 24V27.6312C52.0111 25.7195 56.0911 24.6355 60.4242 24.6355C74.4657 24.6355 85.8485 36.0183 85.8485 50.0597C85.8485 64.1011 74.4657 75.4839 60.4242 75.4839C46.3828 75.4839 35 64.1011 35 50.0597C35 42.8532 37.9983 36.347 42.8155 31.7205H40.0842C38.9797 31.7205 38.0842 30.8251 38.0842 29.7205C38.0842 28.6159 38.9797 27.7205 40.0842 27.7205H44.4407V24C44.4407 22.8954 45.3361 22 46.4407 22Z" fill="#10124C"/>
<rect x="44.5664" y="34.1697" width="39.5868" height="17.3192" rx="8.65962" transform="rotate(15 44.5664 34.1697)" fill="#1EBAAF"/>
<path fill-rule="evenodd" clip-rule="evenodd" d="M68.6163 48.8133C68.3797 48.9515 68.2069 49.1784 68.1356 49.4442C68.0644 49.71 68.1007 49.9929 68.2364 50.2309L70.9707 55.0187C71.1068 55.2567 71.3314 55.4301 71.5951 55.5007C71.8587 55.5713 72.1399 55.5333 72.3767 55.3951C72.6135 55.2568 72.7866 55.0297 72.8578 54.7636C72.929 54.4976 72.8926 54.2144 72.7565 53.9763L70.5343 50.0869L74.4035 47.8297C74.6353 47.6891 74.8035 47.4627 74.8718 47.1991C74.9402 46.9355 74.9032 46.6559 74.7688 46.4205C74.6344 46.1851 74.4135 46.0127 74.1535 45.9404C73.8935 45.8682 73.6153 45.9019 73.3788 46.0343L68.6158 48.8124L68.6163 48.8133Z" fill="#343434"/>
<path fill-rule="evenodd" clip-rule="evenodd" d="M55.385 45.0428C55.5345 45.3048 55.5745 45.6165 55.496 45.9092C55.4176 46.2019 55.2272 46.4519 54.9667 46.604L49.7224 49.6648C49.4615 49.8169 49.1518 49.8586 48.8615 49.7807C48.5711 49.7029 48.3239 49.5118 48.1742 49.2495C48.0244 48.9873 47.9844 48.6754 48.063 48.3824C48.1416 48.0894 48.3323 47.8394 48.5932 47.6873L52.8543 45.2014L50.407 40.9179C50.2633 40.6562 50.2276 40.3476 50.3075 40.0586C50.3875 39.7696 50.5768 39.5233 50.8346 39.3727C51.0923 39.2222 51.398 39.1794 51.6858 39.2537C51.9735 39.328 52.2203 39.5133 52.373 39.7698L55.386 45.0422L55.385 45.0428Z" fill="#343434"/>
<path d="M117.104 60.712C115.792 60.712 114.576 60.488 113.456 60.04C112.352 59.608 111.392 58.984 110.576 58.168C109.776 57.368 109.152 56.424 108.704 55.336C108.256 54.248 108.032 53.056 108.032 51.76C108.032 50.464 108.256 49.272 108.704 48.184C109.152 47.08 109.776 46.128 110.576 45.328C111.392 44.528 112.352 43.912 113.456 43.48C114.576 43.032 115.792 42.808 117.104 42.808C118.432 42.808 119.64 43.032 120.728 43.48C121.832 43.912 122.792 44.528 123.608 45.328C124.424 46.128 125.048 47.072 125.48 48.16C125.928 49.248 126.152 50.448 126.152 51.76C126.152 53.44 125.792 54.928 125.072 56.224H119L118.976 55.048H118.928C118.576 55.496 118.152 55.84 117.656 56.08C117.16 56.32 116.608 56.44 116 56.44C114.832 56.44 113.912 56.024 113.24 55.192C112.568 54.36 112.232 53.216 112.232 51.76C112.232 50.304 112.568 49.16 113.24 48.328C113.912 47.496 114.832 47.08 116 47.08C116.608 47.08 117.16 47.2 117.656 47.44C118.152 47.664 118.576 48.008 118.928 48.472H118.976L119 47.032H121.496V54.304H124.64L123.272 55.168C123.544 54.704 123.752 54.184 123.896 53.608C124.04 53.016 124.112 52.4 124.112 51.76C124.112 50.368 123.816 49.152 123.224 48.112C122.632 47.056 121.808 46.232 120.752 45.64C119.712 45.032 118.496 44.728 117.104 44.728C115.728 44.728 114.504 45.032 113.432 45.64C112.376 46.232 111.552 47.056 110.96 48.112C110.368 49.168 110.072 50.384 110.072 51.76C110.072 53.136 110.368 54.352 110.96 55.408C111.552 56.464 112.376 57.296 113.432 57.904C114.504 58.496 115.728 58.792 117.104 58.792C117.968 58.792 118.776 58.664 119.528 58.408C120.296 58.152 120.976 57.792 121.568 57.328L122.768 58.864C122 59.456 121.136 59.912 120.176 60.232C119.216 60.552 118.192 60.712 117.104 60.712ZM116.864 54.4C117.504 54.4 118 54.184 118.352 53.752C118.72 53.304 118.904 52.704 118.904 51.952V51.568C118.904 50.816 118.72 50.224 118.352 49.792C118 49.344 117.504 49.12 116.864 49.12C116.224 49.12 115.72 49.352 115.352 49.816C115 50.264 114.824 50.912 114.824 51.76C114.824 52.608 115 53.264 115.352 53.728C115.72 54.176 116.224 54.4 116.864 54.4ZM140.02 58V40.48H142.66V58H140.02ZM129.22 58V40.48H131.86V58H129.22ZM130.54 50.032V47.632H141.34V50.032H130.54ZM152.391 58.24C150.231 58.24 148.567 57.68 147.399 56.56C146.231 55.44 145.647 53.84 145.647 51.76C145.647 49.744 146.183 48.16 147.255 47.008C148.343 45.856 149.831 45.28 151.719 45.28C153.543 45.28 154.943 45.824 155.919 46.912C156.911 48 157.407 49.544 157.407 51.544C157.407 51.752 157.399 51.984 157.383 52.24C157.383 52.496 157.375 52.696 157.359 52.84H147.087V50.8H155.391L154.983 51.424C154.983 50.064 154.711 49.056 154.167 48.4C153.623 47.728 152.807 47.392 151.719 47.392C150.567 47.392 149.687 47.744 149.079 48.448C148.487 49.152 148.191 50.176 148.191 51.52V52.24C148.191 53.536 148.527 54.504 149.199 55.144C149.887 55.768 150.919 56.08 152.295 56.08C152.967 56.08 153.679 56.016 154.431 55.888C155.199 55.744 155.879 55.56 156.471 55.336L156.807 57.424C156.199 57.68 155.503 57.88 154.719 58.024C153.951 58.168 153.175 58.24 152.391 58.24ZM161.212 63.04L163.372 57.88L158.38 45.544L161.164 45.52L164.644 55.168H164.692L168.316 45.52H171.1L163.948 63.04H161.212ZM179.793 58V40.48H184.977C188.081 40.48 190.361 41.192 191.817 42.616C193.289 44.04 194.025 46.248 194.025 49.24C194.025 52.232 193.289 54.44 191.817 55.864C190.361 57.288 188.081 58 184.977 58H179.793ZM185.193 55.12C186.489 55.12 187.529 54.928 188.313 54.544C189.097 54.144 189.673 53.512 190.041 52.648C190.409 51.784 190.593 50.648 190.593 49.24C190.593 47.816 190.409 46.68 190.041 45.832C189.673 44.968 189.097 44.344 188.313 43.96C187.529 43.56 186.489 43.36 185.193 43.36H183.153V55.12H185.193ZM196.809 58V40.48H208.713V43.336H200.169V47.512H208.233V50.272H200.169V55.144H208.713V58H196.809ZM216.435 58L210.483 40.48H214.179L218.619 54.64H218.667L223.107 40.48H226.803L220.827 58H216.435ZM240.953 58.24C239.449 58.24 238.361 57.936 237.689 57.328C237.033 56.72 236.705 55.72 236.705 54.328V48.088H233.993V45.52H236.705V41.44H240.017V45.52H244.073V48.088H240.017V53.512C240.017 54.264 240.137 54.792 240.377 55.096C240.617 55.384 241.049 55.528 241.673 55.528C242.009 55.528 242.361 55.496 242.729 55.432C243.113 55.368 243.465 55.28 243.785 55.168L244.049 57.784C243.505 57.944 242.985 58.056 242.489 58.12C241.993 58.2 241.481 58.24 240.953 58.24ZM252.754 58.24C250.514 58.24 248.786 57.68 247.57 56.56C246.37 55.44 245.77 53.84 245.77 51.76C245.77 49.744 246.322 48.16 247.426 47.008C248.53 45.856 250.05 45.28 251.986 45.28C253.858 45.28 255.298 45.824 256.306 46.912C257.33 48 257.842 49.544 257.842 51.544C257.842 51.768 257.834 52.024 257.818 52.312C257.818 52.6 257.81 52.816 257.794 52.96H247.618V50.68H255.226L254.77 51.376C254.77 50.128 254.538 49.2 254.074 48.592C253.626 47.984 252.93 47.68 251.986 47.68C250.994 47.68 250.25 48 249.754 48.64C249.258 49.264 249.01 50.2 249.01 51.448V52.408C249.01 53.528 249.306 54.352 249.898 54.88C250.49 55.408 251.394 55.672 252.61 55.672C253.298 55.672 254.026 55.608 254.794 55.48C255.562 55.352 256.242 55.176 256.834 54.952L257.218 57.472C256.626 57.712 255.93 57.896 255.13 58.024C254.346 58.168 253.554 58.24 252.754 58.24ZM258.867 58L262.683 51.736L258.891 45.52H262.491L264.915 50.008H264.963L267.387 45.52H270.987L267.219 51.736L271.035 58H267.435L264.963 53.464H264.915L262.467 58H258.867ZM279.063 58.24C277.559 58.24 276.471 57.936 275.799 57.328C275.143 56.72 274.815 55.72 274.815 54.328V48.088H272.103V45.52H274.815V41.44H278.127V45.52H282.183V48.088H278.127V53.512C278.127 54.264 278.247 54.792 278.487 55.096C278.727 55.384 279.159 55.528 279.783 55.528C280.119 55.528 280.471 55.496 280.839 55.432C281.223 55.368 281.575 55.28 281.895 55.168L282.159 57.784C281.615 57.944 281.095 58.056 280.599 58.12C280.103 58.2 279.591 58.24 279.063 58.24ZM291.562 58V40.48H294.874V46.984H294.922C295.434 46.408 296.01 45.984 296.65 45.712C297.306 45.424 298.066 45.28 298.93 45.28C300.466 45.28 301.586 45.688 302.29 46.504C302.994 47.304 303.338 48.576 303.322 50.32V58H300.034V50.968C300.05 49.928 299.874 49.176 299.506 48.712C299.154 48.232 298.594 47.992 297.826 47.992C297.25 47.992 296.738 48.112 296.29 48.352C295.858 48.576 295.514 48.888 295.258 49.288C295.002 49.688 294.874 50.144 294.874 50.656V58H291.562ZM312.496 58.24C310.256 58.24 308.528 57.68 307.312 56.56C306.112 55.44 305.512 53.84 305.512 51.76C305.512 49.744 306.064 48.16 307.168 47.008C308.272 45.856 309.792 45.28 311.728 45.28C313.6 45.28 315.04 45.824 316.048 46.912C317.072 48 317.584 49.544 317.584 51.544C317.584 51.768 317.576 52.024 317.56 52.312C317.56 52.6 317.552 52.816 317.536 52.96H307.36V50.68H314.968L314.512 51.376C314.512 50.128 314.28 49.2 313.816 48.592C313.368 47.984 312.672 47.68 311.728 47.68C310.736 47.68 309.992 48 309.496 48.64C309 49.264 308.752 50.2 308.752 51.448V52.408C308.752 53.528 309.048 54.352 309.64 54.88C310.232 55.408 311.136 55.672 312.352 55.672C313.04 55.672 313.768 55.608 314.536 55.48C315.304 55.352 315.984 55.176 316.576 54.952L316.96 57.472C316.368 57.712 315.672 57.896 314.872 58.024C314.088 58.168 313.296 58.24 312.496 58.24ZM320.062 58V45.52H323.23L323.254 47.848H323.326C323.742 47.288 324.23 46.824 324.79 46.456C325.366 46.072 325.99 45.784 326.662 45.592C327.35 45.384 328.054 45.28 328.774 45.28V48.088C327.782 48.088 326.878 48.272 326.062 48.64C325.246 49.008 324.598 49.512 324.118 50.152C323.638 50.776 323.398 51.472 323.398 52.24V58H320.062ZM336.332 58.24C334.092 58.24 332.364 57.68 331.148 56.56C329.948 55.44 329.348 53.84 329.348 51.76C329.348 49.744 329.9 48.16 331.004 47.008C332.108 45.856 333.628 45.28 335.564 45.28C337.436 45.28 338.876 45.824 339.884 46.912C340.908 48 341.42 49.544 341.42 51.544C341.42 51.768 341.412 52.024 341.396 52.312C341.396 52.6 341.388 52.816 341.372 52.96H331.196V50.68H338.804L338.348 51.376C338.348 50.128 338.116 49.2 337.652 48.592C337.204 47.984 336.508 47.68 335.564 47.68C334.572 47.68 333.828 48 333.332 48.64C332.836 49.264 332.588 50.2 332.588 51.448V52.408C332.588 53.528 332.884 54.352 333.476 54.88C334.068 55.408 334.972 55.672 336.188 55.672C336.876 55.672 337.604 55.608 338.372 55.48C339.14 55.352 339.82 55.176 340.412 54.952L340.796 57.472C340.204 57.712 339.508 57.896 338.708 58.024C337.924 58.168 337.132 58.24 336.332 58.24ZM343.649 58V54.328H347.321V58H343.649ZM351.243 58V54.328H354.915V58H351.243ZM358.837 58V54.328H362.509V58H358.837Z" fill="#343434"/>
</g>
<defs>
<filter id="filter0_d_365_4954" x="0" y="0" width="577" height="128" filterUnits="userSpaceOnUse" color-interpolation-filters="sRGB">
<feFlood flood-opacity="0" result="BackgroundImageFix"/>
<feColorMatrix in="SourceAlpha" type="matrix" values="0 0 0 0 0 0 0 0 0 0 0 0 0 0 0 0 0 0 127 0" result="hardAlpha"/>
<feOffset dy="4"/>
<feGaussianBlur stdDeviation="6"/>
<feColorMatrix type="matrix" values="0 0 0 0 0 0 0 0 0 0 0 0 0 0 0 0 0 0 0.05 0"/>
<feBlend mode="normal" in2="BackgroundImageFix" result="effect1_dropShadow_365_4954"/>
<feBlend mode="normal" in="SourceGraphic" in2="effect1_dropShadow_365_4954" result="shape"/>
</filter>
<filter id="filter1_b_365_4954" x="-63" y="-67" width="694" height="232" filterUnits="userSpaceOnUse" color-interpolation-filters="sRGB">
<feFlood flood-opacity="0" result="BackgroundImageFix"/>
<feGaussianBlur in="BackgroundImageFix" stdDeviation="37.5"/>
<feComposite in2="SourceAlpha" operator="in" result="effect1_backgroundBlur_365_4954"/>
<feBlend mode="normal" in="SourceGraphic" in2="effect1_backgroundBlur_365_4954" result="shape"/>
</filter>
</defs>
</svg>
