<svg width="559" height="344" viewBox="0 0 559 344" fill="none" xmlns="http://www.w3.org/2000/svg">
<g clip-path="url(#clip0_365_4975)" filter="url(#filter0_d_365_4975)">
<g filter="url(#filter1_b_365_4975)">
<rect x="13" y="9" width="547" height="319" rx="20" fill="white"/>
<rect x="13" y="9" width="547" height="319" rx="20" stroke="#E8E8E8" stroke-opacity="0.5" stroke-width="2"/>
</g>
<path d="M113.104 60.712C111.792 60.712 110.576 60.488 109.456 60.04C108.352 59.608 107.392 58.984 106.576 58.168C105.776 57.368 105.152 56.424 104.704 55.336C104.256 54.248 104.032 53.056 104.032 51.76C104.032 50.464 104.256 49.272 104.704 48.184C105.152 47.08 105.776 46.128 106.576 45.328C107.392 44.528 108.352 43.912 109.456 43.48C110.576 43.032 111.792 42.808 113.104 42.808C114.432 42.808 115.64 43.032 116.728 43.48C117.832 43.912 118.792 44.528 119.608 45.328C120.424 46.128 121.048 47.072 121.48 48.16C121.928 49.248 122.152 50.448 122.152 51.76C122.152 53.44 121.792 54.928 121.072 56.224H115L114.976 55.048H114.928C114.576 55.496 114.152 55.84 113.656 56.08C113.16 56.32 112.608 56.44 112 56.44C110.832 56.44 109.912 56.024 109.24 55.192C108.568 54.36 108.232 53.216 108.232 51.76C108.232 50.304 108.568 49.16 109.24 48.328C109.912 47.496 110.832 47.08 112 47.08C112.608 47.08 113.16 47.2 113.656 47.44C114.152 47.664 114.576 48.008 114.928 48.472H114.976L115 47.032H117.496V54.304H120.64L119.272 55.168C119.544 54.704 119.752 54.184 119.896 53.608C120.04 53.016 120.112 52.4 120.112 51.76C120.112 50.368 119.816 49.152 119.224 48.112C118.632 47.056 117.808 46.232 116.752 45.64C115.712 45.032 114.496 44.728 113.104 44.728C111.728 44.728 110.504 45.032 109.432 45.64C108.376 46.232 107.552 47.056 106.96 48.112C106.368 49.168 106.072 50.384 106.072 51.76C106.072 53.136 106.368 54.352 106.96 55.408C107.552 56.464 108.376 57.296 109.432 57.904C110.504 58.496 111.728 58.792 113.104 58.792C113.968 58.792 114.776 58.664 115.528 58.408C116.296 58.152 116.976 57.792 117.568 57.328L118.768 58.864C118 59.456 117.136 59.912 116.176 60.232C115.216 60.552 114.192 60.712 113.104 60.712ZM112.864 54.4C113.504 54.4 114 54.184 114.352 53.752C114.72 53.304 114.904 52.704 114.904 51.952V51.568C114.904 50.816 114.72 50.224 114.352 49.792C114 49.344 113.504 49.12 112.864 49.12C112.224 49.12 111.72 49.352 111.352 49.816C111 50.264 110.824 50.912 110.824 51.76C110.824 52.608 111 53.264 111.352 53.728C111.72 54.176 112.224 54.4 112.864 54.4ZM136.02 58V40.48H138.66V58H136.02ZM125.22 58V40.48H127.86V58H125.22ZM126.54 50.032V47.632H137.34V50.032H126.54ZM148.391 58.24C146.231 58.24 144.567 57.68 143.399 56.56C142.231 55.44 141.647 53.84 141.647 51.76C141.647 49.744 142.183 48.16 143.255 47.008C144.343 45.856 145.831 45.28 147.719 45.28C149.543 45.28 150.943 45.824 151.919 46.912C152.911 48 153.407 49.544 153.407 51.544C153.407 51.752 153.399 51.984 153.383 52.24C153.383 52.496 153.375 52.696 153.359 52.84H143.087V50.8H151.391L150.983 51.424C150.983 50.064 150.711 49.056 150.167 48.4C149.623 47.728 148.807 47.392 147.719 47.392C146.567 47.392 145.687 47.744 145.079 48.448C144.487 49.152 144.191 50.176 144.191 51.52V52.24C144.191 53.536 144.527 54.504 145.199 55.144C145.887 55.768 146.919 56.08 148.295 56.08C148.967 56.08 149.679 56.016 150.431 55.888C151.199 55.744 151.879 55.56 152.471 55.336L152.807 57.424C152.199 57.68 151.503 57.88 150.719 58.024C149.951 58.168 149.175 58.24 148.391 58.24ZM157.212 63.04L159.372 57.88L154.38 45.544L157.164 45.52L160.644 55.168H160.692L164.316 45.52H167.1L159.948 63.04H157.212ZM175.793 58V40.48H180.977C184.081 40.48 186.361 41.192 187.817 42.616C189.289 44.04 190.025 46.248 190.025 49.24C190.025 52.232 189.289 54.44 187.817 55.864C186.361 57.288 184.081 58 180.977 58H175.793ZM181.193 55.12C182.489 55.12 183.529 54.928 184.313 54.544C185.097 54.144 185.673 53.512 186.041 52.648C186.409 51.784 186.593 50.648 186.593 49.24C186.593 47.816 186.409 46.68 186.041 45.832C185.673 44.968 185.097 44.344 184.313 43.96C183.529 43.56 182.489 43.36 181.193 43.36H179.153V55.12H181.193ZM192.809 58V40.48H204.713V43.336H196.169V47.512H204.233V50.272H196.169V55.144H204.713V58H192.809ZM212.435 58L206.483 40.48H210.179L214.619 54.64H214.667L219.107 40.48H222.803L216.827 58H212.435ZM236.953 58.24C235.449 58.24 234.361 57.936 233.689 57.328C233.033 56.72 232.705 55.72 232.705 54.328V48.088H229.993V45.52H232.705V41.44H236.017V45.52H240.073V48.088H236.017V53.512C236.017 54.264 236.137 54.792 236.377 55.096C236.617 55.384 237.049 55.528 237.673 55.528C238.009 55.528 238.361 55.496 238.729 55.432C239.113 55.368 239.465 55.28 239.785 55.168L240.049 57.784C239.505 57.944 238.985 58.056 238.489 58.12C237.993 58.2 237.481 58.24 236.953 58.24ZM248.754 58.24C246.514 58.24 244.786 57.68 243.57 56.56C242.37 55.44 241.77 53.84 241.77 51.76C241.77 49.744 242.322 48.16 243.426 47.008C244.53 45.856 246.05 45.28 247.986 45.28C249.858 45.28 251.298 45.824 252.306 46.912C253.33 48 253.842 49.544 253.842 51.544C253.842 51.768 253.834 52.024 253.818 52.312C253.818 52.6 253.81 52.816 253.794 52.96H243.618V50.68H251.226L250.77 51.376C250.77 50.128 250.538 49.2 250.074 48.592C249.626 47.984 248.93 47.68 247.986 47.68C246.994 47.68 246.25 48 245.754 48.64C245.258 49.264 245.01 50.2 245.01 51.448V52.408C245.01 53.528 245.306 54.352 245.898 54.88C246.49 55.408 247.394 55.672 248.61 55.672C249.298 55.672 250.026 55.608 250.794 55.48C251.562 55.352 252.242 55.176 252.834 54.952L253.218 57.472C252.626 57.712 251.93 57.896 251.13 58.024C250.346 58.168 249.554 58.24 248.754 58.24ZM254.867 58L258.683 51.736L254.891 45.52H258.491L260.915 50.008H260.963L263.387 45.52H266.987L263.219 51.736L267.035 58H263.435L260.963 53.464H260.915L258.467 58H254.867ZM275.063 58.24C273.559 58.24 272.471 57.936 271.799 57.328C271.143 56.72 270.815 55.72 270.815 54.328V48.088H268.103V45.52H270.815V41.44H274.127V45.52H278.183V48.088H274.127V53.512C274.127 54.264 274.247 54.792 274.487 55.096C274.727 55.384 275.159 55.528 275.783 55.528C276.119 55.528 276.471 55.496 276.839 55.432C277.223 55.368 277.575 55.28 277.895 55.168L278.159 57.784C277.615 57.944 277.095 58.056 276.599 58.12C276.103 58.2 275.591 58.24 275.063 58.24ZM287.562 58V40.48H290.874V46.984H290.922C291.434 46.408 292.01 45.984 292.65 45.712C293.306 45.424 294.066 45.28 294.93 45.28C296.466 45.28 297.586 45.688 298.29 46.504C298.994 47.304 299.338 48.576 299.322 50.32V58H296.034V50.968C296.05 49.928 295.874 49.176 295.506 48.712C295.154 48.232 294.594 47.992 293.826 47.992C293.25 47.992 292.738 48.112 292.29 48.352C291.858 48.576 291.514 48.888 291.258 49.288C291.002 49.688 290.874 50.144 290.874 50.656V58H287.562ZM308.496 58.24C306.256 58.24 304.528 57.68 303.312 56.56C302.112 55.44 301.512 53.84 301.512 51.76C301.512 49.744 302.064 48.16 303.168 47.008C304.272 45.856 305.792 45.28 307.728 45.28C309.6 45.28 311.04 45.824 312.048 46.912C313.072 48 313.584 49.544 313.584 51.544C313.584 51.768 313.576 52.024 313.56 52.312C313.56 52.6 313.552 52.816 313.536 52.96H303.36V50.68H310.968L310.512 51.376C310.512 50.128 310.28 49.2 309.816 48.592C309.368 47.984 308.672 47.68 307.728 47.68C306.736 47.68 305.992 48 305.496 48.64C305 49.264 304.752 50.2 304.752 51.448V52.408C304.752 53.528 305.048 54.352 305.64 54.88C306.232 55.408 307.136 55.672 308.352 55.672C309.04 55.672 309.768 55.608 310.536 55.48C311.304 55.352 311.984 55.176 312.576 54.952L312.96 57.472C312.368 57.712 311.672 57.896 310.872 58.024C310.088 58.168 309.296 58.24 308.496 58.24ZM316.062 58V45.52H319.23L319.254 47.848H319.326C319.742 47.288 320.23 46.824 320.79 46.456C321.366 46.072 321.99 45.784 322.662 45.592C323.35 45.384 324.054 45.28 324.774 45.28V48.088C323.782 48.088 322.878 48.272 322.062 48.64C321.246 49.008 320.598 49.512 320.118 50.152C319.638 50.776 319.398 51.472 319.398 52.24V58H316.062ZM332.332 58.24C330.092 58.24 328.364 57.68 327.148 56.56C325.948 55.44 325.348 53.84 325.348 51.76C325.348 49.744 325.9 48.16 327.004 47.008C328.108 45.856 329.628 45.28 331.564 45.28C333.436 45.28 334.876 45.824 335.884 46.912C336.908 48 337.42 49.544 337.42 51.544C337.42 51.768 337.412 52.024 337.396 52.312C337.396 52.6 337.388 52.816 337.372 52.96H327.196V50.68H334.804L334.348 51.376C334.348 50.128 334.116 49.2 333.652 48.592C333.204 47.984 332.508 47.68 331.564 47.68C330.572 47.68 329.828 48 329.332 48.64C328.836 49.264 328.588 50.2 328.588 51.448V52.408C328.588 53.528 328.884 54.352 329.476 54.88C330.068 55.408 330.972 55.672 332.188 55.672C332.876 55.672 333.604 55.608 334.372 55.48C335.14 55.352 335.82 55.176 336.412 54.952L336.796 57.472C336.204 57.712 335.508 57.896 334.708 58.024C333.924 58.168 333.132 58.24 332.332 58.24ZM339.649 58V54.328H343.321V58H339.649ZM347.243 58V54.328H350.915V58H347.243ZM354.837 58V54.328H358.509V58H354.837Z" fill="#343434"/>
<path d="M68.9618 27.5122L66.6731 32.5122L61.696 34.7849L66.6731 37.0758L68.9618 42.0577L71.2324 37.0758L76.2276 34.7849L71.2324 32.5122M50.7973 32.9668L46.2561 42.9668L36.2656 47.5122L46.2561 52.0577L50.7973 62.0577L55.3384 52.0577L65.3289 47.5122L55.3384 42.9668M68.9618 52.9668L66.6731 57.9486L61.696 60.2395L66.6731 62.5122L68.9618 67.5122L71.2324 62.5122L76.2276 60.2395L71.2324 57.9486" fill="#09C2B4"/>
<circle cx="109" cy="101" r="5" fill="#EFEFEF"/>
<circle cx="109" cy="141" r="5" fill="#EFEFEF"/>
<circle cx="109" cy="181" r="5" fill="#EFEFEF"/>
<circle cx="109" cy="221" r="5" fill="#EFEFEF"/>
<rect x="126" y="96" width="164" height="10" rx="5" fill="#EFEFEF"/>
<rect x="126" y="136" width="164" height="10" rx="5" fill="#EFEFEF"/>
<rect x="126" y="176" width="164" height="10" rx="5" fill="#EFEFEF"/>
<rect x="126" y="216" width="164" height="10" rx="5" fill="#EFEFEF"/>
</g>
<defs>
<filter id="filter0_d_365_4975" x="-4" y="0" width="563" height="344" filterUnits="userSpaceOnUse" color-interpolation-filters="sRGB">
<feFlood flood-opacity="0" result="BackgroundImageFix"/>
<feColorMatrix in="SourceAlpha" type="matrix" values="0 0 0 0 0 0 0 0 0 0 0 0 0 0 0 0 0 0 127 0" result="hardAlpha"/>
<feOffset dy="4"/>
<feGaussianBlur stdDeviation="6"/>
<feColorMatrix type="matrix" values="0 0 0 0 0 0 0 0 0 0 0 0 0 0 0 0 0 0 0.05 0"/>
<feBlend mode="normal" in2="BackgroundImageFix" result="effect1_dropShadow_365_4975"/>
<feBlend mode="normal" in="SourceGraphic" in2="effect1_dropShadow_365_4975" result="shape"/>
</filter>
<filter id="filter1_b_365_4975" x="-63" y="-67" width="699" height="471" filterUnits="userSpaceOnUse" color-interpolation-filters="sRGB">
<feFlood flood-opacity="0" result="BackgroundImageFix"/>
<feGaussianBlur in="BackgroundImageFix" stdDeviation="37.5"/>
<feComposite in2="SourceAlpha" operator="in" result="effect1_backgroundBlur_365_4975"/>
<feBlend mode="normal" in="SourceGraphic" in2="effect1_backgroundBlur_365_4975" result="shape"/>
</filter>
<clipPath id="clip0_365_4975">
<rect width="539" height="320" fill="white" transform="translate(8 8)"/>
</clipPath>
</defs>
</svg>
