<svg width="536" height="234" viewBox="0 0 536 234" fill="none" xmlns="http://www.w3.org/2000/svg">
<g filter="url(#filter0_d_685_742)">
<g filter="url(#filter1_b_685_742)">
<rect x="13" y="131" width="551" height="81" rx="20" fill="white"/>
<rect x="13" y="131" width="551" height="81" rx="20" stroke="#E8E8E8" stroke-opacity="0.1" stroke-width="2"/>
</g>
<path fill-rule="evenodd" clip-rule="evenodd" d="M46.4407 144C47.5452 144 48.4407 144.895 48.4407 146V149.631C52.0111 147.719 56.0911 146.635 60.4242 146.635C74.4657 146.635 85.8485 158.018 85.8485 172.06C85.8485 186.101 74.4657 197.484 60.4242 197.484C46.3828 197.484 35 186.101 35 172.06C35 164.853 37.9983 158.347 42.8155 153.72H40.0842C38.9797 153.72 38.0842 152.825 38.0842 151.72C38.0842 150.616 38.9797 149.72 40.0842 149.72H44.4407V146C44.4407 144.895 45.3361 144 46.4407 144Z" fill="#10124C"/>
<rect x="44.5664" y="156.17" width="39.5868" height="17.3192" rx="8.65962" transform="rotate(15 44.5664 156.17)" fill="#1EBAAF"/>
<path fill-rule="evenodd" clip-rule="evenodd" d="M68.6163 170.813C68.3797 170.951 68.2069 171.178 68.1356 171.444C68.0644 171.71 68.1007 171.993 68.2364 172.231L70.9707 177.019C71.1068 177.257 71.3314 177.43 71.5951 177.501C71.8587 177.571 72.1399 177.533 72.3767 177.395C72.6135 177.257 72.7866 177.03 72.8578 176.764C72.929 176.498 72.8926 176.214 72.7565 175.976L70.5343 172.087L74.4035 169.83C74.6353 169.689 74.8035 169.463 74.8718 169.199C74.9402 168.936 74.9032 168.656 74.7688 168.421C74.6344 168.185 74.4135 168.013 74.1535 167.94C73.8935 167.868 73.6153 167.902 73.3788 168.034L68.6158 170.812L68.6163 170.813Z" fill="#343434"/>
<path fill-rule="evenodd" clip-rule="evenodd" d="M55.385 167.043C55.5345 167.305 55.5745 167.616 55.496 167.909C55.4176 168.202 55.2272 168.452 54.9667 168.604L49.7224 171.665C49.4615 171.817 49.1518 171.859 48.8615 171.781C48.5711 171.703 48.3239 171.512 48.1742 171.25C48.0244 170.987 47.9844 170.675 48.063 170.382C48.1416 170.089 48.3323 169.839 48.5932 169.687L52.8543 167.201L50.407 162.918C50.2633 162.656 50.2276 162.348 50.3075 162.059C50.3875 161.77 50.5768 161.523 50.8346 161.373C51.0923 161.222 51.398 161.179 51.6858 161.254C51.9735 161.328 52.2203 161.513 52.373 161.77L55.386 167.042L55.385 167.043Z" fill="#343434"/>
<path d="M117.104 182.712C115.792 182.712 114.576 182.488 113.456 182.04C112.352 181.608 111.392 180.984 110.576 180.168C109.776 179.368 109.152 178.424 108.704 177.336C108.256 176.248 108.032 175.056 108.032 173.76C108.032 172.464 108.256 171.272 108.704 170.184C109.152 169.08 109.776 168.128 110.576 167.328C111.392 166.528 112.352 165.912 113.456 165.48C114.576 165.032 115.792 164.808 117.104 164.808C118.432 164.808 119.64 165.032 120.728 165.48C121.832 165.912 122.792 166.528 123.608 167.328C124.424 168.128 125.048 169.072 125.48 170.16C125.928 171.248 126.152 172.448 126.152 173.76C126.152 175.44 125.792 176.928 125.072 178.224H119L118.976 177.048H118.928C118.576 177.496 118.152 177.84 117.656 178.08C117.16 178.32 116.608 178.44 116 178.44C114.832 178.44 113.912 178.024 113.24 177.192C112.568 176.36 112.232 175.216 112.232 173.76C112.232 172.304 112.568 171.16 113.24 170.328C113.912 169.496 114.832 169.08 116 169.08C116.608 169.08 117.16 169.2 117.656 169.44C118.152 169.664 118.576 170.008 118.928 170.472H118.976L119 169.032H121.496V176.304H124.64L123.272 177.168C123.544 176.704 123.752 176.184 123.896 175.608C124.04 175.016 124.112 174.4 124.112 173.76C124.112 172.368 123.816 171.152 123.224 170.112C122.632 169.056 121.808 168.232 120.752 167.64C119.712 167.032 118.496 166.728 117.104 166.728C115.728 166.728 114.504 167.032 113.432 167.64C112.376 168.232 111.552 169.056 110.96 170.112C110.368 171.168 110.072 172.384 110.072 173.76C110.072 175.136 110.368 176.352 110.96 177.408C111.552 178.464 112.376 179.296 113.432 179.904C114.504 180.496 115.728 180.792 117.104 180.792C117.968 180.792 118.776 180.664 119.528 180.408C120.296 180.152 120.976 179.792 121.568 179.328L122.768 180.864C122 181.456 121.136 181.912 120.176 182.232C119.216 182.552 118.192 182.712 117.104 182.712ZM116.864 176.4C117.504 176.4 118 176.184 118.352 175.752C118.72 175.304 118.904 174.704 118.904 173.952V173.568C118.904 172.816 118.72 172.224 118.352 171.792C118 171.344 117.504 171.12 116.864 171.12C116.224 171.12 115.72 171.352 115.352 171.816C115 172.264 114.824 172.912 114.824 173.76C114.824 174.608 115 175.264 115.352 175.728C115.72 176.176 116.224 176.4 116.864 176.4ZM140.02 180V162.48H142.66V180H140.02ZM129.22 180V162.48H131.86V180H129.22ZM130.54 172.032V169.632H141.34V172.032H130.54ZM152.391 180.24C150.231 180.24 148.567 179.68 147.399 178.56C146.231 177.44 145.647 175.84 145.647 173.76C145.647 171.744 146.183 170.16 147.255 169.008C148.343 167.856 149.831 167.28 151.719 167.28C153.543 167.28 154.943 167.824 155.919 168.912C156.911 170 157.407 171.544 157.407 173.544C157.407 173.752 157.399 173.984 157.383 174.24C157.383 174.496 157.375 174.696 157.359 174.84H147.087V172.8H155.391L154.983 173.424C154.983 172.064 154.711 171.056 154.167 170.4C153.623 169.728 152.807 169.392 151.719 169.392C150.567 169.392 149.687 169.744 149.079 170.448C148.487 171.152 148.191 172.176 148.191 173.52V174.24C148.191 175.536 148.527 176.504 149.199 177.144C149.887 177.768 150.919 178.08 152.295 178.08C152.967 178.08 153.679 178.016 154.431 177.888C155.199 177.744 155.879 177.56 156.471 177.336L156.807 179.424C156.199 179.68 155.503 179.88 154.719 180.024C153.951 180.168 153.175 180.24 152.391 180.24ZM161.212 185.04L163.372 179.88L158.38 167.544L161.164 167.52L164.644 177.168H164.692L168.316 167.52H171.1L163.948 185.04H161.212ZM179.793 180V162.48H184.977C188.081 162.48 190.361 163.192 191.817 164.616C193.289 166.04 194.025 168.248 194.025 171.24C194.025 174.232 193.289 176.44 191.817 177.864C190.361 179.288 188.081 180 184.977 180H179.793ZM185.193 177.12C186.489 177.12 187.529 176.928 188.313 176.544C189.097 176.144 189.673 175.512 190.041 174.648C190.409 173.784 190.593 172.648 190.593 171.24C190.593 169.816 190.409 168.68 190.041 167.832C189.673 166.968 189.097 166.344 188.313 165.96C187.529 165.56 186.489 165.36 185.193 165.36H183.153V177.12H185.193ZM196.809 180V162.48H208.713V165.336H200.169V169.512H208.233V172.272H200.169V177.144H208.713V180H196.809ZM216.435 180L210.483 162.48H214.179L218.619 176.64H218.667L223.107 162.48H226.803L220.827 180H216.435ZM240.953 180.24C239.449 180.24 238.361 179.936 237.689 179.328C237.033 178.72 236.705 177.72 236.705 176.328V170.088H233.993V167.52H236.705V163.44H240.017V167.52H244.073V170.088H240.017V175.512C240.017 176.264 240.137 176.792 240.377 177.096C240.617 177.384 241.049 177.528 241.673 177.528C242.009 177.528 242.361 177.496 242.729 177.432C243.113 177.368 243.465 177.28 243.785 177.168L244.049 179.784C243.505 179.944 242.985 180.056 242.489 180.12C241.993 180.2 241.481 180.24 240.953 180.24ZM252.754 180.24C250.514 180.24 248.786 179.68 247.57 178.56C246.37 177.44 245.77 175.84 245.77 173.76C245.77 171.744 246.322 170.16 247.426 169.008C248.53 167.856 250.05 167.28 251.986 167.28C253.858 167.28 255.298 167.824 256.306 168.912C257.33 170 257.842 171.544 257.842 173.544C257.842 173.768 257.834 174.024 257.818 174.312C257.818 174.6 257.81 174.816 257.794 174.96H247.618V172.68H255.226L254.77 173.376C254.77 172.128 254.538 171.2 254.074 170.592C253.626 169.984 252.93 169.68 251.986 169.68C250.994 169.68 250.25 170 249.754 170.64C249.258 171.264 249.01 172.2 249.01 173.448V174.408C249.01 175.528 249.306 176.352 249.898 176.88C250.49 177.408 251.394 177.672 252.61 177.672C253.298 177.672 254.026 177.608 254.794 177.48C255.562 177.352 256.242 177.176 256.834 176.952L257.218 179.472C256.626 179.712 255.93 179.896 255.13 180.024C254.346 180.168 253.554 180.24 252.754 180.24ZM258.867 180L262.683 173.736L258.891 167.52H262.491L264.915 172.008H264.963L267.387 167.52H270.987L267.219 173.736L271.035 180H267.435L264.963 175.464H264.915L262.467 180H258.867ZM279.063 180.24C277.559 180.24 276.471 179.936 275.799 179.328C275.143 178.72 274.815 177.72 274.815 176.328V170.088H272.103V167.52H274.815V163.44H278.127V167.52H282.183V170.088H278.127V175.512C278.127 176.264 278.247 176.792 278.487 177.096C278.727 177.384 279.159 177.528 279.783 177.528C280.119 177.528 280.471 177.496 280.839 177.432C281.223 177.368 281.575 177.28 281.895 177.168L282.159 179.784C281.615 179.944 281.095 180.056 280.599 180.12C280.103 180.2 279.591 180.24 279.063 180.24ZM291.562 180V162.48H294.874V168.984H294.922C295.434 168.408 296.01 167.984 296.65 167.712C297.306 167.424 298.066 167.28 298.93 167.28C300.466 167.28 301.586 167.688 302.29 168.504C302.994 169.304 303.338 170.576 303.322 172.32V180H300.034V172.968C300.05 171.928 299.874 171.176 299.506 170.712C299.154 170.232 298.594 169.992 297.826 169.992C297.25 169.992 296.738 170.112 296.29 170.352C295.858 170.576 295.514 170.888 295.258 171.288C295.002 171.688 294.874 172.144 294.874 172.656V180H291.562ZM312.496 180.24C310.256 180.24 308.528 179.68 307.312 178.56C306.112 177.44 305.512 175.84 305.512 173.76C305.512 171.744 306.064 170.16 307.168 169.008C308.272 167.856 309.792 167.28 311.728 167.28C313.6 167.28 315.04 167.824 316.048 168.912C317.072 170 317.584 171.544 317.584 173.544C317.584 173.768 317.576 174.024 317.56 174.312C317.56 174.6 317.552 174.816 317.536 174.96H307.36V172.68H314.968L314.512 173.376C314.512 172.128 314.28 171.2 313.816 170.592C313.368 169.984 312.672 169.68 311.728 169.68C310.736 169.68 309.992 170 309.496 170.64C309 171.264 308.752 172.2 308.752 173.448V174.408C308.752 175.528 309.048 176.352 309.64 176.88C310.232 177.408 311.136 177.672 312.352 177.672C313.04 177.672 313.768 177.608 314.536 177.48C315.304 177.352 315.984 177.176 316.576 176.952L316.96 179.472C316.368 179.712 315.672 179.896 314.872 180.024C314.088 180.168 313.296 180.24 312.496 180.24ZM320.062 180V167.52H323.23L323.254 169.848H323.326C323.742 169.288 324.23 168.824 324.79 168.456C325.366 168.072 325.99 167.784 326.662 167.592C327.35 167.384 328.054 167.28 328.774 167.28V170.088C327.782 170.088 326.878 170.272 326.062 170.64C325.246 171.008 324.598 171.512 324.118 172.152C323.638 172.776 323.398 173.472 323.398 174.24V180H320.062ZM336.332 180.24C334.092 180.24 332.364 179.68 331.148 178.56C329.948 177.44 329.348 175.84 329.348 173.76C329.348 171.744 329.9 170.16 331.004 169.008C332.108 167.856 333.628 167.28 335.564 167.28C337.436 167.28 338.876 167.824 339.884 168.912C340.908 170 341.42 171.544 341.42 173.544C341.42 173.768 341.412 174.024 341.396 174.312C341.396 174.6 341.388 174.816 341.372 174.96H331.196V172.68H338.804L338.348 173.376C338.348 172.128 338.116 171.2 337.652 170.592C337.204 169.984 336.508 169.68 335.564 169.68C334.572 169.68 333.828 170 333.332 170.64C332.836 171.264 332.588 172.2 332.588 173.448V174.408C332.588 175.528 332.884 176.352 333.476 176.88C334.068 177.408 334.972 177.672 336.188 177.672C336.876 177.672 337.604 177.608 338.372 177.48C339.14 177.352 339.82 177.176 340.412 176.952L340.796 179.472C340.204 179.712 339.508 179.896 338.708 180.024C337.924 180.168 337.132 180.24 336.332 180.24ZM343.649 180V176.328H347.321V180H343.649ZM351.243 180V176.328H354.915V180H351.243ZM358.837 180V176.328H362.509V180H358.837Z" fill="#343434"/>
</g>
<g filter="url(#filter2_d_685_742)">
<g filter="url(#filter3_b_685_742)">
<rect x="131" y="9" width="551" height="81" rx="20" fill="white"/>
<rect x="131" y="9" width="551" height="81" rx="20" stroke="#E8E8E8" stroke-width="2"/>
</g>
<path d="M235.104 60.712C233.792 60.712 232.576 60.488 231.456 60.04C230.352 59.608 229.392 58.984 228.576 58.168C227.776 57.368 227.152 56.424 226.704 55.336C226.256 54.248 226.032 53.056 226.032 51.76C226.032 50.464 226.256 49.272 226.704 48.184C227.152 47.08 227.776 46.128 228.576 45.328C229.392 44.528 230.352 43.912 231.456 43.48C232.576 43.032 233.792 42.808 235.104 42.808C236.432 42.808 237.64 43.032 238.728 43.48C239.832 43.912 240.792 44.528 241.608 45.328C242.424 46.128 243.048 47.072 243.48 48.16C243.928 49.248 244.152 50.448 244.152 51.76C244.152 53.44 243.792 54.928 243.072 56.224H237L236.976 55.048H236.928C236.576 55.496 236.152 55.84 235.656 56.08C235.16 56.32 234.608 56.44 234 56.44C232.832 56.44 231.912 56.024 231.24 55.192C230.568 54.36 230.232 53.216 230.232 51.76C230.232 50.304 230.568 49.16 231.24 48.328C231.912 47.496 232.832 47.08 234 47.08C234.608 47.08 235.16 47.2 235.656 47.44C236.152 47.664 236.576 48.008 236.928 48.472H236.976L237 47.032H239.496V54.304H242.64L241.272 55.168C241.544 54.704 241.752 54.184 241.896 53.608C242.04 53.016 242.112 52.4 242.112 51.76C242.112 50.368 241.816 49.152 241.224 48.112C240.632 47.056 239.808 46.232 238.752 45.64C237.712 45.032 236.496 44.728 235.104 44.728C233.728 44.728 232.504 45.032 231.432 45.64C230.376 46.232 229.552 47.056 228.96 48.112C228.368 49.168 228.072 50.384 228.072 51.76C228.072 53.136 228.368 54.352 228.96 55.408C229.552 56.464 230.376 57.296 231.432 57.904C232.504 58.496 233.728 58.792 235.104 58.792C235.968 58.792 236.776 58.664 237.528 58.408C238.296 58.152 238.976 57.792 239.568 57.328L240.768 58.864C240 59.456 239.136 59.912 238.176 60.232C237.216 60.552 236.192 60.712 235.104 60.712ZM234.864 54.4C235.504 54.4 236 54.184 236.352 53.752C236.72 53.304 236.904 52.704 236.904 51.952V51.568C236.904 50.816 236.72 50.224 236.352 49.792C236 49.344 235.504 49.12 234.864 49.12C234.224 49.12 233.72 49.352 233.352 49.816C233 50.264 232.824 50.912 232.824 51.76C232.824 52.608 233 53.264 233.352 53.728C233.72 54.176 234.224 54.4 234.864 54.4ZM258.02 58V40.48H260.66V58H258.02ZM247.22 58V40.48H249.86V58H247.22ZM248.54 50.032V47.632H259.34V50.032H248.54ZM270.391 58.24C268.231 58.24 266.567 57.68 265.399 56.56C264.231 55.44 263.647 53.84 263.647 51.76C263.647 49.744 264.183 48.16 265.255 47.008C266.343 45.856 267.831 45.28 269.719 45.28C271.543 45.28 272.943 45.824 273.919 46.912C274.911 48 275.407 49.544 275.407 51.544C275.407 51.752 275.399 51.984 275.383 52.24C275.383 52.496 275.375 52.696 275.359 52.84H265.087V50.8H273.391L272.983 51.424C272.983 50.064 272.711 49.056 272.167 48.4C271.623 47.728 270.807 47.392 269.719 47.392C268.567 47.392 267.687 47.744 267.079 48.448C266.487 49.152 266.191 50.176 266.191 51.52V52.24C266.191 53.536 266.527 54.504 267.199 55.144C267.887 55.768 268.919 56.08 270.295 56.08C270.967 56.08 271.679 56.016 272.431 55.888C273.199 55.744 273.879 55.56 274.471 55.336L274.807 57.424C274.199 57.68 273.503 57.88 272.719 58.024C271.951 58.168 271.175 58.24 270.391 58.24ZM279.212 63.04L281.372 57.88L276.38 45.544L279.164 45.52L282.644 55.168H282.692L286.316 45.52H289.1L281.948 63.04H279.212ZM297.793 58V40.48H302.977C306.081 40.48 308.361 41.192 309.817 42.616C311.289 44.04 312.025 46.248 312.025 49.24C312.025 52.232 311.289 54.44 309.817 55.864C308.361 57.288 306.081 58 302.977 58H297.793ZM303.193 55.12C304.489 55.12 305.529 54.928 306.313 54.544C307.097 54.144 307.673 53.512 308.041 52.648C308.409 51.784 308.593 50.648 308.593 49.24C308.593 47.816 308.409 46.68 308.041 45.832C307.673 44.968 307.097 44.344 306.313 43.96C305.529 43.56 304.489 43.36 303.193 43.36H301.153V55.12H303.193ZM314.809 58V40.48H326.713V43.336H318.169V47.512H326.233V50.272H318.169V55.144H326.713V58H314.809ZM334.435 58L328.483 40.48H332.179L336.619 54.64H336.667L341.107 40.48H344.803L338.827 58H334.435ZM358.953 58.24C357.449 58.24 356.361 57.936 355.689 57.328C355.033 56.72 354.705 55.72 354.705 54.328V48.088H351.993V45.52H354.705V41.44H358.017V45.52H362.073V48.088H358.017V53.512C358.017 54.264 358.137 54.792 358.377 55.096C358.617 55.384 359.049 55.528 359.673 55.528C360.009 55.528 360.361 55.496 360.729 55.432C361.113 55.368 361.465 55.28 361.785 55.168L362.049 57.784C361.505 57.944 360.985 58.056 360.489 58.12C359.993 58.2 359.481 58.24 358.953 58.24ZM370.754 58.24C368.514 58.24 366.786 57.68 365.57 56.56C364.37 55.44 363.77 53.84 363.77 51.76C363.77 49.744 364.322 48.16 365.426 47.008C366.53 45.856 368.05 45.28 369.986 45.28C371.858 45.28 373.298 45.824 374.306 46.912C375.33 48 375.842 49.544 375.842 51.544C375.842 51.768 375.834 52.024 375.818 52.312C375.818 52.6 375.81 52.816 375.794 52.96H365.618V50.68H373.226L372.77 51.376C372.77 50.128 372.538 49.2 372.074 48.592C371.626 47.984 370.93 47.68 369.986 47.68C368.994 47.68 368.25 48 367.754 48.64C367.258 49.264 367.01 50.2 367.01 51.448V52.408C367.01 53.528 367.306 54.352 367.898 54.88C368.49 55.408 369.394 55.672 370.61 55.672C371.298 55.672 372.026 55.608 372.794 55.48C373.562 55.352 374.242 55.176 374.834 54.952L375.218 57.472C374.626 57.712 373.93 57.896 373.13 58.024C372.346 58.168 371.554 58.24 370.754 58.24ZM376.867 58L380.683 51.736L376.891 45.52H380.491L382.915 50.008H382.963L385.387 45.52H388.987L385.219 51.736L389.035 58H385.435L382.963 53.464H382.915L380.467 58H376.867ZM397.063 58.24C395.559 58.24 394.471 57.936 393.799 57.328C393.143 56.72 392.815 55.72 392.815 54.328V48.088H390.103V45.52H392.815V41.44H396.127V45.52H400.183V48.088H396.127V53.512C396.127 54.264 396.247 54.792 396.487 55.096C396.727 55.384 397.159 55.528 397.783 55.528C398.119 55.528 398.471 55.496 398.839 55.432C399.223 55.368 399.575 55.28 399.895 55.168L400.159 57.784C399.615 57.944 399.095 58.056 398.599 58.12C398.103 58.2 397.591 58.24 397.063 58.24ZM409.562 58V40.48H412.874V46.984H412.922C413.434 46.408 414.01 45.984 414.65 45.712C415.306 45.424 416.066 45.28 416.93 45.28C418.466 45.28 419.586 45.688 420.29 46.504C420.994 47.304 421.338 48.576 421.322 50.32V58H418.034V50.968C418.05 49.928 417.874 49.176 417.506 48.712C417.154 48.232 416.594 47.992 415.826 47.992C415.25 47.992 414.738 48.112 414.29 48.352C413.858 48.576 413.514 48.888 413.258 49.288C413.002 49.688 412.874 50.144 412.874 50.656V58H409.562ZM430.496 58.24C428.256 58.24 426.528 57.68 425.312 56.56C424.112 55.44 423.512 53.84 423.512 51.76C423.512 49.744 424.064 48.16 425.168 47.008C426.272 45.856 427.792 45.28 429.728 45.28C431.6 45.28 433.04 45.824 434.048 46.912C435.072 48 435.584 49.544 435.584 51.544C435.584 51.768 435.576 52.024 435.56 52.312C435.56 52.6 435.552 52.816 435.536 52.96H425.36V50.68H432.968L432.512 51.376C432.512 50.128 432.28 49.2 431.816 48.592C431.368 47.984 430.672 47.68 429.728 47.68C428.736 47.68 427.992 48 427.496 48.64C427 49.264 426.752 50.2 426.752 51.448V52.408C426.752 53.528 427.048 54.352 427.64 54.88C428.232 55.408 429.136 55.672 430.352 55.672C431.04 55.672 431.768 55.608 432.536 55.48C433.304 55.352 433.984 55.176 434.576 54.952L434.96 57.472C434.368 57.712 433.672 57.896 432.872 58.024C432.088 58.168 431.296 58.24 430.496 58.24ZM438.062 58V45.52H441.23L441.254 47.848H441.326C441.742 47.288 442.23 46.824 442.79 46.456C443.366 46.072 443.99 45.784 444.662 45.592C445.35 45.384 446.054 45.28 446.774 45.28V48.088C445.782 48.088 444.878 48.272 444.062 48.64C443.246 49.008 442.598 49.512 442.118 50.152C441.638 50.776 441.398 51.472 441.398 52.24V58H438.062ZM454.332 58.24C452.092 58.24 450.364 57.68 449.148 56.56C447.948 55.44 447.348 53.84 447.348 51.76C447.348 49.744 447.9 48.16 449.004 47.008C450.108 45.856 451.628 45.28 453.564 45.28C455.436 45.28 456.876 45.824 457.884 46.912C458.908 48 459.42 49.544 459.42 51.544C459.42 51.768 459.412 52.024 459.396 52.312C459.396 52.6 459.388 52.816 459.372 52.96H449.196V50.68H456.804L456.348 51.376C456.348 50.128 456.116 49.2 455.652 48.592C455.204 47.984 454.508 47.68 453.564 47.68C452.572 47.68 451.828 48 451.332 48.64C450.836 49.264 450.588 50.2 450.588 51.448V52.408C450.588 53.528 450.884 54.352 451.476 54.88C452.068 55.408 452.972 55.672 454.188 55.672C454.876 55.672 455.604 55.608 456.372 55.48C457.14 55.352 457.82 55.176 458.412 54.952L458.796 57.472C458.204 57.712 457.508 57.896 456.708 58.024C455.924 58.168 455.132 58.24 454.332 58.24ZM461.649 58V54.328H465.321V58H461.649ZM469.243 58V54.328H472.915V58H469.243ZM476.837 58V54.328H480.509V58H476.837Z" fill="#343434"/>
<path d="M192.545 28L190.197 33.125L185.091 35.4545L190.197 37.8027L192.545 42.9091L194.875 37.8027L200 35.4545L194.875 33.125M173.909 33.5909L169.25 43.8409L159 48.5L169.25 53.1591L173.909 63.4091L178.568 53.1591L188.818 48.5L178.568 43.8409M192.545 54.0909L190.197 59.1973L185.091 61.5455L190.197 63.875L192.545 69L194.875 63.875L200 61.5455L194.875 59.1973" fill="#09C2B4"/>
</g>
<defs>
<filter id="filter0_d_685_742" x="0" y="122" width="577" height="128" filterUnits="userSpaceOnUse" color-interpolation-filters="sRGB">
<feFlood flood-opacity="0" result="BackgroundImageFix"/>
<feColorMatrix in="SourceAlpha" type="matrix" values="0 0 0 0 0 0 0 0 0 0 0 0 0 0 0 0 0 0 127 0" result="hardAlpha"/>
<feOffset dy="4"/>
<feGaussianBlur stdDeviation="6"/>
<feColorMatrix type="matrix" values="0 0 0 0 0 0 0 0 0 0 0 0 0 0 0 0 0 0 0.05 0"/>
<feBlend mode="normal" in2="BackgroundImageFix" result="effect1_dropShadow_685_742"/>
<feBlend mode="normal" in="SourceGraphic" in2="effect1_dropShadow_685_742" result="shape"/>
</filter>
<filter id="filter1_b_685_742" x="-63" y="55" width="703" height="233" filterUnits="userSpaceOnUse" color-interpolation-filters="sRGB">
<feFlood flood-opacity="0" result="BackgroundImageFix"/>
<feGaussianBlur in="BackgroundImageFix" stdDeviation="37.5"/>
<feComposite in2="SourceAlpha" operator="in" result="effect1_backgroundBlur_685_742"/>
<feBlend mode="normal" in="SourceGraphic" in2="effect1_backgroundBlur_685_742" result="shape"/>
</filter>
<filter id="filter2_d_685_742" x="118" y="0" width="577" height="128" filterUnits="userSpaceOnUse" color-interpolation-filters="sRGB">
<feFlood flood-opacity="0" result="BackgroundImageFix"/>
<feColorMatrix in="SourceAlpha" type="matrix" values="0 0 0 0 0 0 0 0 0 0 0 0 0 0 0 0 0 0 127 0" result="hardAlpha"/>
<feOffset dy="4"/>
<feGaussianBlur stdDeviation="6"/>
<feColorMatrix type="matrix" values="0 0 0 0 0 0 0 0 0 0 0 0 0 0 0 0 0 0 0.05 0"/>
<feBlend mode="normal" in2="BackgroundImageFix" result="effect1_dropShadow_685_742"/>
<feBlend mode="normal" in="SourceGraphic" in2="effect1_dropShadow_685_742" result="shape"/>
</filter>
<filter id="filter3_b_685_742" x="55" y="-67" width="703" height="233" filterUnits="userSpaceOnUse" color-interpolation-filters="sRGB">
<feFlood flood-opacity="0" result="BackgroundImageFix"/>
<feGaussianBlur in="BackgroundImageFix" stdDeviation="37.5"/>
<feComposite in2="SourceAlpha" operator="in" result="effect1_backgroundBlur_685_742"/>
<feBlend mode="normal" in="SourceGraphic" in2="effect1_backgroundBlur_685_742" result="shape"/>
</filter>
</defs>
</svg>
