<svg width="524" height="112" viewBox="0 0 524 112" fill="none" xmlns="http://www.w3.org/2000/svg">
<g filter="url(#filter0_d_808_5435)">
<rect x="25" y="21" width="474" height="62" rx="15" fill="white" shape-rendering="crispEdges"/>
<g clip-path="url(#clip0_808_5435)">
<path fill-rule="evenodd" clip-rule="evenodd" d="M61.3064 34.1104C62.4109 34.1104 63.3064 35.0058 63.3064 36.1104V37.8401H63.9418C65.933 36.9932 68.1238 36.5247 70.4241 36.5247C79.579 36.5247 87.0005 43.9462 87.0005 53.1011C87.0005 62.256 79.579 69.6776 70.4241 69.6776C61.2692 69.6776 53.8477 62.256 53.8477 53.1011C53.8477 48.7534 55.5215 44.7966 58.2598 41.8401H57.163C56.0584 41.8401 55.163 40.9446 55.163 39.8401C55.163 38.7355 56.0584 37.8401 57.163 37.8401H59.3064V36.1104C59.3064 35.0058 60.2018 34.1104 61.3064 34.1104Z" fill="#10124C"/>
<rect x="60.0859" y="42.7412" width="25.8103" height="11.292" rx="5.64601" transform="rotate(15 60.0859 42.7412)" fill="#1EBAAF"/>
<path fill-rule="evenodd" clip-rule="evenodd" d="M75.7671 52.2888C75.6129 52.3789 75.5002 52.5268 75.4538 52.7001C75.4073 52.8734 75.431 53.0579 75.5195 53.2131L77.3022 56.3347C77.391 56.4899 77.5374 56.6029 77.7093 56.6489C77.8812 56.695 78.0645 56.6702 78.2189 56.5801C78.3733 56.4899 78.4861 56.3418 78.5326 56.1684C78.579 55.9949 78.5553 55.8103 78.4665 55.6551L77.0177 53.1192L79.5404 51.6475C79.6915 51.5558 79.8012 51.4082 79.8457 51.2364C79.8903 51.0645 79.8662 50.8822 79.7786 50.7287C79.691 50.5752 79.5469 50.4628 79.3774 50.4157C79.2079 50.3686 79.0265 50.3906 78.8723 50.4769L75.7668 52.2882L75.7671 52.2888Z" fill="#343434"/>
<path fill-rule="evenodd" clip-rule="evenodd" d="M67.1414 49.8305C67.2389 50.0014 67.2649 50.2046 67.2137 50.3954C67.1626 50.5863 67.0385 50.7492 66.8686 50.8485L63.4494 52.8441C63.2793 52.9432 63.0774 52.9704 62.8881 52.9196C62.6988 52.8689 62.5376 52.7443 62.4399 52.5733C62.3423 52.4023 62.3162 52.199 62.3675 52.008C62.4187 51.8169 62.543 51.6539 62.7131 51.5547L65.4914 49.9339L63.8957 47.1411C63.802 46.9705 63.7788 46.7693 63.8309 46.5809C63.883 46.3925 64.0064 46.2319 64.1745 46.1337C64.3426 46.0355 64.5419 46.0077 64.7295 46.0561C64.9171 46.1045 65.078 46.2253 65.1775 46.3926L67.142 49.8302L67.1414 49.8305Z" fill="#343434"/>
</g>
<path d="M112.578 62.034C111.594 62.034 110.682 61.866 109.842 61.53C109.014 61.206 108.294 60.738 107.682 60.126C107.082 59.526 106.614 58.818 106.278 58.002C105.942 57.186 105.774 56.292 105.774 55.32C105.774 54.348 105.942 53.454 106.278 52.638C106.614 51.81 107.082 51.096 107.682 50.496C108.294 49.896 109.014 49.434 109.842 49.11C110.682 48.774 111.594 48.606 112.578 48.606C113.574 48.606 114.48 48.774 115.296 49.11C116.124 49.434 116.844 49.896 117.456 50.496C118.068 51.096 118.536 51.804 118.86 52.62C119.196 53.436 119.364 54.336 119.364 55.32C119.364 56.58 119.094 57.696 118.554 58.668H114L113.982 57.786H113.946C113.682 58.122 113.364 58.38 112.992 58.56C112.62 58.74 112.206 58.83 111.75 58.83C110.874 58.83 110.184 58.518 109.68 57.894C109.176 57.27 108.924 56.412 108.924 55.32C108.924 54.228 109.176 53.37 109.68 52.746C110.184 52.122 110.874 51.81 111.75 51.81C112.206 51.81 112.62 51.9 112.992 52.08C113.364 52.248 113.682 52.506 113.946 52.854H113.982L114 51.774H115.872V57.228H118.23L117.204 57.876C117.408 57.528 117.564 57.138 117.672 56.706C117.78 56.262 117.834 55.8 117.834 55.32C117.834 54.276 117.612 53.364 117.168 52.584C116.724 51.792 116.106 51.174 115.314 50.73C114.534 50.274 113.622 50.046 112.578 50.046C111.546 50.046 110.628 50.274 109.824 50.73C109.032 51.174 108.414 51.792 107.97 52.584C107.526 53.376 107.304 54.288 107.304 55.32C107.304 56.352 107.526 57.264 107.97 58.056C108.414 58.848 109.032 59.472 109.824 59.928C110.628 60.372 111.546 60.594 112.578 60.594C113.226 60.594 113.832 60.498 114.396 60.306C114.972 60.114 115.482 59.844 115.926 59.496L116.826 60.648C116.25 61.092 115.602 61.434 114.882 61.674C114.162 61.914 113.394 62.034 112.578 62.034ZM112.398 57.3C112.878 57.3 113.25 57.138 113.514 56.814C113.79 56.478 113.928 56.028 113.928 55.464V55.176C113.928 54.612 113.79 54.168 113.514 53.844C113.25 53.508 112.878 53.34 112.398 53.34C111.918 53.34 111.54 53.514 111.264 53.862C111 54.198 110.868 54.684 110.868 55.32C110.868 55.956 111 56.448 111.264 56.796C111.54 57.132 111.918 57.3 112.398 57.3ZM120.193 60L124.981 46.86H127.663L132.433 60H130.255L126.331 48.552H126.295L122.371 60H120.193ZM122.677 56.706V54.906H129.967V56.706H122.677ZM137.36 60.18C136.94 60.18 136.502 60.15 136.046 60.09C135.602 60.042 135.176 59.97 134.768 59.874C134.36 59.766 134 59.646 133.688 59.514L133.958 57.93C134.486 58.122 135.02 58.278 135.56 58.398C136.1 58.506 136.634 58.56 137.162 58.56C137.858 58.56 138.374 58.464 138.71 58.272C139.058 58.068 139.232 57.768 139.232 57.372C139.232 57.144 139.172 56.958 139.052 56.814C138.932 56.658 138.722 56.52 138.422 56.4C138.122 56.268 137.708 56.142 137.18 56.022C136.46 55.842 135.83 55.632 135.29 55.392C134.762 55.152 134.354 54.846 134.066 54.474C133.778 54.102 133.634 53.634 133.634 53.07C133.634 52.218 133.958 51.57 134.606 51.126C135.266 50.682 136.214 50.46 137.45 50.46C138.026 50.46 138.614 50.508 139.214 50.604C139.826 50.7 140.384 50.838 140.888 51.018L140.6 52.602C140.12 52.422 139.634 52.29 139.142 52.206C138.662 52.122 138.176 52.08 137.684 52.08C136.976 52.08 136.448 52.17 136.1 52.35C135.764 52.518 135.596 52.776 135.596 53.124C135.596 53.328 135.65 53.502 135.758 53.646C135.878 53.79 136.082 53.922 136.37 54.042C136.658 54.162 137.06 54.282 137.576 54.402C138.104 54.522 138.584 54.666 139.016 54.834C139.46 55.002 139.844 55.206 140.168 55.446C140.492 55.674 140.744 55.95 140.924 56.274C141.104 56.598 141.194 56.982 141.194 57.426C141.194 58.002 141.038 58.494 140.726 58.902C140.426 59.31 139.988 59.628 139.412 59.856C138.848 60.072 138.164 60.18 137.36 60.18ZM143.282 60V46.86H145.244V54.492H145.28L149.402 50.64H151.904L146.954 55.14L152.102 60H149.6L145.28 55.77H145.244V60H143.282ZM167.189 60V46.86H169.169V60H167.189ZM159.089 60V46.86H161.069V60H159.089ZM160.079 54.024V52.224H168.179V54.024H160.079ZM176.467 60.18C174.847 60.18 173.599 59.76 172.723 58.92C171.847 58.08 171.409 56.88 171.409 55.32C171.409 53.808 171.811 52.62 172.615 51.756C173.431 50.892 174.547 50.46 175.963 50.46C177.331 50.46 178.381 50.868 179.113 51.684C179.857 52.5 180.229 53.658 180.229 55.158C180.229 55.314 180.223 55.488 180.211 55.68C180.211 55.872 180.205 56.022 180.193 56.13H172.489V54.6H178.717L178.411 55.068C178.411 54.048 178.207 53.292 177.799 52.8C177.391 52.296 176.779 52.044 175.963 52.044C175.099 52.044 174.439 52.308 173.983 52.836C173.539 53.364 173.317 54.132 173.317 55.14V55.68C173.317 56.652 173.569 57.378 174.073 57.858C174.589 58.326 175.363 58.56 176.395 58.56C176.899 58.56 177.433 58.512 177.997 58.416C178.573 58.308 179.083 58.17 179.527 58.002L179.779 59.568C179.323 59.76 178.801 59.91 178.213 60.018C177.637 60.126 177.055 60.18 176.467 60.18ZM183.082 63.78L184.702 59.91L180.958 50.658L183.046 50.64L185.656 57.876H185.692L188.41 50.64H190.498L185.134 63.78H183.082ZM197.019 60V46.86H200.907C203.235 46.86 204.945 47.394 206.037 48.462C207.141 49.53 207.693 51.186 207.693 53.43C207.693 55.674 207.141 57.33 206.037 58.398C204.945 59.466 203.235 60 200.907 60H197.019ZM201.069 57.84C202.041 57.84 202.821 57.696 203.409 57.408C203.997 57.108 204.429 56.634 204.705 55.986C204.981 55.338 205.119 54.486 205.119 53.43C205.119 52.362 204.981 51.51 204.705 50.874C204.429 50.226 203.997 49.758 203.409 49.47C202.821 49.17 202.041 49.02 201.069 49.02H199.539V57.84H201.069ZM209.781 60V46.86H218.709V49.002H212.301V52.134H218.349V54.204H212.301V57.858H218.709V60H209.781ZM224.5 60L220.036 46.86H222.808L226.138 57.48H226.174L229.504 46.86H232.276L227.794 60H224.5Z" fill="#09C2B4"/>
<rect x="25.5" y="21.5" width="473" height="61" rx="14.5" stroke="#D1D6DC" shape-rendering="crispEdges"/>
</g>
<defs>
<filter id="filter0_d_808_5435" x="0" y="0" width="524" height="112" filterUnits="userSpaceOnUse" color-interpolation-filters="sRGB">
<feFlood flood-opacity="0" result="BackgroundImageFix"/>
<feColorMatrix in="SourceAlpha" type="matrix" values="0 0 0 0 0 0 0 0 0 0 0 0 0 0 0 0 0 0 127 0" result="hardAlpha"/>
<feOffset dy="4"/>
<feGaussianBlur stdDeviation="12.5"/>
<feComposite in2="hardAlpha" operator="out"/>
<feColorMatrix type="matrix" values="0 0 0 0 0.459773 0 0 0 0 0.879948 0 0 0 0 0.848151 0 0 0 0.43 0"/>
<feBlend mode="normal" in2="BackgroundImageFix" result="effect1_dropShadow_808_5435"/>
<feBlend mode="normal" in="SourceGraphic" in2="effect1_dropShadow_808_5435" result="shape"/>
</filter>
<clipPath id="clip0_808_5435">
<rect width="34.0005" height="37" fill="white" transform="translate(53 33.5)"/>
</clipPath>
</defs>
</svg>
