<svg width="616" height="439" viewBox="0 0 616 439" fill="none" xmlns="http://www.w3.org/2000/svg">
<g filter="url(#filter0_d_879_21251)">
<rect x="337.732" y="46" width="252.767" height="176.937" rx="15" fill="white"/>
<rect x="338.232" y="46.5" width="251.767" height="175.937" rx="14.5" stroke="url(#paint0_linear_879_21251)"/>
</g>
<path d="M378.86 192L373.32 177.4H375.08L379.9 190.42H379.94L384.76 177.4H386.52L380.98 192H378.86ZM388.512 179.26V177.4H390.372V179.26H388.512ZM388.652 192V181.6H390.252V192H388.652ZM397.058 192.2C396.605 192.2 396.138 192.167 395.658 192.1C395.178 192.047 394.718 191.967 394.278 191.86C393.852 191.74 393.472 191.607 393.138 191.46L393.398 190.18C393.932 190.38 394.498 190.547 395.098 190.68C395.712 190.8 396.312 190.86 396.898 190.86C397.778 190.86 398.445 190.72 398.898 190.44C399.352 190.16 399.578 189.74 399.578 189.18C399.578 188.82 399.478 188.533 399.278 188.32C399.078 188.093 398.778 187.907 398.378 187.76C397.992 187.6 397.498 187.453 396.898 187.32C396.178 187.133 395.525 186.92 394.938 186.68C394.365 186.44 393.912 186.127 393.578 185.74C393.258 185.34 393.098 184.827 393.098 184.2C393.098 183.293 393.445 182.6 394.138 182.12C394.845 181.64 395.858 181.4 397.178 181.4C397.805 181.4 398.438 181.453 399.078 181.56C399.732 181.667 400.312 181.82 400.818 182.02L400.538 183.32C400.072 183.12 399.565 182.973 399.018 182.88C398.472 182.787 397.918 182.74 397.358 182.74C396.465 182.74 395.792 182.867 395.338 183.12C394.898 183.373 394.678 183.747 394.678 184.24C394.678 184.573 394.772 184.84 394.958 185.04C395.145 185.24 395.425 185.413 395.798 185.56C396.172 185.707 396.645 185.847 397.218 185.98C397.765 186.1 398.272 186.247 398.738 186.42C399.218 186.593 399.638 186.8 399.998 187.04C400.358 187.28 400.638 187.58 400.838 187.94C401.052 188.3 401.158 188.727 401.158 189.22C401.158 189.847 400.992 190.38 400.658 190.82C400.338 191.26 399.872 191.6 399.258 191.84C398.645 192.08 397.912 192.2 397.058 192.2ZM406.964 192.2C405.724 192.2 404.811 191.86 404.224 191.18C403.651 190.487 403.364 189.427 403.364 188V181.6H404.944V187.72C404.944 188.8 405.137 189.593 405.524 190.1C405.911 190.607 406.517 190.86 407.344 190.86C407.984 190.86 408.544 190.733 409.024 190.48C409.517 190.213 409.897 189.86 410.164 189.42C410.444 188.967 410.584 188.447 410.584 187.86V181.6H412.164V192H410.644L410.624 190.6H410.584C410.197 191.12 409.697 191.52 409.084 191.8C408.471 192.067 407.764 192.2 406.964 192.2ZM417.94 192.2C416.887 192.2 416.053 191.92 415.44 191.36C414.827 190.787 414.52 190.02 414.52 189.06C414.52 187.86 415.007 186.94 415.98 186.3C416.953 185.647 418.347 185.32 420.16 185.32H421.82C421.82 184.653 421.74 184.133 421.58 183.76C421.42 183.387 421.153 183.127 420.78 182.98C420.407 182.82 419.887 182.74 419.22 182.74C418.553 182.74 417.873 182.807 417.18 182.94C416.5 183.073 415.847 183.273 415.22 183.54L414.94 182.26C415.607 181.98 416.32 181.767 417.08 181.62C417.853 181.473 418.633 181.4 419.42 181.4C420.42 181.4 421.207 181.527 421.78 181.78C422.353 182.033 422.767 182.46 423.02 183.06C423.273 183.66 423.4 184.46 423.4 185.46V192H421.88L421.86 190.58H421.82C421.473 191.06 420.933 191.453 420.2 191.76C419.48 192.053 418.727 192.2 417.94 192.2ZM418.44 190.9C419.067 190.9 419.633 190.78 420.14 190.54C420.66 190.3 421.067 189.98 421.36 189.58C421.667 189.167 421.82 188.713 421.82 188.22V186.54H420.36C418.947 186.54 417.88 186.747 417.16 187.16C416.44 187.56 416.08 188.147 416.08 188.92C416.08 189.533 416.287 190.02 416.7 190.38C417.113 190.727 417.693 190.9 418.44 190.9ZM426.618 192V177.4H428.218V192H426.618ZM441.953 192.2C441.073 192.2 440.186 192.107 439.293 191.92C438.413 191.733 437.666 191.48 437.053 191.16L437.493 189.72C437.906 189.92 438.366 190.1 438.873 190.26C439.393 190.407 439.926 190.527 440.473 190.62C441.019 190.7 441.546 190.74 442.053 190.74C443.226 190.74 444.126 190.513 444.753 190.06C445.393 189.607 445.713 188.967 445.713 188.14C445.713 187.673 445.613 187.287 445.413 186.98C445.226 186.66 444.953 186.4 444.593 186.2C444.233 185.987 443.799 185.8 443.293 185.64C442.799 185.48 442.259 185.32 441.673 185.16C441.033 184.987 440.439 184.793 439.893 184.58C439.346 184.353 438.859 184.087 438.433 183.78C438.019 183.46 437.693 183.08 437.453 182.64C437.226 182.187 437.113 181.647 437.113 181.02C437.113 179.793 437.573 178.853 438.493 178.2C439.413 177.533 440.706 177.2 442.373 177.2C443.226 177.2 444.073 177.287 444.913 177.46C445.766 177.62 446.479 177.84 447.053 178.12L446.613 179.56C446.053 179.293 445.393 179.08 444.633 178.92C443.873 178.747 443.113 178.66 442.353 178.66C441.193 178.66 440.306 178.867 439.693 179.28C439.079 179.693 438.773 180.28 438.773 181.04C438.773 181.48 438.866 181.847 439.053 182.14C439.239 182.433 439.499 182.68 439.833 182.88C440.179 183.08 440.579 183.26 441.033 183.42C441.499 183.567 442.019 183.72 442.593 183.88C443.259 184.067 443.879 184.273 444.453 184.5C445.039 184.713 445.546 184.98 445.973 185.3C446.413 185.62 446.759 186.013 447.013 186.48C447.266 186.933 447.393 187.493 447.393 188.16C447.393 189.427 446.913 190.42 445.953 191.14C445.006 191.847 443.673 192.2 441.953 192.2ZM454.026 192.2C452.892 192.2 452.072 191.96 451.566 191.48C451.072 190.987 450.826 190.18 450.826 189.06V182.94H448.286V181.6H450.826V178.2H452.406V181.6H456.266V182.94H452.406V188.66C452.406 189.46 452.546 190.02 452.826 190.34C453.106 190.647 453.606 190.8 454.326 190.8C454.646 190.8 454.952 190.773 455.246 190.72C455.552 190.667 455.839 190.593 456.106 190.5L456.286 191.86C455.886 191.98 455.499 192.067 455.126 192.12C454.766 192.173 454.399 192.2 454.026 192.2ZM462.218 192.2C460.978 192.2 460.064 191.86 459.478 191.18C458.904 190.487 458.618 189.427 458.618 188V181.6H460.198V187.72C460.198 188.8 460.391 189.593 460.778 190.1C461.164 190.607 461.771 190.86 462.598 190.86C463.238 190.86 463.798 190.733 464.278 190.48C464.771 190.213 465.151 189.86 465.418 189.42C465.698 188.967 465.838 188.447 465.838 187.86V181.6H467.418V192H465.898L465.878 190.6H465.838C465.451 191.12 464.951 191.52 464.338 191.8C463.724 192.067 463.018 192.2 462.218 192.2ZM474.374 192.2C472.974 192.2 471.88 191.727 471.094 190.78C470.32 189.82 469.934 188.493 469.934 186.8C469.934 185.107 470.32 183.787 471.094 182.84C471.88 181.88 472.974 181.4 474.374 181.4C475.12 181.4 475.814 181.54 476.454 181.82C477.094 182.1 477.587 182.493 477.934 183H477.974V177.4H479.534V192H478.054L478.034 190.6H477.994C477.634 191.093 477.127 191.487 476.474 191.78C475.82 192.06 475.12 192.2 474.374 192.2ZM474.694 190.86C475.334 190.86 475.894 190.733 476.374 190.48C476.867 190.213 477.254 189.853 477.534 189.4C477.827 188.947 477.974 188.427 477.974 187.84V185.76C477.974 185.173 477.827 184.653 477.534 184.2C477.254 183.747 476.867 183.393 476.374 183.14C475.894 182.873 475.334 182.74 474.694 182.74C473.694 182.74 472.907 183.093 472.334 183.8C471.774 184.493 471.494 185.493 471.494 186.8C471.494 188.107 471.774 189.113 472.334 189.82C472.907 190.513 473.694 190.86 474.694 190.86ZM483.102 179.26V177.4H484.962V179.26H483.102ZM483.242 192V181.6H484.842V192H483.242ZM492.748 192.2C491.148 192.2 489.901 191.727 489.008 190.78C488.128 189.833 487.688 188.507 487.688 186.8C487.688 185.093 488.128 183.767 489.008 182.82C489.901 181.873 491.148 181.4 492.748 181.4C494.348 181.4 495.588 181.873 496.468 182.82C497.361 183.767 497.808 185.093 497.808 186.8C497.808 188.507 497.361 189.833 496.468 190.78C495.588 191.727 494.348 192.2 492.748 192.2ZM492.748 190.86C493.868 190.86 494.728 190.513 495.328 189.82C495.941 189.113 496.248 188.107 496.248 186.8C496.248 185.493 495.941 184.493 495.328 183.8C494.728 183.093 493.868 182.74 492.748 182.74C491.641 182.74 490.781 183.093 490.168 183.8C489.555 184.493 489.248 185.493 489.248 186.8C489.248 188.107 489.555 189.113 490.168 189.82C490.781 190.513 491.641 190.86 492.748 190.86ZM512.866 192.2C511.333 192.2 510 191.9 508.866 191.3C507.733 190.687 506.86 189.82 506.246 188.7C505.646 187.58 505.346 186.247 505.346 184.7C505.346 183.153 505.646 181.82 506.246 180.7C506.86 179.58 507.733 178.72 508.866 178.12C510 177.507 511.333 177.2 512.866 177.2C514.653 177.2 516.233 177.613 517.606 178.44L517.186 179.86C515.853 179.06 514.433 178.66 512.926 178.66C511.713 178.66 510.66 178.907 509.766 179.4C508.886 179.893 508.206 180.593 507.726 181.5C507.246 182.393 507.006 183.46 507.006 184.7C507.006 185.927 507.246 186.993 507.726 187.9C508.206 188.807 508.886 189.507 509.766 190C510.66 190.493 511.713 190.74 512.926 190.74C514.406 190.74 515.826 190.34 517.186 189.54L517.606 190.96C516.233 191.787 514.653 192.2 512.866 192.2ZM524.193 192.2C522.593 192.2 521.347 191.727 520.453 190.78C519.573 189.833 519.133 188.507 519.133 186.8C519.133 185.093 519.573 183.767 520.453 182.82C521.347 181.873 522.593 181.4 524.193 181.4C525.793 181.4 527.033 181.873 527.913 182.82C528.807 183.767 529.253 185.093 529.253 186.8C529.253 188.507 528.807 189.833 527.913 190.78C527.033 191.727 525.793 192.2 524.193 192.2ZM524.193 190.86C525.313 190.86 526.173 190.513 526.773 189.82C527.387 189.113 527.693 188.107 527.693 186.8C527.693 185.493 527.387 184.493 526.773 183.8C526.173 183.093 525.313 182.74 524.193 182.74C523.087 182.74 522.227 183.093 521.613 183.8C521 184.493 520.693 185.493 520.693 186.8C520.693 188.107 521 189.113 521.613 189.82C522.227 190.513 523.087 190.86 524.193 190.86ZM535.487 192.2C534.087 192.2 532.994 191.727 532.207 190.78C531.434 189.82 531.047 188.493 531.047 186.8C531.047 185.107 531.434 183.787 532.207 182.84C532.994 181.88 534.087 181.4 535.487 181.4C536.234 181.4 536.927 181.54 537.567 181.82C538.207 182.1 538.7 182.493 539.047 183H539.087V177.4H540.647V192H539.167L539.147 190.6H539.107C538.747 191.093 538.24 191.487 537.587 191.78C536.934 192.06 536.234 192.2 535.487 192.2ZM535.807 190.86C536.447 190.86 537.007 190.733 537.487 190.48C537.98 190.213 538.367 189.853 538.647 189.4C538.94 188.947 539.087 188.427 539.087 187.84V185.76C539.087 185.173 538.94 184.653 538.647 184.2C538.367 183.747 537.98 183.393 537.487 183.14C537.007 182.873 536.447 182.74 535.807 182.74C534.807 182.74 534.02 183.093 533.447 183.8C532.887 184.493 532.607 185.493 532.607 186.8C532.607 188.107 532.887 189.113 533.447 189.82C534.02 190.513 534.807 190.86 535.807 190.86ZM548.635 192.2C546.902 192.2 545.562 191.733 544.615 190.8C543.682 189.867 543.215 188.533 543.215 186.8C543.215 185.12 543.649 183.8 544.515 182.84C545.395 181.88 546.609 181.4 548.155 181.4C549.635 181.4 550.769 181.853 551.555 182.76C552.342 183.653 552.735 184.94 552.735 186.62C552.735 186.753 552.735 186.893 552.735 187.04C552.735 187.187 552.729 187.313 552.715 187.42H544.075V186.14H551.555L551.255 186.56C551.255 185.267 550.995 184.3 550.475 183.66C549.955 183.02 549.182 182.7 548.155 182.7C547.062 182.7 546.222 183.047 545.635 183.74C545.049 184.42 544.755 185.393 544.755 186.66V187.06C544.755 188.327 545.075 189.28 545.715 189.92C546.369 190.547 547.322 190.86 548.575 190.86C549.149 190.86 549.742 190.8 550.355 190.68C550.982 190.56 551.542 190.4 552.035 190.2L552.275 191.48C551.769 191.707 551.195 191.88 550.555 192C549.915 192.133 549.275 192.2 548.635 192.2Z" fill="#343434"/>
<g opacity="0.4" filter="url(#filter1_d_879_21251)">
<rect width="252.767" height="176.937" rx="15" transform="matrix(1 0 0 -1 337.732 409.937)" fill="url(#paint1_linear_879_21251)"/>
</g>
<g opacity="0.4" filter="url(#filter2_d_879_21251)">
<rect width="252.767" height="176.937" rx="15" transform="matrix(1 0 0 -1 50 409.937)" fill="url(#paint2_linear_879_21251)"/>
</g>
<g filter="url(#filter3_d_879_21251)">
<rect x="50" y="46" width="252.767" height="176.937" rx="15" fill="white"/>
<rect x="50.5" y="46.5" width="251.767" height="175.937" rx="14.5" stroke="url(#paint3_linear_879_21251)"/>
</g>
<path d="M145.576 201.719C143.772 201.719 142.218 201.389 140.912 200.729C139.622 200.069 138.624 199.123 137.92 197.891C137.231 196.659 136.886 195.185 136.886 193.469C136.886 191.753 137.231 190.279 137.92 189.047C138.61 187.815 139.592 186.869 140.868 186.209C142.144 185.549 143.67 185.219 145.444 185.219C146.412 185.219 147.336 185.329 148.216 185.549C149.096 185.754 149.881 186.07 150.57 186.495L149.998 188.585C149.368 188.204 148.656 187.918 147.864 187.727C147.072 187.522 146.266 187.419 145.444 187.419C144.198 187.419 143.127 187.661 142.232 188.145C141.352 188.614 140.67 189.304 140.186 190.213C139.717 191.108 139.482 192.193 139.482 193.469C139.482 194.745 139.717 195.838 140.186 196.747C140.67 197.642 141.367 198.331 142.276 198.815C143.186 199.284 144.286 199.519 145.576 199.519C146.266 199.519 146.94 199.453 147.6 199.321C148.26 199.174 148.847 198.969 149.36 198.705L148.986 199.563V194.305H143.596V192.237H151.406V200.465C150.629 200.861 149.72 201.169 148.678 201.389C147.652 201.609 146.618 201.719 145.576 201.719ZM154.869 187.859V185.439H157.289V187.859H154.869ZM154.869 201.499V190.059H157.289V201.499H154.869ZM165.919 201.719C164.599 201.719 163.646 201.448 163.059 200.905C162.487 200.348 162.201 199.446 162.201 198.199V192.039H159.561V190.059H162.201V186.319H164.599V190.059H168.581V192.039H164.599V197.539C164.599 198.316 164.731 198.859 164.995 199.167C165.259 199.475 165.728 199.629 166.403 199.629C166.74 199.629 167.078 199.6 167.415 199.541C167.767 199.482 168.082 199.402 168.361 199.299L168.581 201.323C168.112 201.47 167.657 201.572 167.217 201.631C166.792 201.69 166.359 201.719 165.919 201.719ZM187.607 201.499V185.439H190.027V201.499H187.607ZM177.707 201.499V185.439H180.127V201.499H177.707ZM178.917 194.195V191.995H188.817V194.195H178.917ZM197.275 201.719C195.897 201.719 194.885 201.345 194.239 200.597C193.594 199.849 193.271 198.683 193.271 197.099V190.059H195.647V196.659C195.647 197.715 195.823 198.492 196.175 198.991C196.542 199.49 197.129 199.739 197.935 199.739C198.537 199.739 199.065 199.614 199.519 199.365C199.989 199.116 200.355 198.778 200.619 198.353C200.883 197.913 201.015 197.422 201.015 196.879V190.059H203.391V201.499H201.125L201.103 200.135H201.059C200.605 200.663 200.069 201.059 199.453 201.323C198.837 201.587 198.111 201.719 197.275 201.719ZM212.887 201.719C212.11 201.719 211.391 201.58 210.731 201.301C210.071 201.022 209.528 200.634 209.103 200.135H209.059L209.037 201.499H206.771V185.439H209.147V191.423H209.191C209.602 190.91 210.13 190.521 210.775 190.257C211.42 189.978 212.124 189.839 212.887 189.839C214.412 189.839 215.608 190.367 216.473 191.423C217.338 192.464 217.771 193.916 217.771 195.779C217.771 197.642 217.338 199.101 216.473 200.157C215.608 201.198 214.412 201.719 212.887 201.719ZM212.337 199.739C213.334 199.739 214.097 199.394 214.625 198.705C215.168 198.016 215.439 197.04 215.439 195.779C215.439 194.518 215.168 193.542 214.625 192.853C214.097 192.164 213.334 191.819 212.337 191.819C211.736 191.819 211.193 191.944 210.709 192.193C210.225 192.442 209.844 192.787 209.565 193.227C209.286 193.652 209.147 194.144 209.147 194.701V196.857C209.147 197.4 209.286 197.891 209.565 198.331C209.844 198.771 210.225 199.116 210.709 199.365C211.193 199.614 211.736 199.739 212.337 199.739Z" fill="#424242"/>
<circle cx="176.383" cy="115.677" r="50.5534" fill="#F4F4F4"/>
<g clip-path="url(#clip0_879_21251)">
<path d="M176.383 75.0146C153.917 75.0146 135.721 93.2111 135.721 115.677C135.721 133.67 147.36 148.868 163.524 154.256C165.557 154.612 166.319 153.392 166.319 152.324C166.319 151.359 166.268 148.156 166.268 144.751C156.052 146.631 153.409 142.26 152.596 139.973C152.138 138.804 150.156 135.195 148.428 134.229C147.005 133.467 144.971 131.586 148.377 131.536C151.579 131.485 153.866 134.484 154.629 135.703C158.288 141.854 164.134 140.125 166.472 139.058C166.828 136.415 167.895 134.636 169.064 133.619C160.017 132.603 150.563 129.096 150.563 113.542C150.563 109.12 152.138 105.461 154.73 102.614C154.324 101.598 152.901 97.4299 155.137 91.8388C155.137 91.8388 158.543 90.7714 166.319 96.0067C169.572 95.0918 173.029 94.6343 176.485 94.6343C179.941 94.6343 183.397 95.0918 186.65 96.0067C194.427 90.7205 197.833 91.8388 197.833 91.8388C200.069 97.4299 198.646 101.598 198.239 102.614C200.832 105.461 202.407 109.069 202.407 113.542C202.407 129.147 192.902 132.603 183.855 133.619C185.329 134.89 186.6 137.33 186.6 141.142C186.6 146.581 186.549 150.952 186.549 152.324C186.549 153.392 187.311 154.662 189.344 154.256C197.417 151.531 204.432 146.343 209.401 139.423C214.371 132.502 217.044 124.197 217.046 115.677C217.046 93.2111 198.849 75.0146 176.383 75.0146Z" fill="#FF6B6B"/>
</g>
<circle cx="176.383" cy="115.677" r="50.5534" fill="url(#paint4_linear_879_21251)"/>
<g clip-path="url(#clip1_879_21251)">
<path d="M176.383 75.0146C153.917 75.0146 135.721 93.2111 135.721 115.677C135.721 133.67 147.36 148.868 163.524 154.256C165.557 154.612 166.319 153.392 166.319 152.324C166.319 151.359 166.268 148.156 166.268 144.751C156.052 146.631 153.409 142.26 152.596 139.973C152.138 138.804 150.156 135.195 148.428 134.229C147.005 133.467 144.971 131.586 148.377 131.536C151.579 131.485 153.866 134.484 154.629 135.703C158.288 141.854 164.134 140.125 166.472 139.058C166.828 136.415 167.895 134.636 169.064 133.619C160.017 132.603 150.563 129.096 150.563 113.542C150.563 109.12 152.138 105.461 154.73 102.614C154.324 101.598 152.901 97.4299 155.137 91.8388C155.137 91.8388 158.543 90.7714 166.319 96.0067C169.572 95.0918 173.029 94.6343 176.485 94.6343C179.941 94.6343 183.397 95.0918 186.65 96.0067C194.427 90.7205 197.833 91.8388 197.833 91.8388C200.069 97.4299 198.646 101.598 198.239 102.614C200.832 105.461 202.407 109.069 202.407 113.542C202.407 129.147 192.902 132.603 183.855 133.619C185.329 134.89 186.6 137.33 186.6 141.142C186.6 146.581 186.549 150.952 186.549 152.324C186.549 153.392 187.311 154.662 189.344 154.256C197.417 151.531 204.432 146.344 209.401 139.423C214.371 132.502 217.044 124.197 217.046 115.677C217.046 93.2111 198.849 75.0146 176.383 75.0146Z" fill="url(#paint5_linear_879_21251)"/>
</g>
<g clip-path="url(#clip2_879_21251)">
<path opacity="0.65" d="M175.553 361.216C153.087 361.216 134.891 343.019 134.891 320.553C134.891 302.56 146.53 287.363 162.694 281.975C164.727 281.619 165.489 282.839 165.489 283.906C165.489 284.872 165.438 288.074 165.438 291.48C155.222 289.599 152.579 293.97 151.766 296.257C151.308 297.427 149.326 301.035 147.598 302.001C146.174 302.763 144.141 304.644 147.547 304.695C150.749 304.746 153.036 301.747 153.799 300.527C157.458 294.377 163.304 296.105 165.642 297.172C165.997 299.815 167.065 301.594 168.234 302.611C159.186 303.628 149.732 307.135 149.732 322.688C149.732 327.11 151.308 330.77 153.9 333.616C153.494 334.633 152.071 338.801 154.307 344.392C154.307 344.392 157.712 345.459 165.489 340.224C168.742 341.139 172.198 341.596 175.655 341.596C179.111 341.596 182.567 341.139 185.82 340.224C193.597 345.51 197.003 344.392 197.003 344.392C199.239 338.801 197.816 334.633 197.409 333.616C200.001 330.77 201.577 327.161 201.577 322.688C201.577 307.084 192.072 303.628 183.025 302.611C184.499 301.34 185.77 298.901 185.77 295.088C185.77 289.65 185.719 285.279 185.719 283.906C185.719 282.839 186.481 281.568 188.514 281.975C196.587 284.699 203.602 289.887 208.571 296.808C213.541 303.728 216.214 312.033 216.216 320.553C216.216 343.019 198.019 361.216 175.553 361.216Z" fill="url(#paint6_linear_879_21251)"/>
</g>
<g clip-path="url(#clip3_879_21251)">
<path d="M416.76 113.9C416.76 113.9 414.814 112.476 417.15 110.583L422.6 105.656C422.6 105.656 424.157 104 425.807 105.443L476.077 143.916V162.363C476.077 162.363 476.053 165.263 472.377 164.943L416.757 113.896L416.76 113.9Z" fill="url(#paint7_linear_879_21251)"/>
<path d="M429.72 125.79L416.761 137.697C416.761 137.697 415.427 138.697 416.761 140.487L422.777 146.02C422.777 146.02 424.207 147.57 426.317 145.804L440.054 135.277L429.72 125.79ZM452.467 125.887L476.234 107.547L476.077 89.1969C476.077 89.1969 475.06 85.1903 471.677 87.2769L440.054 116.367L452.467 125.887Z" fill="url(#paint8_linear_879_21251)"/>
<path d="M472.486 164.967C473.866 166.393 475.539 165.927 475.539 165.927L494.059 156.703C496.429 155.07 496.096 153.043 496.096 153.043V97.9602C496.096 95.5402 493.646 94.7035 493.646 94.7035L477.592 86.8802C474.086 84.6902 471.789 87.2768 471.789 87.2768C471.789 87.2768 474.742 85.1268 476.189 89.1968V162.03C476.189 162.53 476.082 163.02 475.872 163.463C475.449 164.327 474.532 165.13 472.332 164.797L472.486 164.967Z" fill="url(#paint9_linear_879_21251)"/>
</g>
<g clip-path="url(#clip4_879_21251)">
<path opacity="0.65" d="M416.76 303.9C416.76 303.9 414.814 302.476 417.15 300.583L422.6 295.656C422.6 295.656 424.157 294 425.807 295.443L476.077 333.916V352.363C476.077 352.363 476.053 355.263 472.377 354.943L416.757 303.896L416.76 303.9Z" fill="url(#paint10_linear_879_21251)"/>
<path opacity="0.65" d="M429.72 315.79L416.761 327.697C416.761 327.697 415.427 328.697 416.761 330.487L422.777 336.02C422.777 336.02 424.207 337.57 426.317 335.804L440.054 325.277L429.72 315.79ZM452.467 315.887L476.234 297.547L476.077 279.197C476.077 279.197 475.06 275.19 471.677 277.277L440.054 306.367L452.467 315.887Z" fill="url(#paint11_linear_879_21251)"/>
<path opacity="0.5" d="M472.486 354.967C473.866 356.393 475.539 355.927 475.539 355.927L494.059 346.703C496.429 345.07 496.096 343.043 496.096 343.043V287.96C496.096 285.54 493.646 284.703 493.646 284.703L477.592 276.88C474.086 274.69 471.789 277.277 471.789 277.277C471.789 277.277 474.742 275.127 476.189 279.197V352.03C476.189 352.53 476.082 353.02 475.872 353.463C475.449 354.327 474.532 355.13 472.332 354.797L472.486 354.967Z" fill="url(#paint12_linear_879_21251)"/>
</g>
<defs>
<filter id="filter0_d_879_21251" x="312.732" y="25" width="302.767" height="226.937" filterUnits="userSpaceOnUse" color-interpolation-filters="sRGB">
<feFlood flood-opacity="0" result="BackgroundImageFix"/>
<feColorMatrix in="SourceAlpha" type="matrix" values="0 0 0 0 0 0 0 0 0 0 0 0 0 0 0 0 0 0 127 0" result="hardAlpha"/>
<feOffset dy="4"/>
<feGaussianBlur stdDeviation="12.5"/>
<feComposite in2="hardAlpha" operator="out"/>
<feColorMatrix type="matrix" values="0 0 0 0 0.459773 0 0 0 0 0.879948 0 0 0 0 0.848151 0 0 0 0.43 0"/>
<feBlend mode="normal" in2="BackgroundImageFix" result="effect1_dropShadow_879_21251"/>
<feBlend mode="normal" in="SourceGraphic" in2="effect1_dropShadow_879_21251" result="shape"/>
</filter>
<filter id="filter1_d_879_21251" x="312.732" y="212" width="302.767" height="226.937" filterUnits="userSpaceOnUse" color-interpolation-filters="sRGB">
<feFlood flood-opacity="0" result="BackgroundImageFix"/>
<feColorMatrix in="SourceAlpha" type="matrix" values="0 0 0 0 0 0 0 0 0 0 0 0 0 0 0 0 0 0 127 0" result="hardAlpha"/>
<feOffset dy="4"/>
<feGaussianBlur stdDeviation="12.5"/>
<feComposite in2="hardAlpha" operator="out"/>
<feColorMatrix type="matrix" values="0 0 0 0 0.231373 0 0 0 0 0.407843 0 0 0 0 1 0 0 0 0.1 0"/>
<feBlend mode="normal" in2="BackgroundImageFix" result="effect1_dropShadow_879_21251"/>
<feBlend mode="normal" in="SourceGraphic" in2="effect1_dropShadow_879_21251" result="shape"/>
</filter>
<filter id="filter2_d_879_21251" x="25" y="212" width="302.767" height="226.937" filterUnits="userSpaceOnUse" color-interpolation-filters="sRGB">
<feFlood flood-opacity="0" result="BackgroundImageFix"/>
<feColorMatrix in="SourceAlpha" type="matrix" values="0 0 0 0 0 0 0 0 0 0 0 0 0 0 0 0 0 0 127 0" result="hardAlpha"/>
<feOffset dy="4"/>
<feGaussianBlur stdDeviation="12.5"/>
<feComposite in2="hardAlpha" operator="out"/>
<feColorMatrix type="matrix" values="0 0 0 0 0.231373 0 0 0 0 0.407843 0 0 0 0 1 0 0 0 0.1 0"/>
<feBlend mode="normal" in2="BackgroundImageFix" result="effect1_dropShadow_879_21251"/>
<feBlend mode="normal" in="SourceGraphic" in2="effect1_dropShadow_879_21251" result="shape"/>
</filter>
<filter id="filter3_d_879_21251" x="0" y="0" width="352.767" height="276.937" filterUnits="userSpaceOnUse" color-interpolation-filters="sRGB">
<feFlood flood-opacity="0" result="BackgroundImageFix"/>
<feColorMatrix in="SourceAlpha" type="matrix" values="0 0 0 0 0 0 0 0 0 0 0 0 0 0 0 0 0 0 127 0" result="hardAlpha"/>
<feOffset dy="4"/>
<feGaussianBlur stdDeviation="25"/>
<feComposite in2="hardAlpha" operator="out"/>
<feColorMatrix type="matrix" values="0 0 0 0 0.459773 0 0 0 0 0.879948 0 0 0 0 0.848151 0 0 0 0.43 0"/>
<feBlend mode="normal" in2="BackgroundImageFix" result="effect1_dropShadow_879_21251"/>
<feBlend mode="normal" in="SourceGraphic" in2="effect1_dropShadow_879_21251" result="shape"/>
</filter>
<linearGradient id="paint0_linear_879_21251" x1="617.548" y1="222.937" x2="364.781" y2="-27.8819" gradientUnits="userSpaceOnUse">
<stop stop-color="#D8D8D8" stop-opacity="0.44"/>
<stop offset="1" stop-color="#C9C9C9" stop-opacity="0"/>
</linearGradient>
<linearGradient id="paint1_linear_879_21251" x1="126.383" y1="0" x2="126.383" y2="176.937" gradientUnits="userSpaceOnUse">
<stop stop-color="white"/>
<stop offset="1" stop-color="white"/>
</linearGradient>
<linearGradient id="paint2_linear_879_21251" x1="126.383" y1="0" x2="126.383" y2="176.937" gradientUnits="userSpaceOnUse">
<stop stop-color="white"/>
<stop offset="1" stop-color="white"/>
</linearGradient>
<linearGradient id="paint3_linear_879_21251" x1="329.816" y1="222.937" x2="77.0489" y2="-27.8819" gradientUnits="userSpaceOnUse">
<stop stop-color="#D8D8D8" stop-opacity="0.44"/>
<stop offset="1" stop-color="#C9C9C9" stop-opacity="0"/>
</linearGradient>
<linearGradient id="paint4_linear_879_21251" x1="176.383" y1="65.124" x2="176.383" y2="166.231" gradientUnits="userSpaceOnUse">
<stop stop-color="#C5EBE8" stop-opacity="0"/>
<stop offset="1" stop-color="#E3FFFD"/>
</linearGradient>
<linearGradient id="paint5_linear_879_21251" x1="176.383" y1="75.0146" x2="176.383" y2="154.333" gradientUnits="userSpaceOnUse">
<stop stop-color="#343434"/>
<stop offset="1" stop-color="#A1A1A1"/>
</linearGradient>
<linearGradient id="paint6_linear_879_21251" x1="175.553" y1="361.216" x2="175.553" y2="281.897" gradientUnits="userSpaceOnUse">
<stop stop-opacity="0"/>
<stop offset="1" stop-opacity="0.61"/>
</linearGradient>
<linearGradient id="paint7_linear_879_21251" x1="446.038" y1="104.853" x2="446.038" y2="164.968" gradientUnits="userSpaceOnUse">
<stop stop-opacity="0.38"/>
<stop offset="1" stop-opacity="0"/>
</linearGradient>
<linearGradient id="paint8_linear_879_21251" x1="478.895" y1="86.7897" x2="424.552" y2="144.158" gradientUnits="userSpaceOnUse">
<stop stop-opacity="0.25"/>
<stop offset="1" stop-opacity="0.05"/>
</linearGradient>
<linearGradient id="paint9_linear_879_21251" x1="483.95" y1="86" x2="483.95" y2="166" gradientUnits="userSpaceOnUse">
<stop stop-opacity="0.68"/>
<stop offset="1" stop-opacity="0"/>
</linearGradient>
<linearGradient id="paint10_linear_879_21251" x1="446.038" y1="294.853" x2="446.038" y2="354.968" gradientUnits="userSpaceOnUse">
<stop stop-opacity="0.38"/>
<stop offset="1" stop-opacity="0"/>
</linearGradient>
<linearGradient id="paint11_linear_879_21251" x1="478.895" y1="276.79" x2="424.552" y2="334.158" gradientUnits="userSpaceOnUse">
<stop stop-opacity="0.25"/>
<stop offset="1" stop-opacity="0.05"/>
</linearGradient>
<linearGradient id="paint12_linear_879_21251" x1="483.95" y1="276" x2="483.95" y2="356" gradientUnits="userSpaceOnUse">
<stop stop-opacity="0.68"/>
<stop offset="1" stop-opacity="0"/>
</linearGradient>
<clipPath id="clip0_879_21251">
<rect width="81.325" height="81.325" fill="white" transform="translate(135.721 75.0146)"/>
</clipPath>
<clipPath id="clip1_879_21251">
<rect width="81.325" height="81.325" fill="white" transform="translate(135.721 75.0146)"/>
</clipPath>
<clipPath id="clip2_879_21251">
<rect width="81.325" height="81.325" fill="white" transform="matrix(1 0 0 -1 134.891 361.216)"/>
</clipPath>
<clipPath id="clip3_879_21251">
<rect width="80" height="80" fill="white" transform="translate(416 86)"/>
</clipPath>
<clipPath id="clip4_879_21251">
<rect width="80" height="80" fill="white" transform="translate(416 276)"/>
</clipPath>
</defs>
</svg>
