<svg width="98" height="98" viewBox="0 0 98 98" fill="none" xmlns="http://www.w3.org/2000/svg">
<g clip-path="url(#clip0_365_5182)">
<path d="M48.9991 0.739136C22.335 0.739136 0.738281 22.3359 0.738281 49C0.738281 70.3554 14.553 88.3929 33.7366 94.7875C36.1497 95.2098 37.0546 93.762 37.0546 92.4951C37.0546 91.3489 36.9943 87.5484 36.9943 83.5065C24.8687 85.7386 21.7318 80.5505 20.7665 77.8359C20.2236 76.4484 17.8709 72.1652 15.8198 71.019C14.1307 70.1141 11.7176 67.8821 15.7595 67.8217C19.56 67.7614 22.2747 71.3206 23.1796 72.7685C27.5231 80.0679 34.4606 78.0168 37.2356 76.75C37.6578 73.613 38.9247 71.5016 40.3122 70.2951C29.5742 69.0886 18.3535 64.9261 18.3535 46.4663C18.3535 41.2179 20.2236 36.8745 23.3002 33.4962C22.8176 32.2897 21.1285 27.3429 23.7828 20.7071C23.7828 20.7071 27.8247 19.4402 37.0546 25.6538C40.9155 24.5679 45.0176 24.025 49.1198 24.025C53.222 24.025 57.3242 24.5679 61.185 25.6538C70.4149 19.3799 74.4568 20.7071 74.4568 20.7071C77.1111 27.3429 75.422 32.2897 74.9394 33.4962C78.016 36.8745 79.8861 41.1576 79.8861 46.4663C79.8861 64.9864 68.6051 69.0886 57.8671 70.2951C59.6165 71.8033 61.1247 74.6989 61.1247 79.2234C61.1247 85.6783 61.0644 90.8663 61.0644 92.4951C61.0644 93.762 61.9693 95.2701 64.3823 94.7875C73.9635 91.5539 82.2891 85.3968 88.1871 77.1829C94.0851 68.969 97.2583 59.1121 97.26 49C97.26 22.3359 75.6633 0.739136 48.9991 0.739136Z" fill="black"/>
</g>
<defs>
<clipPath id="clip0_365_5182">
<rect width="96.5217" height="96.5217" fill="white" transform="translate(0.738281 0.739136)"/>
</clipPath>
</defs>
</svg>
