<svg width="290" height="284" viewBox="0 0 290 284" fill="none" xmlns="http://www.w3.org/2000/svg">
<path d="M145 0.302734C64.8875 0.302734 0 65.2256 0 145.382C0 209.579 41.5062 263.803 99.1437 283.026C106.394 284.295 109.113 279.943 109.113 276.134C109.113 272.689 108.931 261.264 108.931 249.113C72.5 255.823 63.075 240.227 60.175 232.067C58.5438 227.896 51.475 215.02 45.3125 211.574C40.2375 208.854 32.9875 202.144 45.1312 201.963C56.55 201.781 64.7063 212.481 67.425 216.833C80.475 238.776 101.319 232.611 109.656 228.802C110.925 219.372 114.731 213.025 118.9 209.398C86.6375 205.771 52.925 193.258 52.925 137.765C52.925 121.988 58.5437 108.931 67.7875 98.7752C66.3375 95.1482 61.2625 80.2776 69.2375 60.3292C69.2375 60.3292 81.3813 56.5209 109.113 75.1998C120.713 71.9355 133.038 70.3034 145.363 70.3034C157.688 70.3034 170.012 71.9355 181.613 75.1998C209.344 56.3395 221.488 60.3292 221.488 60.3292C229.463 80.2776 224.387 95.1482 222.938 98.7752C232.181 108.931 237.8 121.806 237.8 137.765C237.8 193.439 203.906 205.771 171.644 209.398C176.9 213.932 181.431 222.636 181.431 236.238C181.431 255.642 181.25 271.238 181.25 276.134C181.25 279.943 183.969 284.476 191.219 283.026C220.005 273.305 245.02 254.796 262.74 230.104C280.461 205.411 289.995 175.78 290 145.382C290 65.2256 225.113 0.302734 145 0.302734Z" fill="url(#paint0_linear_365_5056)"/>
<defs>
<linearGradient id="paint0_linear_365_5056" x1="145" y1="0.302734" x2="145" y2="283.303" gradientUnits="userSpaceOnUse">
<stop/>
<stop offset="1" stop-opacity="0"/>
</linearGradient>
</defs>
</svg>
