<svg width="514" height="557" viewBox="0 0 514 557" fill="none" xmlns="http://www.w3.org/2000/svg">
<mask id="path-1-inside-1_365_5012" fill="white">
<path d="M458.766 97.5366C467.581 88.7216 467.636 74.3503 458.136 66.2792C419.655 33.5895 372.873 11.8999 322.756 3.75307C265.19 -5.60456 206.139 3.37948 153.96 29.4336C101.781 55.4877 59.1184 97.2923 32.0092 148.931C4.89988 200.569 -5.2825 259.425 2.90317 317.17C11.0888 374.914 37.2279 428.622 77.6209 470.691C118.014 512.76 170.615 541.061 227.979 551.586C285.343 562.112 344.564 554.33 397.262 529.342C443.14 507.587 482.051 473.75 509.93 431.653C516.813 421.26 512.766 407.47 501.848 401.452C490.931 395.434 477.29 399.482 470.244 409.766C447.051 443.617 415.237 470.856 377.919 488.551C333.78 509.482 284.175 516 236.126 507.183C188.078 498.367 144.019 474.662 110.185 439.425C76.3515 404.187 54.4571 359.201 47.6007 310.834C40.7443 262.466 49.2732 213.167 71.9802 169.915C94.6872 126.662 130.422 91.6461 174.128 69.8229C217.833 47.9997 267.295 40.4746 315.513 48.3126C356.278 54.9392 394.409 72.2632 426.096 98.3342C435.723 106.255 449.951 106.352 458.766 97.5366Z"/>
</mask>
<path d="M458.766 97.5366C467.581 88.7216 467.636 74.3503 458.136 66.2792C419.655 33.5895 372.873 11.8999 322.756 3.75307C265.19 -5.60456 206.139 3.37948 153.96 29.4336C101.781 55.4877 59.1184 97.2923 32.0092 148.931C4.89988 200.569 -5.2825 259.425 2.90317 317.17C11.0888 374.914 37.2279 428.622 77.6209 470.691C118.014 512.76 170.615 541.061 227.979 551.586C285.343 562.112 344.564 554.33 397.262 529.342C443.14 507.587 482.051 473.75 509.93 431.653C516.813 421.26 512.766 407.47 501.848 401.452C490.931 395.434 477.29 399.482 470.244 409.766C447.051 443.617 415.237 470.856 377.919 488.551C333.78 509.482 284.175 516 236.126 507.183C188.078 498.367 144.019 474.662 110.185 439.425C76.3515 404.187 54.4571 359.201 47.6007 310.834C40.7443 262.466 49.2732 213.167 71.9802 169.915C94.6872 126.662 130.422 91.6461 174.128 69.8229C217.833 47.9997 267.295 40.4746 315.513 48.3126C356.278 54.9392 394.409 72.2632 426.096 98.3342C435.723 106.255 449.951 106.352 458.766 97.5366Z" stroke="#09C2B4" stroke-width="100" mask="url(#path-1-inside-1_365_5012)"/>
</svg>
