<svg width="44" height="45" viewBox="0 0 44 45" fill="none" xmlns="http://www.w3.org/2000/svg">
<path d="M22.0007 40.636C17.7534 39.5666 14.2469 37.1295 11.481 33.3247C8.7151 29.5199 7.33276 25.2959 7.33399 20.6527V9.46936L22.0007 3.96936L36.6673 9.46936V20.6527C36.6673 25.2971 35.2844 29.5218 32.5185 33.3265C29.7526 37.1313 26.2467 39.5678 22.0007 40.636ZM22.0007 36.786C24.9645 35.8694 27.4395 34.0586 29.4256 31.3539C31.4118 28.6491 32.5729 25.632 32.909 22.3027H22.0007V7.86519L11.0007 11.9902V21.4777C11.0007 21.6916 11.0312 21.9666 11.0923 22.3027H22.0007V36.786Z" fill="#09C2B4"/>
</svg>
