<svg width="50" height="25" viewBox="0 0 50 25" fill="none" xmlns="http://www.w3.org/2000/svg">
<path d="M29 5.30273L22 19.8027" stroke="#09C2B4" stroke-linecap="round"/>
<path fill-rule="evenodd" clip-rule="evenodd" d="M42.0604 11.2428C42.3413 11.524 42.4991 11.9053 42.4991 12.3028C42.4991 12.7003 42.3413 13.0815 42.0604 13.3628L36.4044 19.0208C36.123 19.302 35.7414 19.46 35.3435 19.4599C34.9457 19.4598 34.5641 19.3017 34.2829 19.0203C34.0016 18.7389 33.8437 18.3573 33.8438 17.9594C33.8438 17.5616 34.002 17.18 34.2834 16.8988L38.8794 12.3028L34.2834 7.70677C34.01 7.42399 33.8586 7.04516 33.8619 6.65186C33.8651 6.25856 34.0227 5.88227 34.3007 5.60402C34.5786 5.32578 34.9548 5.16785 35.3481 5.16425C35.7414 5.16065 36.1203 5.31166 36.4034 5.58477L42.0614 11.2418L42.0604 11.2428Z" fill="#09C2B4"/>
<g clip-path="url(#clip0_77_762)">
<path fill-rule="evenodd" clip-rule="evenodd" d="M33.0302 11.7727C33.1706 11.9133 33.2495 12.1039 33.2495 12.3027C33.2495 12.5014 33.1706 12.6921 33.0302 12.8327L30.2022 15.6617C30.0615 15.8023 29.8707 15.8813 29.6718 15.8813C29.4728 15.8812 29.2821 15.8021 29.1414 15.6614C29.0008 15.5207 28.9218 15.3299 28.9219 15.131C28.9219 14.9321 29.001 14.7413 29.1417 14.6007L31.4397 12.3027L29.1417 10.0047C29.005 9.8633 28.9293 9.67389 28.9309 9.47724C28.9325 9.28059 29.0113 9.09244 29.1503 8.95332C29.2893 8.8142 29.4774 8.73523 29.674 8.73343C29.8707 8.73163 30.0602 8.80714 30.2017 8.94369L33.0307 11.7722L33.0302 11.7727Z" fill="#09C2B4"/>
</g>
<path fill-rule="evenodd" clip-rule="evenodd" d="M7.93962 11.2428C7.65872 11.524 7.50094 11.9053 7.50094 12.3028C7.50094 12.7003 7.65872 13.0815 7.93962 13.3628L13.5956 19.0208C13.877 19.302 14.2586 19.46 14.6565 19.4599C15.0543 19.4598 15.4359 19.3017 15.7171 19.0203C15.9984 18.7389 16.1563 18.3573 16.1562 17.9594C16.1562 17.5616 15.998 17.18 15.7166 16.8988L11.1206 12.3028L15.7166 7.70677C15.99 7.42399 16.1414 7.04516 16.1381 6.65186C16.1349 6.25856 15.9773 5.88227 15.6993 5.60402C15.4214 5.32578 15.0452 5.16785 14.6519 5.16425C14.2586 5.16065 13.8797 5.31166 13.5966 5.58477L7.93862 11.2418L7.93962 11.2428Z" fill="#09C2B4"/>
<g clip-path="url(#clip1_77_762)">
<path fill-rule="evenodd" clip-rule="evenodd" d="M16.9698 11.7727C16.8294 11.9133 16.7505 12.1039 16.7505 12.3027C16.7505 12.5014 16.8294 12.6921 16.9698 12.8327L19.7978 15.6617C19.9385 15.8023 20.1293 15.8813 20.3282 15.8813C20.5272 15.8812 20.7179 15.8021 20.8586 15.6614C20.9992 15.5207 21.0782 15.3299 21.0781 15.131C21.0781 14.9321 20.999 14.7413 20.8583 14.6007L18.5603 12.3027L20.8583 10.0047C20.995 9.8633 21.0707 9.67389 21.0691 9.47724C21.0675 9.28059 20.9887 9.09244 20.8497 8.95332C20.7107 8.8142 20.5226 8.73523 20.326 8.73343C20.1293 8.73163 19.9398 8.80714 19.7983 8.94369L16.9693 11.7722L16.9698 11.7727Z" fill="#09C2B4"/>
</g>
<defs>
<clipPath id="clip0_77_762">
<rect width="12" height="12" fill="white" transform="translate(25 6.30273)"/>
</clipPath>
<clipPath id="clip1_77_762">
<rect width="12" height="12" fill="white" transform="matrix(-1 0 0 1 25 6.30273)"/>
</clipPath>
</defs>
</svg>
