<svg width="40" height="38" viewBox="0 0 40 38" fill="none" xmlns="http://www.w3.org/2000/svg">
<g clip-path="url(#clip0_77_796)">
<path d="M7.30906 6.75917H0.460287C0.0175063 6.75917 -0.0111666 6.74267 0.00529167 6.29275C0.0318373 5.5681 -0.0106393 4.82587 0.1343 4.12358C0.531953 2.19614 2.31104 0.804332 4.2786 0.804332C13.428 0.802202 22.5774 0.802202 31.7268 0.804332C34.1111 0.804332 36.0335 2.77437 36.0341 5.21562C36.0362 12.4568 36.0362 19.6981 36.0341 26.9393V31.8458H36.3346C37.4137 31.8458 38.4933 31.8458 39.5731 31.8458C39.9214 31.8458 39.958 31.8836 39.9628 32.2185C39.9724 32.9005 40.0302 33.5858 39.9841 34.2641C39.846 36.2975 38.232 37.7969 36.204 37.7979C28.0279 37.8033 19.8519 37.8033 11.6758 37.7979C9.21716 37.7979 7.31065 35.8662 7.31012 33.3973C7.31012 24.6652 7.31012 15.9332 7.31012 7.2011L7.30906 6.75917ZM7.46461 2.08273C7.49413 2.13041 7.52621 2.17644 7.56071 2.22063C8.31301 3.05763 8.64004 4.04531 8.63951 5.16504C8.63527 14.4721 8.63527 23.7791 8.63951 33.0858C8.63951 33.2807 8.64571 33.4759 8.6581 33.6715C8.75685 35.2598 10.1324 36.4967 11.7464 36.4519C13.3163 36.4083 14.633 35.0569 14.6107 33.4761C14.6054 33.0922 14.5045 32.7073 14.427 32.3266C14.3628 32.0071 14.384 31.9411 14.6972 31.8931C14.9929 31.8479 15.2919 31.7973 15.5897 31.7973C21.8354 31.792 28.081 31.7906 34.3267 31.793H34.6877V31.4773C34.6877 22.676 34.6877 13.8749 34.6877 5.07399C34.686 4.28027 34.3703 3.51966 33.8098 2.95921C33.2494 2.39876 32.4901 2.08429 31.6986 2.08486H7.46621L7.46461 2.08273ZM14.7801 36.4317C14.9192 36.4402 15.0036 36.4503 15.088 36.4503C22.1222 36.4503 29.1565 36.4487 36.1907 36.4455C36.4556 36.4454 36.7189 36.4048 36.9717 36.3252C38.2543 35.9152 38.7996 34.7156 38.5952 33.2014H15.9513C16.0043 34.4281 15.6157 35.4887 14.7801 36.4317ZM1.3331 5.3301H7.3064C7.34463 4.10548 6.88167 3.1556 5.86338 2.52998C4.81324 1.88359 3.72221 1.90276 2.69171 2.58322C1.72492 3.22056 1.28373 4.15233 1.3331 5.3301Z" fill="#09C2B4"/>
<path d="M19.4956 13.4083C19.3804 13.3619 19.314 13.3396 19.2519 13.3087C19.0613 13.2155 18.8723 13.1202 18.6833 13.0244C18.3918 12.8758 18.3732 12.8247 18.5182 12.534C19.1199 11.331 19.7216 10.1286 20.3233 8.92669C21.1625 7.25056 22.0024 5.57461 22.843 3.89883C23.0086 3.56765 23.0585 3.55168 23.3925 3.7178C23.5586 3.80033 23.7248 3.8818 23.8905 3.96592C24.1697 4.10808 24.1979 4.19061 24.0604 4.46482C23.4587 5.66637 22.8559 6.86791 22.2521 8.06946C21.4076 9.75304 20.562 11.4363 19.7154 13.1191C19.6602 13.2278 19.5683 13.3135 19.4956 13.4083Z" fill="#09C2B4"/>
<path d="M20.7097 20.7625C19.3208 20.7625 17.9318 20.7625 16.5426 20.7625C15.9963 20.7625 15.6517 20.3514 15.8035 19.8887C15.8874 19.6321 16.0632 19.4697 16.3345 19.4335C16.4484 19.4192 16.5631 19.4126 16.678 19.4138C19.3849 19.4138 22.0926 19.4138 24.8009 19.4138C24.8895 19.4123 24.9782 19.4158 25.0664 19.4245C25.438 19.466 25.6976 19.7402 25.695 20.0895C25.695 20.427 25.4444 20.7018 25.0881 20.7534C25 20.7631 24.9113 20.7663 24.8227 20.763L20.7097 20.7625Z" fill="#09C2B4"/>
<path d="M15.0864 24.5779C13.9359 24.5779 12.7859 24.5779 11.6354 24.5779C11.1858 24.5779 10.9049 24.3378 10.8842 23.9608C10.864 23.5934 11.0647 23.3272 11.4252 23.2543C11.5208 23.2367 11.6179 23.2287 11.7151 23.2303C13.9534 23.2303 16.1917 23.2303 18.4301 23.2303C18.4747 23.2303 18.5187 23.2303 18.5628 23.2303C19.0029 23.2511 19.2864 23.5237 19.2811 23.9225C19.2763 24.3053 18.996 24.5758 18.5633 24.5785C17.4043 24.5827 16.2454 24.5774 15.0864 24.5779Z" fill="#09C2B4"/>
<path d="M28.119 28.3934C26.951 28.3934 25.7862 28.3934 24.6197 28.3934C24.3543 28.3934 24.1308 28.3205 23.9826 28.0899C23.9223 27.9966 23.886 27.8897 23.8771 27.7788C23.8683 27.668 23.8871 27.5566 23.9319 27.4549C23.9766 27.3531 24.046 27.2641 24.1337 27.196C24.2213 27.1278 24.3245 27.0826 24.4339 27.0645C24.5125 27.0533 24.5919 27.049 24.6713 27.0517C26.9864 27.0517 29.3017 27.0517 31.6172 27.0517C32.0143 27.0517 32.2463 27.1917 32.3604 27.4904C32.5266 27.9339 32.2198 28.3823 31.7276 28.3886C30.9498 28.3988 30.172 28.3918 29.3942 28.3918C28.9685 28.3936 28.5434 28.3942 28.119 28.3934Z" fill="#09C2B4"/>
<path d="M26.6676 8.5333C26.3088 8.2772 25.9647 8.03174 25.6202 7.78788C25.2018 7.49131 24.7866 7.19048 24.3624 6.90243C24.1692 6.77145 24.1203 6.64047 24.2764 6.44719C24.4325 6.25391 24.5748 6.05105 24.7219 5.85192C24.828 5.70656 24.9512 5.67249 25.1057 5.78643C26.2875 6.6568 27.4693 7.52645 28.6511 8.3954C28.8332 8.53011 28.8279 8.66535 28.6373 8.80112C27.4417 9.65303 26.2442 10.5007 25.0446 11.3441C24.8933 11.4506 24.7633 11.4287 24.664 11.2701C24.5323 11.0603 24.4134 10.8441 24.2722 10.6386C24.131 10.4331 24.175 10.2952 24.3752 10.1562C25.0802 9.66847 25.7773 9.16904 26.4776 8.67387C26.5339 8.63606 26.5901 8.5956 26.6676 8.5333Z" fill="#09C2B4"/>
<path d="M15.9392 8.48216C16.7229 9.05453 17.4725 9.60029 18.2222 10.1487C18.4876 10.3436 18.4988 10.4016 18.3082 10.6593C18.1664 10.8515 18.022 11.0421 17.8787 11.2333C17.775 11.3728 17.6532 11.3905 17.5134 11.2865C16.3312 10.4169 15.1493 9.54722 13.9674 8.67756C13.7933 8.54924 13.7949 8.3959 13.9712 8.26811C15.1537 7.41337 16.3378 6.56146 17.5235 5.71239C17.6552 5.61761 17.773 5.63678 17.8696 5.76563C18.0411 5.99086 18.2137 6.21555 18.3777 6.44609C18.5036 6.62287 18.4043 6.73574 18.2572 6.83904C17.5621 7.32605 16.8689 7.81572 16.1776 8.30805C16.1065 8.35703 16.038 8.40921 15.9392 8.48216Z" fill="#09C2B4"/>
<path d="M19.287 28.3935C18.3138 28.3935 17.3407 28.3935 16.367 28.3935C15.8833 28.3935 15.5876 28.1315 15.5918 27.7162C15.5961 27.3158 15.895 27.0544 16.3606 27.0538C18.3342 27.0538 20.3074 27.0538 22.2803 27.0538C22.5903 27.0538 22.8409 27.1603 22.9705 27.4537C23.0809 27.7082 23.0697 27.9861 22.8542 28.1656C22.6933 28.2964 22.4955 28.3733 22.2888 28.3855C21.2869 28.4052 20.2867 28.3935 19.287 28.3935Z" fill="#09C2B4"/>
<path d="M28.6485 16.9379C27.6769 16.9379 26.7048 16.9379 25.7332 16.9379C25.3919 16.9379 25.1609 16.7728 25.0611 16.4805C24.9709 16.2143 25.0335 15.9247 25.2623 15.766C25.3974 15.6702 25.5568 15.6148 25.7221 15.6063C27.6921 15.5956 29.6622 15.5938 31.6322 15.6009C32.0569 15.6009 32.3394 15.8789 32.342 16.2633C32.3447 16.6477 32.0495 16.9368 31.6168 16.9384C30.6272 16.9406 29.6381 16.9379 28.6485 16.9379Z" fill="#09C2B4"/>
<path d="M13.5202 16.9379C12.8927 16.9379 12.2651 16.9379 11.6371 16.9379C11.1736 16.9379 10.8848 16.677 10.8848 16.2681C10.8848 15.8592 11.1603 15.5999 11.6344 15.5988C12.9086 15.5956 14.1817 15.5956 15.4538 15.5988C15.912 15.5988 16.2109 15.8789 16.2024 16.2788C16.1939 16.669 15.8971 16.9353 15.4565 16.9374C14.8114 16.9406 14.1669 16.9379 13.5202 16.9379Z" fill="#09C2B4"/>
<path d="M12.9391 19.4143C13.3898 19.4143 13.8416 19.4031 14.2908 19.4175C14.7256 19.4319 14.9911 19.7013 14.9889 20.091C14.9889 20.4637 14.7145 20.7529 14.3083 20.7582C13.3898 20.7699 12.4708 20.7699 11.5513 20.7582C11.1542 20.7523 10.8929 20.4749 10.885 20.1091C10.8765 19.7167 11.1181 19.442 11.5343 19.4244C12.0015 19.4042 12.4708 19.4196 12.9391 19.4196V19.4143Z" fill="#09C2B4"/>
<path d="M12.8734 28.3934C12.4486 28.3934 12.0239 28.3972 11.5992 28.3934C11.1665 28.3892 10.8904 28.1363 10.883 27.7465C10.8755 27.3376 11.1484 27.0591 11.588 27.0544C12.4449 27.048 13.3018 27.048 14.1587 27.0544C14.5755 27.0544 14.868 27.3392 14.8722 27.7188C14.8765 28.1091 14.5797 28.3871 14.1438 28.3918C13.7212 28.3972 13.297 28.3934 12.8734 28.3934Z" fill="#09C2B4"/>
<path d="M30.5132 20.7625C30.1416 20.7625 29.7699 20.7667 29.401 20.7625C28.946 20.7561 28.6487 20.4813 28.6524 20.0804C28.6561 19.6896 28.9375 19.4228 29.3882 19.417C30.1471 19.4074 30.9061 19.4074 31.6653 19.417C32.1272 19.4228 32.4086 19.7002 32.3985 20.1092C32.3895 20.4994 32.098 20.7577 31.6515 20.763C31.2724 20.7662 30.8928 20.7625 30.5132 20.7625Z" fill="#09C2B4"/>
<path d="M27.6202 24.5779C27.3191 24.5779 27.0186 24.5843 26.7176 24.5779C26.2653 24.5657 25.994 24.3069 25.9961 23.9023C25.9961 23.5168 26.2732 23.242 26.7022 23.2335C27.3122 23.2213 27.9233 23.2223 28.5323 23.2335C28.9719 23.241 29.2644 23.5264 29.2612 23.9135C29.258 24.3005 28.9681 24.5694 28.5211 24.579C28.2211 24.5827 27.9207 24.5779 27.6202 24.5779Z" fill="#09C2B4"/>
<path d="M31.2085 24.5604C31.0063 24.5604 30.8013 24.5795 30.6017 24.5561C30.4508 24.5407 30.3109 24.4699 30.2089 24.3572C30.107 24.2446 30.0502 24.0981 30.0496 23.9459C30.0358 23.6009 30.2189 23.3022 30.5507 23.2713C30.9972 23.2295 31.4465 23.2295 31.8929 23.2713C32.221 23.3017 32.4121 23.6084 32.3967 23.9454C32.3953 24.0971 32.3384 24.2431 32.2368 24.3555C32.1352 24.468 31.996 24.5392 31.8456 24.5556C31.6333 24.5795 31.4209 24.5604 31.2085 24.5604Z" fill="#09C2B4"/>
<path d="M17.5327 16.9373C17.4441 16.9378 17.3562 16.9206 17.2744 16.8865C17.1925 16.8524 17.1183 16.8022 17.0561 16.7389C16.9939 16.6755 16.945 16.6004 16.9122 16.5178C16.8795 16.4352 16.8635 16.3468 16.8654 16.2579C16.8647 16.1713 16.8812 16.0853 16.914 16.0052C16.9468 15.925 16.9952 15.8522 17.0564 15.791C17.1176 15.7298 17.1904 15.6815 17.2704 15.6488C17.3505 15.6162 17.4362 15.5999 17.5226 15.6009C17.6113 15.5988 17.6995 15.6148 17.7818 15.6479C17.8641 15.6811 17.9388 15.7307 18.0014 15.7938C18.0639 15.8569 18.113 15.9321 18.1456 16.0148C18.1782 16.0975 18.1937 16.1861 18.1911 16.275C18.1898 16.4499 18.1201 16.6173 17.997 16.7412C17.8739 16.8651 17.7071 16.9355 17.5327 16.9373Z" fill="#09C2B4"/>
<path d="M21.5174 23.9108C21.5178 23.9993 21.5005 24.087 21.4666 24.1686C21.4326 24.2503 21.3826 24.3243 21.3196 24.3862C21.2565 24.4482 21.1817 24.4968 21.0996 24.5291C21.0175 24.5615 20.9297 24.577 20.8415 24.5748C20.6635 24.571 20.4943 24.4965 20.371 24.3678C20.2476 24.239 20.1803 24.0664 20.1837 23.8879C20.1911 23.714 20.2642 23.5495 20.3881 23.4276C20.512 23.3058 20.6776 23.2358 20.8511 23.2319C20.9393 23.2325 21.0266 23.2505 21.1078 23.285C21.1891 23.3194 21.2628 23.3696 21.3247 23.4327C21.3866 23.4957 21.4355 23.5704 21.4686 23.6525C21.5016 23.7345 21.5182 23.8223 21.5174 23.9108Z" fill="#09C2B4"/>
<path d="M24.7323 24.5741C24.6442 24.5761 24.5566 24.5603 24.4747 24.5277C24.3928 24.495 24.3183 24.4463 24.2554 24.3843C24.1926 24.3223 24.1428 24.2483 24.109 24.1667C24.0752 24.0851 24.0581 23.9975 24.0586 23.9091C24.058 23.8207 24.0749 23.733 24.1081 23.651C24.1413 23.5691 24.1903 23.4945 24.2523 23.4316C24.3143 23.3687 24.388 23.3186 24.4693 23.2842C24.5505 23.2499 24.6378 23.2319 24.726 23.2313C24.8996 23.2342 25.0653 23.3043 25.1885 23.4269C25.3118 23.5496 25.3829 23.7153 25.387 23.8894C25.3897 23.9777 25.3749 24.0657 25.3433 24.1482C25.3117 24.2306 25.2641 24.306 25.2031 24.3697C25.1421 24.4335 25.0691 24.4844 24.9883 24.5195C24.9074 24.5546 24.8204 24.5732 24.7323 24.5741Z" fill="#09C2B4"/>
<path d="M22.063 16.2782C22.0615 16.3666 22.0425 16.4538 22.0072 16.5349C21.9719 16.6159 21.921 16.6891 21.8574 16.7504C21.7938 16.8116 21.7188 16.8597 21.6366 16.8918C21.5545 16.9239 21.4668 16.9394 21.3787 16.9374C21.2059 16.9284 21.0427 16.8546 20.9215 16.7306C20.8004 16.6067 20.7301 16.4416 20.7246 16.2681C20.7249 16.1796 20.7427 16.092 20.777 16.0104C20.8113 15.9289 20.8614 15.855 20.9244 15.793C20.9875 15.731 21.0622 15.6822 21.1441 15.6494C21.2261 15.6167 21.3138 15.6005 21.4021 15.602C21.4902 15.6011 21.5777 15.6181 21.6592 15.6519C21.7406 15.6858 21.8144 15.7358 21.8762 15.7989C21.9379 15.8621 21.9863 15.9371 22.0184 16.0194C22.0505 16.1018 22.0657 16.1898 22.063 16.2782Z" fill="#09C2B4"/>
<path d="M23.9976 16.2873C23.9948 16.3754 23.9748 16.4622 23.9386 16.5425C23.9025 16.6229 23.8509 16.6954 23.7868 16.7557C23.7227 16.8161 23.6473 16.8632 23.5651 16.8944C23.4828 16.9256 23.3953 16.9402 23.3074 16.9374C23.2195 16.9335 23.1332 16.9122 23.0535 16.8746C22.9739 16.837 22.9025 16.7839 22.8435 16.7185C22.7845 16.653 22.739 16.5764 22.7097 16.4931C22.6804 16.4099 22.6679 16.3217 22.673 16.2335C22.6754 16.1474 22.6949 16.0627 22.7301 15.9841C22.7654 15.9056 22.8159 15.8348 22.8785 15.7759C22.9412 15.717 23.0149 15.6711 23.0953 15.6409C23.1758 15.6107 23.2614 15.5968 23.3472 15.5999C23.4351 15.6017 23.5217 15.621 23.6021 15.6566C23.6825 15.6922 23.755 15.7434 23.8155 15.8074C23.876 15.8713 23.9233 15.9467 23.9545 16.029C23.9858 16.1114 24.0004 16.1992 23.9976 16.2873Z" fill="#09C2B4"/>
<path d="M26.5453 20.0883C26.5424 20.0019 26.5568 19.9157 26.5877 19.8349C26.6185 19.754 26.6652 19.6803 26.725 19.6179C26.7848 19.5555 26.8565 19.5057 26.9358 19.4716C27.015 19.4374 27.1004 19.4196 27.1866 19.4191C27.2753 19.4174 27.3635 19.4334 27.446 19.4661C27.5285 19.4988 27.6037 19.5475 27.6674 19.6095C27.731 19.6714 27.7818 19.7454 27.8169 19.8271C27.8519 19.9088 27.8705 19.9967 27.8715 20.0857C27.8671 20.2649 27.7936 20.4354 27.6663 20.5614C27.5391 20.6873 27.3681 20.7588 27.1893 20.7608C27.103 20.7591 27.0178 20.7403 26.9388 20.7056C26.8597 20.6708 26.7882 20.6208 26.7284 20.5584C26.6686 20.4959 26.6216 20.4223 26.5902 20.3416C26.5588 20.261 26.5435 20.1749 26.5453 20.0883Z" fill="#09C2B4"/>
<path d="M23.4487 23.8996C23.4529 24.0745 23.3876 24.2439 23.2672 24.3705C23.1468 24.4971 22.9812 24.5706 22.8069 24.5748C22.7183 24.5772 22.6301 24.5619 22.5474 24.5298C22.4648 24.4976 22.3894 24.4492 22.3257 24.3874C22.262 24.3256 22.2113 24.2516 22.1765 24.1699C22.1417 24.0881 22.1235 24.0002 22.1231 23.9113C22.1222 23.7364 22.1888 23.5679 22.3089 23.4411C22.429 23.3143 22.5934 23.239 22.7676 23.2309C22.9463 23.2292 23.1183 23.2986 23.246 23.424C23.3737 23.5494 23.4466 23.7204 23.4487 23.8996Z" fill="#09C2B4"/>
<path d="M20.1303 16.2772C20.1258 16.4565 20.0507 16.6266 19.9213 16.7504C19.7919 16.8742 19.6189 16.9414 19.4401 16.9374C19.2658 16.9316 19.1008 16.8567 18.9814 16.7292C18.862 16.6016 18.7979 16.4318 18.803 16.257C18.8026 16.1682 18.8201 16.0803 18.8547 15.9986C18.8892 15.9169 18.94 15.8431 19.004 15.7818C19.0679 15.7204 19.1437 15.6728 19.2266 15.6418C19.3096 15.6108 19.3979 15.5971 19.4863 15.6015C19.6604 15.6075 19.8252 15.6815 19.9455 15.8078C20.0659 15.9341 20.1322 16.1025 20.1303 16.2772Z" fill="#09C2B4"/>
</g>
<defs>
<clipPath id="clip0_77_796">
<rect width="40" height="37" fill="white" transform="translate(0 0.802734)"/>
</clipPath>
</defs>
</svg>
