<svg width="50" height="51" viewBox="0 0 50 51" fill="none" xmlns="http://www.w3.org/2000/svg">
<path d="M8 9.44108C8 9.13917 8.1194 8.84963 8.33195 8.63615C8.54449 8.42267 8.83275 8.30273 9.13333 8.30273H40.8667C41.1672 8.30273 41.4555 8.42267 41.6681 8.63615C41.8806 8.84963 42 9.13917 42 9.44108V35.6231C42 35.7726 41.9707 35.9206 41.9137 36.0587C41.8568 36.1968 41.7733 36.3223 41.6681 36.428C41.5628 36.5337 41.4379 36.6176 41.3004 36.6748C41.1629 36.732 41.0155 36.7614 40.8667 36.7614H33.0467C32.8917 36.7612 32.7383 36.7929 32.596 36.8546C32.4537 36.9163 32.3255 37.0066 32.2193 37.12L25.8254 43.9444C25.7195 44.0575 25.5916 44.1477 25.4496 44.2093C25.3077 44.2709 25.1546 44.3027 25 44.3027C24.8454 44.3027 24.6923 44.2709 24.5504 44.2093C24.4084 44.1477 24.2805 44.0575 24.1746 43.9444L17.7807 37.12C17.6745 37.0066 17.5463 36.9163 17.404 36.8546C17.2617 36.7929 17.1083 36.7612 16.9533 36.7614H9.13333C8.83275 36.7614 8.54449 36.6415 8.33195 36.428C8.1194 36.2145 8 35.925 8 35.6231V9.44108Z" stroke="#09C2B4" stroke-width="4"/>
<path d="M25 16.3027L27.85 21.1309L33 23.8027L27.85 26.4746L25 31.3027L22.15 26.4746L17 23.8027L22.15 21.1309L25 16.3027Z" stroke="#09C2B4" stroke-width="4" stroke-linecap="round" stroke-linejoin="round"/>
</svg>
