<svg width="373" height="412" viewBox="0 0 373 412" fill="none" xmlns="http://www.w3.org/2000/svg">
<mask id="path-1-inside-1_365_5013" fill="white">
<path d="M325.966 85.2447C339.741 71.4696 339.878 48.8374 323.953 37.6179C298.624 19.7745 269.457 7.79847 238.576 2.77863C196.025 -4.13823 152.376 2.50249 113.807 21.7609C75.2382 41.0193 43.703 71.92 23.6647 110.089C3.62633 148.259 -3.90018 191.764 2.15042 234.447C8.20102 277.13 27.5222 316.829 57.3795 347.925C87.2367 379.021 126.118 399.94 168.519 407.72C210.921 415.501 254.696 409.748 293.648 391.278C321.917 377.873 346.607 358.262 365.978 334.083C378.158 318.879 371.737 297.176 354.676 287.773C337.615 278.369 316.429 285.023 302.936 299.074C291.666 310.809 278.299 320.48 263.422 327.535C237.843 339.664 209.096 343.441 181.251 338.332C153.407 333.223 127.874 319.486 108.267 299.065C88.6601 278.644 75.972 252.575 71.9987 224.545C68.0253 196.516 72.9679 167.947 86.1269 142.881C99.2858 117.816 119.995 97.5235 145.322 84.8767C170.65 72.2299 199.314 67.869 227.257 72.4112C243.508 75.0529 259.036 80.628 273.123 88.7688C289.991 98.5159 312.191 99.0198 325.966 85.2447Z"/>
</mask>
<path d="M325.966 85.2447C339.741 71.4696 339.878 48.8374 323.953 37.6179C298.624 19.7745 269.457 7.79847 238.576 2.77863C196.025 -4.13823 152.376 2.50249 113.807 21.7609C75.2382 41.0193 43.703 71.92 23.6647 110.089C3.62633 148.259 -3.90018 191.764 2.15042 234.447C8.20102 277.13 27.5222 316.829 57.3795 347.925C87.2367 379.021 126.118 399.94 168.519 407.72C210.921 415.501 254.696 409.748 293.648 391.278C321.917 377.873 346.607 358.262 365.978 334.083C378.158 318.879 371.737 297.176 354.676 287.773C337.615 278.369 316.429 285.023 302.936 299.074C291.666 310.809 278.299 320.48 263.422 327.535C237.843 339.664 209.096 343.441 181.251 338.332C153.407 333.223 127.874 319.486 108.267 299.065C88.6601 278.644 75.972 252.575 71.9987 224.545C68.0253 196.516 72.9679 167.947 86.1269 142.881C99.2858 117.816 119.995 97.5235 145.322 84.8767C170.65 72.2299 199.314 67.869 227.257 72.4112C243.508 75.0529 259.036 80.628 273.123 88.7688C289.991 98.5159 312.191 99.0198 325.966 85.2447Z" stroke="#15E0D1" stroke-opacity="0.91" stroke-width="100" mask="url(#path-1-inside-1_365_5013)"/>
</svg>
