<svg width="56" height="56" viewBox="0 0 56 56" fill="none" xmlns="http://www.w3.org/2000/svg">
<rect width="56" height="56" rx="14" fill="white"/>
<path d="M16.1508 24.0002H39.8507M21.3989 16.0675L28.0007 24.0003L34.6137 16.0731M39.5821 23.3723L34.984 16.4752C34.8683 16.3015 34.8104 16.2147 34.7339 16.1519C34.6662 16.0962 34.5882 16.0545 34.5043 16.029C34.4096 16.0002 34.3052 16.0002 34.0965 16.0002H21.9049C21.6962 16.0002 21.5918 16.0002 21.4971 16.029C21.4133 16.0545 21.3352 16.0962 21.2675 16.1519C21.1911 16.2147 21.1332 16.3015 21.0174 16.4752L16.4193 23.3723C16.2686 23.5984 16.1933 23.7114 16.1662 23.833C16.1424 23.9404 16.1455 24.0521 16.1753 24.158C16.209 24.2779 16.2905 24.3866 16.4535 24.604L27.1474 38.8624C27.4369 39.2484 27.5816 39.4414 27.7591 39.5104C27.9145 39.5709 28.0869 39.5709 28.2424 39.5104C28.4198 39.4414 28.5646 39.2484 28.8541 38.8624L39.5479 24.604C39.7109 24.3866 39.7925 24.2779 39.8262 24.158C39.8559 24.0521 39.859 23.9404 39.8352 23.833C39.8082 23.7114 39.7328 23.5984 39.5821 23.3723Z" stroke="#09C2B4" stroke-width="2" stroke-linecap="round" stroke-linejoin="round"/>
</svg>
