<svg width="32" height="32" viewBox="0 0 32 32" fill="none" xmlns="http://www.w3.org/2000/svg">
<path d="M4.15078 12.0002H27.8507M9.39893 4.06753L16.0007 12.0003L22.6137 4.07309M27.5821 11.3723L22.984 4.47521C22.8683 4.30155 22.8104 4.21472 22.7339 4.15186C22.6662 4.09621 22.5882 4.05446 22.5043 4.02899C22.4096 4.00022 22.3052 4.00022 22.0965 4.00022H9.90491C9.6962 4.00022 9.59184 4.00022 9.49712 4.02899C9.41326 4.05446 9.33524 4.09621 9.26753 4.15186C9.19105 4.21472 9.13317 4.30155 9.01739 4.47521L4.41934 11.3723C4.26862 11.5984 4.19326 11.7114 4.16625 11.833C4.14239 11.9404 4.14549 12.0521 4.17527 12.158C4.20898 12.2779 4.2905 12.3866 4.45353 12.604L15.1474 26.8624C15.4369 27.2484 15.5816 27.4414 15.7591 27.5104C15.9145 27.5709 16.0869 27.5709 16.2424 27.5104C16.4198 27.4414 16.5646 27.2484 16.8541 26.8624L27.5479 12.604C27.7109 12.3866 27.7925 12.2779 27.8262 12.158C27.8559 12.0521 27.859 11.9404 27.8352 11.833C27.8082 11.7114 27.7328 11.5984 27.5821 11.3723Z" stroke="#09C2B4" stroke-width="2" stroke-linecap="round" stroke-linejoin="round"/>
</svg>
