<svg width="46" height="46" viewBox="0 0 46 46" fill="none" xmlns="http://www.w3.org/2000/svg">
<rect width="46" height="46" rx="14" fill="white"/>
<path d="M23 13C17.486 13 13 17.486 13 23V27.143C13 28.167 13.897 29 15 29H16C16.2652 29 16.5196 28.8946 16.7071 28.7071C16.8946 28.5196 17 28.2652 17 28V22.857C17 22.5918 16.8946 22.3374 16.7071 22.1499C16.5196 21.9624 16.2652 21.857 16 21.857H15.092C15.648 17.987 18.978 15 23 15C27.022 15 30.352 17.987 30.908 21.857H30C29.7348 21.857 29.4804 21.9624 29.2929 22.1499C29.1054 22.3374 29 22.5918 29 22.857V29C29 30.103 28.103 31 27 31H25V30H21V33H27C29.206 33 31 31.206 31 29C32.103 29 33 28.167 33 27.143V23C33 17.486 28.514 13 23 13Z" fill="#09C2B4"/>
</svg>
