<svg width="46" height="46" viewBox="0 0 46 46" fill="none" xmlns="http://www.w3.org/2000/svg">
<rect width="46" height="46" rx="14" fill="white"/>
<path d="M35.625 27.8682V25.875C35.625 24.9467 35.2563 24.0565 34.5999 23.4001C33.9435 22.7437 33.0533 22.375 32.125 22.375C31.1967 22.375 30.3065 22.7437 29.6501 23.4001C28.9937 24.0565 28.625 24.9467 28.625 25.875V27.8682C28.3599 28.0207 28.1395 28.2401 27.9859 28.5046C27.8324 28.769 27.751 29.0692 27.75 29.375V33.75C27.7505 34.214 27.935 34.6588 28.2631 34.9869C28.5912 35.315 29.036 35.4995 29.5 35.5H34.75C35.214 35.4995 35.6588 35.315 35.9869 34.9869C36.315 34.6588 36.4995 34.214 36.5 33.75V29.375C36.499 29.0692 36.4176 28.769 36.2641 28.5046C36.1105 28.2401 35.8901 28.0207 35.625 27.8682ZM32.125 24.125C32.589 24.1255 33.0338 24.31 33.3619 24.6381C33.69 24.9662 33.8745 25.411 33.875 25.875V27.625H30.375V25.875C30.3755 25.411 30.56 24.9662 30.8881 24.6381C31.2162 24.31 31.661 24.1255 32.125 24.125ZM29.5 33.75V29.375H34.75V33.75H29.5ZM12 11H13.75V14.5H12V11ZM22.5 11H24.25V14.5H22.5V11ZM26 11H27.75V14.5H26V11ZM12 16.25H13.75V23.25H12V16.25ZM12 25H13.75V32H12V25ZM22.5 25H24.25V32H22.5V25ZM15.5 16.25H17.25V23.25H15.5V16.25ZM26 16.25H27.75V21.5H26V16.25ZM19 32H17.25C16.786 31.9995 16.3412 31.815 16.0131 31.4869C15.685 31.1588 15.5005 30.714 15.5 30.25V26.75C15.5005 26.286 15.685 25.8412 16.0131 25.5131C16.3412 25.185 16.786 25.0005 17.25 25H19C19.464 25.0005 19.9088 25.185 20.2369 25.5131C20.565 25.8412 20.7495 26.286 20.75 26.75V30.25C20.7495 30.714 20.565 31.1588 20.2369 31.4869C19.9088 31.815 19.464 31.9995 19 32ZM17.25 26.75V30.25H19V26.75H17.25ZM22.5 23.25H20.75C20.286 23.2495 19.8412 23.065 19.5131 22.7369C19.185 22.4088 19.0005 21.964 19 21.5V18C19.0005 17.536 19.185 17.0912 19.5131 16.7631C19.8412 16.435 20.286 16.2505 20.75 16.25H22.5C22.964 16.2505 23.4088 16.435 23.7369 16.7631C24.065 17.0912 24.2495 17.536 24.25 18V21.5C24.2495 21.964 24.065 22.4088 23.7369 22.7369C23.4088 23.065 22.964 23.2495 22.5 23.25ZM20.75 18V21.5H22.5V18H20.75ZM19 14.5H17.25C16.786 14.4995 16.3412 14.315 16.0131 13.9869C15.685 13.6588 15.5005 13.214 15.5 12.75V11H17.25V12.75H19V11H20.75V12.75C20.7495 13.214 20.565 13.6588 20.2369 13.9869C19.9088 14.315 19.464 14.4995 19 14.5Z" fill="#09C2B4"/>
</svg>
