<svg width="84" height="106" viewBox="0 0 84 106" fill="none" xmlns="http://www.w3.org/2000/svg">
<g clip-path="url(#clip0_365_5184)">
<g filter="url(#filter0_bdi_365_5184)">
<path d="M4 28.6752C4 26.8831 4.95904 25.2282 6.51384 24.3371L39.5138 5.42481C41.0538 4.54227 42.9462 4.54227 44.4862 5.42482L77.4862 24.3371C79.041 25.2282 80 26.8832 80 28.6752V57.043C80 71.3792 72.3277 84.6192 59.8893 91.7477L44.4862 100.575C42.9462 101.458 41.0538 101.458 39.5138 100.575L24.1107 91.7477C11.6723 84.6192 4 71.3792 4 57.043V28.6752Z" fill="#98B0FF"/>
<path d="M4.125 28.6752C4.125 26.9279 5.06007 25.3143 6.576 24.4455L39.576 5.53327C41.0775 4.67278 42.9225 4.67278 44.424 5.53327L77.424 24.4455C78.9399 25.3143 79.875 26.928 79.875 28.6752V57.043C79.875 71.3344 72.2266 84.5331 59.8271 91.6392L44.424 100.467C42.9225 101.327 41.0775 101.327 39.576 100.467L24.1729 91.6392C11.7733 84.5331 4.125 71.3344 4.125 57.043V28.6752Z" stroke="url(#paint0_linear_365_5184)" stroke-opacity="0.7" stroke-width="0.25"/>
</g>
<g filter="url(#filter1_d_365_5184)">
<path d="M28.0001 53.16L37.0801 62.24L55.2401 44.08" stroke="white" stroke-width="8" stroke-linecap="round" stroke-linejoin="round"/>
</g>
</g>
<defs>
<filter id="filter0_bdi_365_5184" x="0" y="0.762878" width="84" height="104.474" filterUnits="userSpaceOnUse" color-interpolation-filters="sRGB">
<feFlood flood-opacity="0" result="BackgroundImageFix"/>
<feGaussianBlur in="BackgroundImageFix" stdDeviation="1"/>
<feComposite in2="SourceAlpha" operator="in" result="effect1_backgroundBlur_365_5184"/>
<feColorMatrix in="SourceAlpha" type="matrix" values="0 0 0 0 0 0 0 0 0 0 0 0 0 0 0 0 0 0 127 0" result="hardAlpha"/>
<feOffset/>
<feGaussianBlur stdDeviation="2"/>
<feComposite in2="hardAlpha" operator="out"/>
<feColorMatrix type="matrix" values="0 0 0 0 0.231373 0 0 0 0 0.407843 0 0 0 0 1 0 0 0 0.1 0"/>
<feBlend mode="normal" in2="effect1_backgroundBlur_365_5184" result="effect2_dropShadow_365_5184"/>
<feBlend mode="normal" in="SourceGraphic" in2="effect2_dropShadow_365_5184" result="shape"/>
<feColorMatrix in="SourceAlpha" type="matrix" values="0 0 0 0 0 0 0 0 0 0 0 0 0 0 0 0 0 0 127 0" result="hardAlpha"/>
<feOffset/>
<feGaussianBlur stdDeviation="1.5"/>
<feComposite in2="hardAlpha" operator="arithmetic" k2="-1" k3="1"/>
<feColorMatrix type="matrix" values="0 0 0 0 0.231373 0 0 0 0 0.407843 0 0 0 0 1 0 0 0 0.38 0"/>
<feBlend mode="normal" in2="shape" result="effect3_innerShadow_365_5184"/>
</filter>
<filter id="filter1_d_365_5184" x="22" y="38.08" width="39.2402" height="30.16" filterUnits="userSpaceOnUse" color-interpolation-filters="sRGB">
<feFlood flood-opacity="0" result="BackgroundImageFix"/>
<feColorMatrix in="SourceAlpha" type="matrix" values="0 0 0 0 0 0 0 0 0 0 0 0 0 0 0 0 0 0 127 0" result="hardAlpha"/>
<feOffset/>
<feGaussianBlur stdDeviation="1"/>
<feComposite in2="hardAlpha" operator="out"/>
<feColorMatrix type="matrix" values="0 0 0 0 0.231373 0 0 0 0 0.407843 0 0 0 0 1 0 0 0 0.35 0"/>
<feBlend mode="normal" in2="BackgroundImageFix" result="effect1_dropShadow_365_5184"/>
<feBlend mode="normal" in="SourceGraphic" in2="effect1_dropShadow_365_5184" result="shape"/>
</filter>
<linearGradient id="paint0_linear_365_5184" x1="5.9" y1="18.7" x2="85.906" y2="71.8818" gradientUnits="userSpaceOnUse">
<stop stop-color="white" stop-opacity="0.15"/>
<stop offset="1" stop-color="white" stop-opacity="0.44"/>
</linearGradient>
<clipPath id="clip0_365_5184">
<rect width="84" height="106" fill="white"/>
</clipPath>
</defs>
</svg>
