<svg width="41" height="41" viewBox="0 0 41 41" fill="none" xmlns="http://www.w3.org/2000/svg">
<g id="bi:linkedin" clip-path="url(#clip0_77_1037)">
<path id="Vector" d="M0.5 2.97682C0.5 1.39432 1.815 0.111816 3.4375 0.111816H37.5625C39.185 0.111816 40.5 1.39432 40.5 2.97682V37.2468C40.5 38.8293 39.185 40.1118 37.5625 40.1118H3.4375C1.815 40.1118 0.5 38.8293 0.5 37.2468V2.97682ZM12.8575 33.5968V15.5343H6.855V33.5968H12.8575ZM9.8575 13.0668C11.95 13.0668 13.2525 11.6818 13.2525 9.94682C13.215 8.17432 11.9525 6.82682 9.8975 6.82682C7.8425 6.82682 6.5 8.17682 6.5 9.94682C6.5 11.6818 7.8025 13.0668 9.8175 13.0668H9.8575ZM22.1275 33.5968V23.5093C22.1275 22.9693 22.1675 22.4293 22.3275 22.0443C22.76 20.9668 23.7475 19.8493 25.4075 19.8493C27.58 19.8493 28.4475 21.5043 28.4475 23.9343V33.5968H34.45V23.2368C34.45 17.6868 31.49 15.1068 27.54 15.1068C24.355 15.1068 22.9275 16.8568 22.1275 18.0893V18.1518H22.0875C22.1008 18.1309 22.1141 18.1101 22.1275 18.0893V15.5343H16.1275C16.2025 17.2293 16.1275 33.5968 16.1275 33.5968H22.1275Z" fill="white"/>
</g>
<defs>
<clipPath id="clip0_77_1037">
<rect width="40" height="40" fill="white" transform="translate(0.5 0.111816)"/>
</clipPath>
</defs>
</svg>
