<svg width="48" height="49" viewBox="0 0 48 49" fill="none" xmlns="http://www.w3.org/2000/svg">
<g id="ri:instagram-fill">
<path id="Vector" d="M26.0562 4.11379C27.5156 4.10819 28.9751 4.12286 30.4342 4.15779L30.8222 4.17179C31.2702 4.18779 31.7122 4.20779 32.2462 4.23179C34.3742 4.33179 35.8262 4.66779 37.1002 5.16179C38.4202 5.66979 39.5322 6.35779 40.6442 7.46979C41.6609 8.469 42.4478 9.67768 42.9502 11.0118C43.4442 12.2858 43.7802 13.7398 43.8802 15.8678C43.9042 16.3998 43.9242 16.8438 43.9402 17.2918L43.9522 17.6798C43.9877 19.1382 44.003 20.597 43.9982 22.0558L44.0002 23.5478V26.1678C44.0051 27.6273 43.9898 29.0867 43.9542 30.5458L43.9422 30.9338C43.9262 31.3818 43.9062 31.8238 43.8822 32.3578C43.7822 34.4858 43.4422 35.9378 42.9502 37.2118C42.4495 38.5473 41.6624 39.757 40.6442 40.7558C39.6441 41.7724 38.4348 42.5593 37.1002 43.0618C35.8262 43.5558 34.3742 43.8918 32.2462 43.9918C31.7122 44.0158 31.2702 44.0358 30.8222 44.0518L30.4342 44.0638C28.9751 44.0993 27.5157 44.1147 26.0562 44.1098L24.5642 44.1118H21.9462C20.4867 44.1167 19.0272 44.1014 17.5682 44.0658L17.1802 44.0538C16.7054 44.0366 16.2307 44.0166 15.7562 43.9938C13.6282 43.8938 12.1762 43.5538 10.9002 43.0618C9.56555 42.5605 8.35665 41.7734 7.35818 40.7558C6.34027 39.7564 5.55263 38.5469 5.05018 37.2118C4.55618 35.9378 4.22018 34.4858 4.12018 32.3578C4.0979 31.8832 4.0779 31.4086 4.06018 30.9338L4.05018 30.5458C4.0133 29.0868 3.99664 27.6273 4.00018 26.1678V22.0558C3.9946 20.597 4.00926 19.1382 4.04418 17.6798L4.05818 17.2918C4.07418 16.8438 4.09418 16.3998 4.11818 15.8678C4.21818 13.7378 4.55418 12.2878 5.04818 11.0118C5.55092 9.67703 6.34011 8.46868 7.36018 7.47179C8.35797 6.45329 9.5661 5.66493 10.9002 5.16179C12.1762 4.66779 13.6262 4.33179 15.7562 4.23179L17.1802 4.17179L17.5682 4.16179C19.0265 4.12493 20.4853 4.10827 21.9442 4.11179L26.0562 4.11379ZM24.0002 14.1138C22.6752 14.095 21.3597 14.3398 20.1301 14.8339C18.9006 15.328 17.7815 16.0615 16.8379 16.9919C15.8943 17.9223 15.145 19.0309 14.6336 20.2533C14.1221 21.4758 13.8588 22.7877 13.8588 24.1128C13.8588 25.4379 14.1221 26.7498 14.6336 27.9723C15.145 29.1947 15.8943 30.3033 16.8379 31.2337C17.7815 32.164 18.9006 32.8976 20.1301 33.3917C21.3597 33.8857 22.6752 34.1305 24.0002 34.1118C26.6523 34.1118 29.1959 33.0582 31.0712 31.1829C32.9466 29.3075 34.0002 26.764 34.0002 24.1118C34.0002 21.4596 32.9466 18.9161 31.0712 17.0407C29.1959 15.1654 26.6523 14.1138 24.0002 14.1138ZM24.0002 18.1138C24.7972 18.0991 25.5891 18.2434 26.3298 18.5382C27.0704 18.833 27.7449 19.2725 28.3137 19.8309C28.8826 20.3893 29.3345 21.0555 29.6431 21.7905C29.9516 22.5255 30.1106 23.3146 30.1107 24.1118C30.1108 24.9089 29.9521 25.6981 29.6438 26.4332C29.3355 27.1683 28.8839 27.8347 28.3152 28.3933C27.7465 28.9519 27.0722 29.3915 26.3316 29.6866C25.5911 29.9817 24.7992 30.1262 24.0022 30.1118C22.4109 30.1118 20.8848 29.4796 19.7595 28.3544C18.6343 27.2292 18.0022 25.7031 18.0022 24.1118C18.0022 22.5205 18.6343 20.9944 19.7595 19.8691C20.8848 18.7439 22.4109 18.1118 24.0022 18.1118L24.0002 18.1138ZM34.5002 11.1138C33.855 11.1396 33.2448 11.4141 32.7974 11.8797C32.35 12.3454 32.1002 12.9661 32.1002 13.6118C32.1002 14.2575 32.35 14.8782 32.7974 15.3438C33.2448 15.8095 33.855 16.084 34.5002 16.1098C35.1632 16.1098 35.7991 15.8464 36.2679 15.3776C36.7368 14.9087 37.0002 14.2728 37.0002 13.6098C37.0002 12.9467 36.7368 12.3109 36.2679 11.842C35.7991 11.3732 35.1632 11.1098 34.5002 11.1098V11.1138Z" fill="white"/>
</g>
</svg>
