<svg width="40" height="41" viewBox="0 0 40 41" fill="none" xmlns="http://www.w3.org/2000/svg">
<g id="entypo-social:facebook">
<path id="Vector" d="M34 2.11182H6C3.8 2.11182 2 3.91182 2 6.11182V34.1118C2 36.3138 3.8 38.1118 6 38.1118H20V24.1118H16V19.1618H20V15.0618C20 10.7338 22.424 7.69382 27.532 7.69382L31.138 7.69782V12.9078H28.744C26.756 12.9078 26 14.3998 26 15.7838V19.1638H31.136L30 24.1118H26V38.1118H34C36.2 38.1118 38 36.3138 38 34.1118V6.11182C38 3.91182 36.2 2.11182 34 2.11182Z" fill="white"/>
</g>
</svg>
