<svg width="304" height="304" viewBox="0 0 304 304" fill="none" xmlns="http://www.w3.org/2000/svg">
<g clip-path="url(#clip0_365_5474)">
<path d="M2.88895 106.021C2.88895 106.021 -4.50835 100.612 4.37094 93.4172L25.0808 74.6959C25.0808 74.6959 30.9961 68.4005 37.2661 73.8852L228.291 220.084V290.181C228.291 290.181 228.203 301.201 214.231 299.985L2.87628 106.008L2.88895 106.021Z" fill="url(#paint0_linear_365_5474)"/>
<path d="M52.1383 151.202L2.89051 196.448C2.89051 196.448 -2.17613 200.248 2.89051 207.05L25.7537 228.076C25.7537 228.076 31.1877 233.966 39.2057 227.253L91.4048 187.252L52.1383 151.202ZM138.575 151.57L228.888 81.8778L228.293 12.1478C228.293 12.1478 224.429 -3.07753 211.573 4.8518L91.4048 115.394L138.575 151.57Z" fill="url(#paint1_linear_365_5474)"/>
<path d="M214.647 300.074C219.891 305.495 226.25 303.722 226.25 303.722L296.626 268.673C305.632 262.467 304.365 254.765 304.365 254.765V45.4486C304.365 36.2526 295.055 33.0733 295.055 33.0733L234.053 3.34461C220.727 -4.97739 212 4.85195 212 4.85195C212 4.85195 223.223 -3.31805 228.72 12.1479V288.915C228.72 290.815 228.315 292.677 227.517 294.361C225.908 297.642 222.425 300.695 214.065 299.428L214.647 300.074Z" fill="url(#paint2_linear_365_5474)"/>
</g>
<defs>
<linearGradient id="paint0_linear_365_5474" x1="114.146" y1="71.6414" x2="114.146" y2="300.079" gradientUnits="userSpaceOnUse">
<stop stop-opacity="0.38"/>
<stop offset="1" stop-opacity="0"/>
</linearGradient>
<linearGradient id="paint1_linear_365_5474" x1="239" y1="3.00023" x2="32.4995" y2="221" gradientUnits="userSpaceOnUse">
<stop stop-opacity="0.25"/>
<stop offset="1" stop-opacity="0.05"/>
</linearGradient>
<linearGradient id="paint2_linear_365_5474" x1="258.213" y1="0" x2="258.213" y2="303.999" gradientUnits="userSpaceOnUse">
<stop stop-opacity="0.68"/>
<stop offset="1" stop-opacity="0"/>
</linearGradient>
<clipPath id="clip0_365_5474">
<rect width="304" height="304" fill="white"/>
</clipPath>
</defs>
</svg>
