<svg width="94" height="94" viewBox="0 0 94 94" fill="none" xmlns="http://www.w3.org/2000/svg">
<g clip-path="url(#clip0_365_5176)">
<path d="M0.893294 32.7826C0.893294 32.7826 -1.39403 31.1102 1.35154 28.8855L7.75526 23.0967C7.75526 23.0967 9.58434 21.1501 11.5231 22.846L70.59 68.0522V89.7271C70.59 89.7271 70.5626 93.1346 66.2426 92.7586L0.889377 32.7787L0.893294 32.7826Z" fill="#6E8FFF"/>
<path d="M16.1215 46.7534L0.893559 60.7437C0.893559 60.7437 -0.673101 61.9187 0.893559 64.022L7.96311 70.5237C7.96311 70.5237 9.64335 72.3449 12.1226 70.2691L28.2631 57.9002L16.1215 46.7534ZM42.8487 46.867L70.7744 25.3175L70.5903 3.75622C70.5903 3.75622 69.3957 -0.95161 65.4203 1.50022L28.2631 35.681L42.8487 46.867Z" fill="#98B0FF"/>
<path d="M66.2405 92.786C67.862 94.4623 69.8281 93.914 69.8281 93.914L91.589 83.0766C94.3737 81.1574 93.9821 78.7761 93.9821 78.7761V14.0532C93.9821 11.2097 91.1033 10.2266 91.1033 10.2266L72.2408 1.03419C68.1204 -1.53906 65.4219 1.50027 65.4219 1.50027C65.4219 1.50027 68.892 -1.02598 70.5919 3.75627V89.3354C70.5919 89.9229 70.4665 90.4987 70.2198 91.0196C69.7224 92.034 68.6453 92.9779 66.0603 92.5863L66.2405 92.786Z" fill="#3B68FF"/>
</g>
<defs>
<clipPath id="clip0_365_5176">
<rect width="94" height="94" fill="white"/>
</clipPath>
</defs>
</svg>
