<svg width="38" height="38" viewBox="0 0 38 38" fill="none" xmlns="http://www.w3.org/2000/svg">
<path fill-rule="evenodd" clip-rule="evenodd" d="M17.5941 8.95921L19.7274 6.82588C21.4448 5.10588 24.4608 3.91388 27.4554 3.48454C28.7831 3.2777 30.1334 3.25974 31.4661 3.43121C32.6474 3.60721 33.3701 3.95388 33.7061 4.29254C34.0448 4.62854 34.3914 5.35121 34.5674 6.53254C34.7381 7.67121 34.7248 9.06588 34.5141 10.5432C34.0874 13.5379 32.8928 16.5539 31.1728 18.2712L19.3168 30.1299L16.2608 27.0739C16.137 26.9499 15.99 26.8515 15.8282 26.7844C15.6664 26.7172 15.4929 26.6826 15.3177 26.6825C15.1425 26.6823 14.969 26.7167 14.8071 26.7837C14.6452 26.8506 14.4981 26.9487 14.3741 27.0725C14.1237 27.3226 13.9829 27.6618 13.9827 28.0156C13.9826 28.1908 14.017 28.3643 14.0839 28.5262C14.1508 28.6881 14.249 28.8352 14.3728 28.9592L18.3728 32.9592C18.4966 33.0834 18.6438 33.1819 18.8057 33.2491C18.9677 33.3163 19.1414 33.3509 19.3168 33.3509C19.4921 33.3509 19.6658 33.3163 19.8278 33.2491C19.9898 33.1819 20.1369 33.0834 20.2608 32.9592L21.7194 31.4979L24.8394 36.7005C24.9435 36.8747 25.0859 37.0229 25.2559 37.1337C25.4258 37.2446 25.6189 37.3151 25.8202 37.3401C26.0216 37.365 26.226 37.3437 26.4179 37.2777C26.6098 37.2117 26.784 37.1028 26.9274 36.9592L32.2608 31.6259C32.4072 31.4792 32.5175 31.3004 32.5827 31.1037C32.648 30.9069 32.6665 30.6977 32.6368 30.4925L31.3968 21.8205L33.0608 20.1592C35.3408 17.8765 36.6821 14.2259 37.1541 10.9192C37.3941 9.24721 37.4208 7.58588 37.2048 6.13521C36.9914 4.72721 36.5221 3.33521 35.5941 2.40454C34.6634 1.47654 33.2714 1.00454 31.8608 0.793876C30.2725 0.584793 28.6626 0.602751 27.0794 0.84721C23.7701 1.31388 20.1168 2.65521 17.8394 4.93521L16.1781 6.59921L7.5061 5.35921C7.30097 5.32948 7.09173 5.34798 6.89499 5.41325C6.69826 5.47852 6.51945 5.58876 6.37277 5.73521L1.03944 11.0685C0.895886 11.2119 0.786959 11.3862 0.720954 11.5781C0.654949 11.77 0.633606 11.9744 0.658553 12.1757C0.683499 12.3771 0.754076 12.5701 0.864906 12.7401C0.975737 12.9101 1.1239 13.0525 1.2981 13.1565L6.4981 16.2765L5.03944 17.7352C4.91527 17.8591 4.81675 18.0062 4.74954 18.1682C4.68232 18.3302 4.64772 18.5038 4.64772 18.6792C4.64772 18.8546 4.68232 19.0282 4.74954 19.1902C4.81675 19.3522 4.91527 19.4994 5.03944 19.6232L9.03944 23.6232C9.1634 23.7472 9.31058 23.8455 9.47255 23.9126C9.63452 23.9797 9.80812 24.0142 9.98344 24.0142C10.1588 24.0142 10.3324 23.9797 10.4943 23.9126C10.6563 23.8455 10.8035 23.7472 10.9274 23.6232C11.0514 23.4992 11.1497 23.3521 11.2168 23.1901C11.2839 23.0281 11.3185 22.8545 11.3185 22.6792C11.3185 22.5039 11.2839 22.3303 11.2168 22.1683C11.1497 22.0063 11.0514 21.8592 10.9274 21.7352L7.86877 18.6819L9.5941 16.9592L17.5941 8.95921ZM26.2474 33.8659L23.6608 29.5539L29.0394 24.1779L29.9034 30.2099L26.2501 33.8632L26.2474 33.8659ZM8.44477 14.3352L13.8208 8.95921L7.78877 8.09521L4.13544 11.7485L8.44477 14.3352ZM5.59144 26.2925C5.7154 26.1687 5.81378 26.0218 5.88093 25.8599C5.94809 25.6981 5.98272 25.5247 5.98284 25.3495C5.98297 25.1743 5.94858 25.0008 5.88166 24.8389C5.81473 24.677 5.71656 24.5298 5.59277 24.4059C5.46898 24.2819 5.32198 24.1835 5.16017 24.1164C4.99836 24.0492 4.82491 24.0146 4.64971 24.0145C4.47452 24.0143 4.30102 24.0487 4.13911 24.1157C3.97721 24.1826 3.83007 24.2808 3.7061 24.4045L1.03944 27.0712C0.789426 27.3216 0.649112 27.661 0.649362 28.0148C0.649612 28.3686 0.790406 28.7079 1.04077 28.9579C1.29113 29.2079 1.63056 29.3482 1.98438 29.3479C2.3382 29.3477 2.67743 29.2069 2.92744 28.9565L5.5941 26.2899L5.59144 26.2925ZM9.59144 30.2925C9.71878 30.1695 9.82036 30.0224 9.89024 29.8597C9.96012 29.6971 9.9969 29.5221 9.99844 29.3451C9.99998 29.168 9.96624 28.9925 9.8992 28.8286C9.83216 28.6647 9.73315 28.5159 9.60796 28.3907C9.48277 28.2655 9.3339 28.1665 9.17004 28.0994C9.00618 28.0324 8.83061 27.9987 8.65357 28.0002C8.47653 28.0017 8.30157 28.0385 8.1389 28.1084C7.97623 28.1783 7.8291 28.2799 7.7061 28.4072L2.37277 33.7405C2.12276 33.9909 1.98245 34.3303 1.9827 34.6842C1.98295 35.038 2.12374 35.3772 2.3741 35.6272C2.62447 35.8772 2.96389 36.0175 3.31771 36.0173C3.67153 36.017 4.01076 35.8762 4.26077 35.6259L9.5941 30.2925H9.59144ZM13.5914 34.2925C13.7154 34.1688 13.8138 34.0218 13.8809 33.8599C13.9481 33.6981 13.9827 33.5247 13.9828 33.3495C13.983 33.1743 13.9486 33.0008 13.8817 32.8389C13.8147 32.677 13.7166 32.5298 13.5928 32.4059C13.469 32.2819 13.322 32.1835 13.1602 32.1164C12.9984 32.0492 12.8249 32.0146 12.6497 32.0145C12.4745 32.0143 12.301 32.0487 12.1391 32.1157C11.9772 32.1826 11.8301 32.2807 11.7061 32.4045L9.03944 35.0712C8.78943 35.3216 8.64911 35.661 8.64936 36.0148C8.64961 36.3686 8.79041 36.7079 9.04077 36.9579C9.29113 37.2079 9.63056 37.3482 9.98438 37.3479C10.3382 37.3477 10.6774 37.2069 10.9274 36.9565L13.5941 34.2899L13.5914 34.2925ZM24.6501 16.6765C25.5335 16.6765 26.3806 16.3256 27.0052 15.701C27.6299 15.0764 27.9808 14.2292 27.9808 13.3459C27.9808 12.4625 27.6299 11.6154 27.0052 10.9907C26.3806 10.3661 25.5335 10.0152 24.6501 10.0152C23.7668 10.0152 22.9196 10.3661 22.295 10.9907C21.6703 11.6154 21.3194 12.4625 21.3194 13.3459C21.3194 14.2292 21.6703 15.0764 22.295 15.701C22.9196 16.3256 23.7668 16.6765 24.6501 16.6765Z" fill="#09C2B4"/>
</svg>
