<svg width="41" height="40" viewBox="0 0 41 40" fill="none" xmlns="http://www.w3.org/2000/svg">
<path d="M25.5412 20.8C25.8412 20.94 26.1812 21 26.5012 21C27.1612 21 27.7812 20.74 28.2612 20.28L32.6212 16H34.5012C37.5412 16 40.0012 13.54 40.0012 10.5V5.5C40.0012 2.46 37.5412 0 34.5012 0H25.5012C22.4612 0 20.0012 2.46 20.0012 5.5V10.5C20.0012 13.02 21.7012 15.14 24.0012 15.8V18.5C24.0012 19.5 24.6212 20.4 25.5412 20.8ZM23.0012 5.5C23.0012 4.12 24.1212 3 25.5012 3H34.5012C35.8812 3 37.0012 4.12 37.0012 5.5V10.5C37.0012 11.88 35.8812 13 34.5012 13H31.3812L27.0012 17.3V13H25.5012C24.1212 13 23.0012 11.88 23.0012 10.5V5.5ZM12.0012 23C8.14118 23 5.00118 19.86 5.00118 16C5.00118 12.14 8.14118 9 12.0012 9C15.8612 9 19.0012 12.14 19.0012 16C19.0012 19.86 15.8612 23 12.0012 23ZM12.0012 12C9.80118 12 8.00118 13.8 8.00118 16C8.00118 18.2 9.80118 20 12.0012 20C14.2012 20 16.0012 18.2 16.0012 16C16.0012 13.8 14.2012 12 12.0012 12ZM12.0012 40C7.88118 40 4.72118 38.88 2.60118 36.66C-0.0708151 33.852 -0.00481513 30.312 0.00118487 29.946V29.92C0.00118487 27.78 1.80118 26 4.00118 26H20.0012C22.2012 26 24.0012 27.8 24.0012 30L24.0032 30.012C24.0092 30.266 24.0932 33.832 21.4032 36.66C19.2812 38.88 16.1212 40 12.0012 40ZM4.00118 29C3.44118 29 3.00118 29.44 3.00118 30V30.01C3.00118 30.2 2.96719 32.706 4.80119 34.62C6.32119 36.2 8.74118 37 12.0012 37C15.2612 37 17.7012 36.18 19.2212 34.58C21.0472 32.676 21.0052 30.196 21.0012 30.064V30.06C21.0012 29.44 20.5412 28.98 20.0012 28.98H4.00118V29Z" fill="#09C2B4"/>
</svg>
