<svg width="40" height="40" viewBox="0 0 40 40" fill="none" xmlns="http://www.w3.org/2000/svg">
<path d="M7.01552 16.9738L0.76552 10.7238C0.54702 10.5061 0.373653 10.2473 0.255359 9.96243C0.137065 9.67754 0.0761719 9.37211 0.0761719 9.06364C0.0761719 8.75517 0.137065 8.44973 0.255359 8.16484C0.373653 7.87996 0.54702 7.62122 0.76552 7.40348L7.01552 1.15348C7.23353 0.935465 7.49236 0.762526 7.77721 0.644537C8.06206 0.526548 8.36736 0.46582 8.67568 0.46582C8.98399 0.46582 9.2893 0.526548 9.57415 0.644537C9.859 0.762526 10.1178 0.935465 10.3358 1.15348C10.5538 1.37149 10.7268 1.63032 10.8448 1.91517C10.9628 2.20002 11.0235 2.50532 11.0235 2.81364C11.0235 3.12196 10.9628 3.42726 10.8448 3.71211C10.7268 3.99696 10.5538 4.25578 10.3358 4.47379L5.74404 9.06559L10.3319 13.6574C10.7722 14.0977 11.0196 14.6949 11.0196 15.3175C11.0196 15.9402 10.7722 16.5374 10.3319 16.9777C9.89162 17.418 9.29445 17.6654 8.67177 17.6654C8.04909 17.6654 7.45191 17.418 7.01161 16.9777L7.01552 16.9738ZM16.3905 16.9738C16.6083 17.1923 16.867 17.3657 17.1519 17.484C17.4368 17.6022 17.7422 17.6631 18.0507 17.6631C18.3591 17.6631 18.6646 17.6022 18.9495 17.484C19.2344 17.3657 19.4931 17.1923 19.7108 16.9738L25.9608 10.7238C26.1793 10.5061 26.3527 10.2473 26.471 9.96243C26.5893 9.67754 26.6502 9.37211 26.6502 9.06364C26.6502 8.75517 26.5893 8.44973 26.471 8.16484C26.3527 7.87996 26.1793 7.62122 25.9608 7.40348L19.7108 1.15348C19.2705 0.713179 18.6734 0.46582 18.0507 0.46582C17.428 0.46582 16.8308 0.713179 16.3905 1.15348C15.9502 1.59378 15.7029 2.19096 15.7029 2.81364C15.7029 3.43632 15.9502 4.03349 16.3905 4.47379L20.9784 9.06559L16.3905 13.6574C16.1726 13.8751 15.9997 14.1335 15.8818 14.4181C15.7638 14.7026 15.7031 15.0076 15.7031 15.3156C15.7031 15.6236 15.7638 15.9286 15.8818 16.2131C15.9997 16.4976 16.1726 16.7561 16.3905 16.9738ZM36.0175 3.59684H32.1112C31.4896 3.59684 30.8935 3.84377 30.4539 4.28331C30.0144 4.72285 29.7675 5.31899 29.7675 5.94059C29.7675 6.56219 30.0144 7.15833 30.4539 7.59787C30.8935 8.03741 31.4896 8.28434 32.1112 8.28434H35.2362V34.8468H8.67372V23.9093C8.67372 23.2877 8.42679 22.6916 7.98725 22.2521C7.54772 21.8125 6.95157 21.5656 6.32997 21.5656C5.70837 21.5656 5.11223 21.8125 4.67269 22.2521C4.23315 22.6916 3.98622 23.2877 3.98622 23.9093V35.6281C3.98622 36.6641 4.39777 37.6577 5.13034 38.3902C5.8629 39.1228 6.85647 39.5343 7.89247 39.5343H36.0175C37.0535 39.5343 38.047 39.1228 38.7796 38.3902C39.5122 37.6577 39.9237 36.6641 39.9237 35.6281V7.50309C39.9237 6.46709 39.5122 5.47352 38.7796 4.74095C38.047 4.00839 37.0535 3.59684 36.0175 3.59684Z" fill="#09C2B4"/>
</svg>
